<svg width="128" height="128" viewBox="0 0 128 128" fill="none" xmlns="http://www.w3.org/2000/svg">
<g clip-path="url(#clip0_71_65)">
<rect width="128" height="128" fill="#E02F3A"/>
<g filter="url(#filter0_f_71_65)">
<rect x="0.331543" width="128" height="128" fill="black" fill-opacity="0.2"/>
</g>
<path fill-rule="evenodd" clip-rule="evenodd" d="M113.996 64.0077L106.661 51.3996H86.3383L96.5076 33.9411L89.1721 21.333H74.5009L64.3315 38.7916L54.1783 21.3491H39.5072L32.1716 33.9571L42.341 51.4157H22.0184L14.6666 64.0077L22.0022 76.6158H42.3248L32.1554 94.0743L39.491 106.666H54.1621L64.3315 89.2078L74.5009 106.666H74.6467H89.1721L96.5076 94.0743L86.3383 76.6158H106.661L113.996 64.0077ZM92.7994 33.9411L82.63 51.3996H73.5293L88.2491 26.1353L92.7994 33.9411ZM76.347 24.5292H85.4476L70.7279 49.8096L66.1776 41.9878L76.347 24.5292ZM68.8819 53.0058L64.3315 60.8276L48.6888 33.9571L53.2391 26.1353L68.8819 53.0058ZM35.8799 33.9411L41.3532 24.5292H50.4539L44.9805 33.9411L61.5463 62.4016H52.4456L35.8799 33.9411ZM23.8644 54.5958H44.187L48.7374 62.4176H19.3141L23.8644 54.5958ZM23.8644 73.4196L19.3141 65.5978H48.7374L44.187 73.4196H23.8644ZM52.4456 65.5978H61.5463L45.9035 92.4682H36.8029L52.4456 65.5978ZM52.3161 103.486H41.3532L36.8029 95.6644H47.7658L64.3315 67.2039L68.8819 75.0257L52.3161 103.486ZM76.347 103.486L66.1776 86.0277L70.7279 78.2058L85.4476 103.486H76.347ZM92.7994 94.0743L88.2491 101.88L73.5293 76.5997H82.63L92.7994 94.0743ZM71.6671 73.4196L67.1168 65.5978H98.4023L102.953 73.4196H71.6671ZM100.265 62.4176H100.119H67.133L71.6833 54.5958H104.831L110.304 64.0077L105.738 71.8295L100.265 62.4176Z" fill="white"/>
</g>
<defs>
<filter id="filter0_f_71_65" x="-54.9685" y="-55.3" width="238.6" height="238.6" filterUnits="userSpaceOnUse" color-interpolation-filters="sRGB">
<feFlood flood-opacity="0" result="BackgroundImageFix"/>
<feBlend mode="normal" in="SourceGraphic" in2="BackgroundImageFix" result="shape"/>
<feGaussianBlur stdDeviation="27.65" result="effect1_foregroundBlur_71_65"/>
</filter>
<clipPath id="clip0_71_65">
<rect width="128" height="128" fill="white"/>
</clipPath>
</defs>
</svg>
