<svg width="50" height="54" viewBox="0 0 50 54" fill="none" xmlns="http://www.w3.org/2000/svg">
<g filter="url(#filter0_dii_2002_53)">
<rect width="50" height="50" rx="15" fill="white" style="fill:white;fill-opacity:1;"/>
</g>
<path d="M31.7978 32.0949C31.918 31.7768 31.9603 31.4346 31.9213 31.0969C31.8824 30.7591 31.7632 30.4355 31.5738 30.1532C31.3792 29.9199 31.1405 29.7272 30.8714 29.5863C30.6023 29.4453 30.308 29.3588 30.0054 29.3316L17.0106 29.1823C16.9359 29.1823 16.8612 29.1076 16.7865 29.1076C16.7691 29.0946 16.755 29.0776 16.7453 29.0582C16.7355 29.0388 16.7305 29.0173 16.7305 28.9956C16.7305 28.9738 16.7355 28.9524 16.7453 28.9329C16.755 28.9135 16.7691 28.8966 16.7865 28.8835C16.8612 28.7342 16.9359 28.6595 17.0852 28.6595L30.1548 28.5101C30.9845 28.4181 31.7747 28.1066 32.4441 27.6078C33.1136 27.109 33.638 26.4409 33.9636 25.6722L34.7104 23.7304C34.7104 23.6557 34.7851 23.581 34.7104 23.5064C34.3044 21.6979 33.3191 20.0713 31.9043 18.8739C30.4894 17.6765 28.7224 16.9737 26.8716 16.8723C25.0208 16.7709 23.1876 17.2764 21.6504 18.3121C20.1132 19.3477 18.956 20.8568 18.3548 22.6102C17.5744 22.0528 16.6224 21.7883 15.6663 21.8633C14.7888 21.9612 13.9707 22.3546 13.3464 22.9789C12.7221 23.6032 12.3287 24.4213 12.2308 25.2988C12.1811 25.7479 12.2063 26.2022 12.3055 26.6431C10.8857 26.6823 9.53731 27.2739 8.54704 28.2921C7.55677 29.3103 7.00282 30.6746 7.00302 32.0949C6.99076 32.3709 7.01588 32.6472 7.0777 32.9164C7.08113 32.9747 7.10584 33.0298 7.14713 33.0711C7.18843 33.1123 7.24345 33.1371 7.30175 33.1405H31.275C31.4244 33.1405 31.5738 33.0658 31.5738 32.9164L31.7978 32.0949Z" fill="#F48120" style="fill:#F48120;fill:color(display-p3 0.9569 0.5059 0.1255);fill-opacity:1;"/>
<path d="M35.9051 23.7299H35.5317C35.457 23.7299 35.3823 23.8045 35.3076 23.8792L34.7848 25.6716C34.6647 25.9897 34.6223 26.3319 34.6613 26.6697C34.7003 27.0075 34.8195 27.331 35.0089 27.6134C35.2035 27.8467 35.4422 28.0393 35.7113 28.1803C35.9804 28.3213 36.2747 28.4078 36.5772 28.4349L39.3405 28.5843C39.4152 28.5843 39.4899 28.6589 39.5646 28.6589C39.582 28.672 39.5961 28.6889 39.6058 28.7083C39.6155 28.7278 39.6206 28.7492 39.6206 28.771C39.6206 28.7927 39.6155 28.8141 39.6058 28.8336C39.5961 28.853 39.582 28.8699 39.5646 28.883C39.4899 29.0324 39.4152 29.107 39.2658 29.107L36.4279 29.2564C35.5981 29.3485 34.8079 29.6599 34.1385 30.1587C33.4691 30.6575 32.9446 31.3256 32.619 32.0944L32.4697 32.7665C32.395 32.8412 32.4697 32.9906 32.619 32.9906H42.4772C42.5076 32.9949 42.5387 32.9921 42.5678 32.9824C42.597 32.9727 42.6235 32.9563 42.6452 32.9345C42.667 32.9128 42.6834 32.8863 42.6931 32.8571C42.7028 32.828 42.7056 32.7969 42.7013 32.7665C42.8791 32.1337 42.9794 31.4817 43 30.8248C42.9881 28.9467 42.2369 27.149 40.9089 25.821C39.5809 24.493 37.7831 23.7417 35.9051 23.7299Z" fill="#FAAD3F" style="fill:#FAAD3F;fill:color(display-p3 0.9804 0.6784 0.2471);fill-opacity:1;"/>
<defs>
<filter id="filter0_dii_2002_53" x="0" y="-4" width="50" height="58" filterUnits="userSpaceOnUse" color-interpolation-filters="sRGB">
<feFlood flood-opacity="0" result="BackgroundImageFix"/>
<feColorMatrix in="SourceAlpha" type="matrix" values="0 0 0 0 0 0 0 0 0 0 0 0 0 0 0 0 0 0 127 0" result="hardAlpha"/>
<feOffset dy="4"/>
<feComposite in2="hardAlpha" operator="out"/>
<feColorMatrix type="matrix" values="0 0 0 0 1 0 0 0 0 0.584314 0 0 0 0 0 0 0 0 1 0"/>
<feBlend mode="normal" in2="BackgroundImageFix" result="effect1_dropShadow_2002_53"/>
<feBlend mode="normal" in="SourceGraphic" in2="effect1_dropShadow_2002_53" result="shape"/>
<feColorMatrix in="SourceAlpha" type="matrix" values="0 0 0 0 0 0 0 0 0 0 0 0 0 0 0 0 0 0 127 0" result="hardAlpha"/>
<feOffset dy="4"/>
<feGaussianBlur stdDeviation="2"/>
<feComposite in2="hardAlpha" operator="arithmetic" k2="-1" k3="1"/>
<feColorMatrix type="matrix" values="0 0 0 0 1 0 0 0 0 0.982352 0 0 0 0 0.942308 0 0 0 1 0"/>
<feBlend mode="normal" in2="shape" result="effect2_innerShadow_2002_53"/>
<feColorMatrix in="SourceAlpha" type="matrix" values="0 0 0 0 0 0 0 0 0 0 0 0 0 0 0 0 0 0 127 0" result="hardAlpha"/>
<feOffset dy="-4"/>
<feGaussianBlur stdDeviation="2"/>
<feComposite in2="hardAlpha" operator="arithmetic" k2="-1" k3="1"/>
<feColorMatrix type="matrix" values="0 0 0 0 1 0 0 0 0 0.913189 0 0 0 0 0.841346 0 0 0 1 0"/>
<feBlend mode="normal" in2="effect2_innerShadow_2002_53" result="effect3_innerShadow_2002_53"/>
</filter>
</defs>
</svg>
