<svg width="800" height="800" viewBox="0 0 800 800" fill="none" xmlns="http://www.w3.org/2000/svg">
<g clip-path="url(#clip0_10_8906)">
<rect width="800" height="800" fill="#07080A"/>
<path opacity="0.8" d="M781.168 726.619L574.191 479.952C573.658 479.318 572.712 479.235 572.077 479.767C571.443 480.3 571.36 481.246 571.893 481.881L778.87 728.547C779.403 729.182 780.349 729.264 780.983 728.732C781.618 728.199 781.701 727.253 781.168 726.619Z" fill="#07902A"/>
<path opacity="0.66" d="M68.8189 447.588L4.54011 370.983C4.00761 370.349 3.06147 370.266 2.42686 370.798C1.79225 371.331 1.70947 372.277 2.24198 372.912L66.5207 449.516C67.0532 450.151 67.9994 450.233 68.634 449.701C69.2686 449.168 69.3514 448.222 68.8189 447.588Z" fill="#07902A"/>
<path opacity="0.73" d="M686.391 341.927L634.968 280.644C634.436 280.009 633.489 279.926 632.855 280.459C632.22 280.991 632.137 281.937 632.67 282.572L684.093 343.856C684.625 344.49 685.572 344.573 686.206 344.04C686.841 343.508 686.924 342.562 686.391 341.927Z" fill="#07902A"/>
<path opacity="0.74" d="M506.56 434.428L284.799 170.143C284.266 169.508 283.32 169.426 282.685 169.958C282.051 170.491 281.968 171.437 282.501 172.071L504.262 436.357C504.795 436.991 505.741 437.074 506.376 436.542C507.01 436.009 507.093 435.063 506.56 434.428Z" fill="#07902A"/>
<path opacity="0.34" d="M699.926 716.141L641.433 646.431C640.9 645.796 639.954 645.713 639.319 646.246C638.685 646.778 638.602 647.724 639.135 648.359L697.628 718.069C698.161 718.704 699.107 718.786 699.741 718.254C700.376 717.721 700.459 716.775 699.926 716.141Z" fill="#07902A"/>
<path opacity="0.13" d="M787.46 162.803L685.899 41.7682C685.367 41.1336 684.421 41.0508 683.786 41.5833C683.151 42.1158 683.069 43.062 683.601 43.6966L785.162 164.732C785.694 165.366 786.64 165.449 787.275 164.916C787.909 164.384 787.992 163.438 787.46 162.803Z" fill="#07902A"/>
<path opacity="0.33" d="M320.068 197.994L233.291 94.5775C232.759 93.9429 231.813 93.8601 231.178 94.3926C230.543 94.9252 230.461 95.8713 230.993 96.5059L317.77 199.922C318.302 200.557 319.248 200.639 319.883 200.107C320.517 199.574 320.6 198.628 320.068 197.994Z" fill="#07902A"/>
<path opacity="0.6" d="M245.281 446.549L134.078 314.023C133.546 313.388 132.6 313.305 131.965 313.838C131.331 314.37 131.248 315.317 131.78 315.951L242.983 448.477C243.515 449.112 244.461 449.194 245.096 448.662C245.73 448.129 245.813 447.183 245.281 446.549Z" fill="#07902A"/>
<path opacity="0.79" d="M161.426 786.503L93.9332 706.068C93.4007 705.434 92.4545 705.351 91.8199 705.883C91.1853 706.416 91.1025 707.362 91.635 707.997L159.128 788.431C159.66 789.066 160.606 789.149 161.241 788.616C161.876 788.084 161.958 787.138 161.426 786.503Z" fill="#07902A"/>
<path opacity="0.38" d="M642.348 480.149L463.011 266.423C462.478 265.788 461.532 265.705 460.897 266.238C460.263 266.77 460.18 267.716 460.712 268.351L640.05 482.077C640.583 482.712 641.529 482.795 642.163 482.262C642.798 481.73 642.881 480.784 642.348 480.149Z" fill="#07902A"/>
<path opacity="0.94" d="M134.496 69.9294L52.8624 -27.3583C52.3299 -27.9929 51.3837 -28.0756 50.7491 -27.5431C50.1145 -27.0106 50.0317 -26.0645 50.5642 -25.4299L132.198 71.8577C132.731 72.4924 133.677 72.5751 134.312 72.0426C134.946 71.5101 135.029 70.564 134.496 69.9294Z" fill="#07902A"/>
<path opacity="0.47" d="M739.316 304.399L630.043 174.172C629.51 173.537 628.564 173.454 627.929 173.987C627.295 174.519 627.212 175.466 627.744 176.1L737.018 306.328C737.551 306.962 738.497 307.045 739.132 306.513C739.766 305.98 739.849 305.034 739.316 304.399Z" fill="#07902A"/>
<path opacity="0.71" d="M657.641 56.6084L601.718 -10.0375C601.186 -10.6721 600.239 -10.7548 599.605 -10.2223C598.97 -9.68984 598.887 -8.74371 599.42 -8.10909L655.342 58.5368C655.875 59.1714 656.821 59.2542 657.456 58.7217C658.09 58.1892 658.173 57.243 657.641 56.6084Z" fill="#07902A"/>
<path opacity="0.58" d="M142.78 183.911L22.5789 40.6605C22.0464 40.0259 21.1003 39.9432 20.4657 40.4757C19.8311 41.0082 19.7483 41.9543 20.2808 42.5889L140.482 185.839C141.015 186.474 141.961 186.557 142.595 186.024C143.23 185.492 143.313 184.545 142.78 183.911Z" fill="#07902A"/>
<path opacity="0.26" d="M399.891 774.29L339.469 702.281C338.936 701.647 337.99 701.564 337.355 702.097C336.721 702.629 336.638 703.575 337.17 704.21L397.592 776.218C398.125 776.853 399.071 776.935 399.706 776.403C400.34 775.87 400.423 774.924 399.891 774.29Z" fill="#07902A"/>
<path opacity="0.88" d="M242.426 545.503L174.933 465.068C174.401 464.434 173.455 464.351 172.82 464.883C172.185 465.416 172.103 466.362 172.635 466.997L240.128 547.431C240.66 548.066 241.606 548.149 242.241 547.616C242.876 547.084 242.958 546.138 242.426 545.503Z" fill="#07902A"/>
<path opacity="0.74" d="M617.596 227.279L397.763 -34.7081C397.23 -35.3427 396.284 -35.4255 395.65 -34.893C395.015 -34.3605 394.932 -33.4144 395.465 -32.7797L615.298 229.207C615.831 229.842 616.777 229.925 617.411 229.392C618.046 228.86 618.129 227.914 617.596 227.279Z" fill="#07902A"/>
<path opacity="0.97" d="M786.891 303.29L726.469 231.281C725.936 230.647 724.99 230.564 724.355 231.097C723.721 231.629 723.638 232.575 724.17 233.21L784.592 305.218C785.125 305.853 786.071 305.935 786.706 305.403C787.34 304.87 787.423 303.924 786.891 303.29Z" fill="#07902A"/>
<path opacity="0.16" d="M438.888 89.4635L324.472 -46.8924C323.939 -47.527 322.993 -47.6098 322.358 -47.0773C321.724 -46.5448 321.641 -45.5987 322.173 -44.9641L436.59 91.3918C437.122 92.0264 438.068 92.1092 438.703 91.5767C439.337 91.0442 439.42 90.0981 438.888 89.4635Z" fill="#07902A"/>
<path opacity="0.13" d="M490.854 401.163L410.505 305.408C409.973 304.773 409.027 304.69 408.392 305.223C407.757 305.755 407.675 306.702 408.207 307.336L488.556 403.092C489.088 403.726 490.034 403.809 490.669 403.277C491.303 402.744 491.386 401.798 490.854 401.163Z" fill="#07902A"/>
<path opacity="0.3" d="M204.393 611.478L188.966 593.093C188.434 592.458 187.487 592.376 186.853 592.908C186.218 593.441 186.135 594.387 186.668 595.021L202.095 613.406C202.627 614.041 203.574 614.124 204.208 613.591C204.843 613.059 204.926 612.113 204.393 611.478Z" fill="#07902A"/>
<path opacity="0.07" d="M166.746 672.611L80.6126 569.961C80.0801 569.326 79.134 569.243 78.4994 569.776C77.8648 570.308 77.782 571.254 78.3145 571.889L164.448 674.539C164.981 675.174 165.927 675.256 166.561 674.724C167.196 674.191 167.279 673.245 166.746 672.611Z" fill="#07902A"/>
<path opacity="0.42" d="M374.749 160.437L342.61 122.134C342.077 121.5 341.131 121.417 340.496 121.95C339.862 122.482 339.779 123.428 340.312 124.063L372.451 162.365C372.983 163 373.93 163.082 374.564 162.55C375.199 162.017 375.282 161.071 374.749 160.437Z" fill="#07902A"/>
<path opacity="0.99" d="M709.639 241.058L617.72 131.513C617.188 130.879 616.241 130.796 615.607 131.328C614.972 131.861 614.889 132.807 615.422 133.442L707.341 242.986C707.873 243.621 708.819 243.703 709.454 243.171C710.088 242.638 710.171 241.692 709.639 241.058Z" fill="#07902A"/>
<path opacity="0.77" d="M713.239 783.045L492.12 519.526C491.587 518.891 490.641 518.809 490.007 519.341C489.372 519.874 489.289 520.82 489.822 521.454L710.941 784.974C711.473 785.608 712.419 785.691 713.054 785.159C713.689 784.626 713.771 783.68 713.239 783.045Z" fill="#07902A"/>
<path opacity="0.71" d="M461.281 679.548L350.078 547.023C349.546 546.388 348.6 546.305 347.965 546.838C347.331 547.37 347.248 548.316 347.78 548.951L458.983 681.477C459.515 682.111 460.461 682.194 461.096 681.662C461.73 681.129 461.813 680.183 461.281 679.548Z" fill="#07902A"/>
<path opacity="0.43" d="M828.889 198.739L732.471 83.8322C731.938 83.1976 730.992 83.1148 730.357 83.6473C729.723 84.1798 729.64 85.1259 730.172 85.7605L826.591 200.667C827.123 201.302 828.069 201.385 828.704 200.852C829.338 200.32 829.421 199.373 828.889 198.739Z" fill="#07902A"/>
<path opacity="0.95" d="M350.711 654.035L280.648 570.536C280.115 569.902 279.169 569.819 278.534 570.351C277.9 570.884 277.817 571.83 278.349 572.465L348.413 655.963C348.946 656.598 349.892 656.681 350.526 656.148C351.161 655.616 351.244 654.67 350.711 654.035Z" fill="#07902A"/>
<path opacity="0.49" d="M670.423 473.677L548.936 328.894C548.404 328.26 547.457 328.177 546.823 328.71C546.188 329.242 546.105 330.188 546.638 330.823L668.125 475.605C668.657 476.24 669.603 476.323 670.238 475.79C670.873 475.258 670.955 474.311 670.423 473.677Z" fill="#07902A"/>
<path opacity="0.8" d="M294.602 655.932L182.757 522.64C182.224 522.005 181.278 521.922 180.644 522.455C180.009 522.987 179.926 523.934 180.459 524.568L292.304 657.86C292.836 658.494 293.782 658.577 294.417 658.045C295.052 657.512 295.134 656.566 294.602 655.932Z" fill="#07902A"/>
<path opacity="0.43" d="M830.888 392.463L716.472 256.108C715.939 255.473 714.993 255.39 714.358 255.923C713.724 256.455 713.641 257.401 714.173 258.036L828.59 394.392C829.122 395.026 830.068 395.109 830.703 394.577C831.337 394.044 831.42 393.098 830.888 392.463Z" fill="#07902A"/>
<path opacity="0.42" d="M326.927 572.416L286.432 524.155C285.899 523.521 284.953 523.438 284.318 523.97C283.684 524.503 283.601 525.449 284.134 526.084L324.629 574.344C325.162 574.979 326.108 575.062 326.742 574.529C327.377 573.997 327.46 573.051 326.927 572.416Z" fill="#07902A"/>
<path opacity="0.66" d="M829.779 641.635L691.58 476.936C691.047 476.301 690.101 476.218 689.467 476.751C688.832 477.283 688.749 478.229 689.282 478.864L827.481 643.564C828.014 644.198 828.96 644.281 829.594 643.748C830.229 643.216 830.312 642.27 829.779 641.635Z" fill="#07902A"/>
<path opacity="0.97" d="M79.6747 797.909L-10.3156 690.662C-10.8481 690.028 -11.7942 689.945 -12.4289 690.478C-13.0635 691.01 -13.1462 691.956 -12.6137 692.591L77.3765 799.837C77.909 800.472 78.8552 800.554 79.4898 800.022C80.1244 799.489 80.2072 798.543 79.6747 797.909Z" fill="#07902A"/>
<path opacity="0.99" d="M208.318 235.95L135.041 148.621C134.508 147.986 133.562 147.904 132.927 148.436C132.293 148.969 132.21 149.915 132.742 150.549L206.02 237.878C206.553 238.513 207.499 238.596 208.134 238.063C208.768 237.531 208.851 236.585 208.318 235.95Z" fill="#07902A"/>
<path opacity="0.86" d="M383.316 236.399L274.043 106.172C273.51 105.537 272.564 105.454 271.929 105.987C271.295 106.519 271.212 107.466 271.744 108.1L381.018 238.328C381.551 238.962 382.497 239.045 383.132 238.513C383.766 237.98 383.849 237.034 383.316 236.399Z" fill="#07902A"/>
<path opacity="0.74" d="M636.061 818.066L423.298 564.505C422.766 563.871 421.82 563.788 421.185 564.32C420.55 564.853 420.468 565.799 421 566.434L633.763 819.994C634.295 820.629 635.241 820.712 635.876 820.179C636.511 819.647 636.593 818.701 636.061 818.066Z" fill="#07902A"/>
<path opacity="0.23" d="M501.385 840.275L341.974 650.296C341.441 649.661 340.495 649.579 339.861 650.111C339.226 650.644 339.143 651.59 339.676 652.224L499.087 842.203C499.62 842.838 500.566 842.921 501.2 842.388C501.835 841.856 501.918 840.91 501.385 840.275Z" fill="#07902A"/>
<path opacity="0.36" d="M589.14 222.971L524.219 145.6C523.686 144.966 522.74 144.883 522.105 145.415C521.471 145.948 521.388 146.894 521.92 147.529L586.842 224.899C587.374 225.534 588.321 225.616 588.955 225.084C589.59 224.551 589.673 223.605 589.14 222.971Z" fill="#07902A"/>
<path opacity="0.37" d="M862.203 875.194L639.156 609.377C638.623 608.742 637.677 608.659 637.043 609.192C636.408 609.724 636.325 610.671 636.858 611.305L859.905 877.123C860.438 877.757 861.384 877.84 862.018 877.308C862.653 876.775 862.736 875.829 862.203 875.194Z" fill="#07902A"/>
<path opacity="0.96" d="M502.744 554.06L380.615 408.511C380.082 407.877 379.136 407.794 378.501 408.326C377.867 408.859 377.784 409.805 378.316 410.44L500.446 555.988C500.979 556.623 501.925 556.706 502.559 556.173C503.194 555.641 503.277 554.694 502.744 554.06Z" fill="#07902A"/>
<path opacity="0.88" d="M82.6029 56.2069L-11.2441 -55.6356C-11.7766 -56.2702 -12.7227 -56.353 -13.3573 -55.8205C-13.9919 -55.288 -14.0747 -54.3419 -13.5422 -53.7072L80.3048 58.1352C80.8373 58.7699 81.7834 58.8526 82.418 58.3201C83.0527 57.7876 83.1354 56.8415 82.6029 56.2069Z" fill="#07902A"/>
<path opacity="0.12" d="M245.319 44.2254L190.04 -21.6544C189.507 -22.289 188.561 -22.3718 187.926 -21.8393C187.292 -21.3068 187.209 -20.3606 187.741 -19.726L243.021 46.1538C243.554 46.7884 244.5 46.8712 245.134 46.3387C245.769 45.8062 245.852 44.86 245.319 44.2254Z" fill="#07902A"/>
<path opacity="0.91" d="M386.387 541.826L262.972 394.745C262.439 394.111 261.493 394.028 260.859 394.56C260.224 395.093 260.141 396.039 260.674 396.674L384.089 543.754C384.622 544.389 385.568 544.472 386.202 543.939C386.837 543.407 386.92 542.46 386.387 541.826Z" fill="#07902A"/>
<path opacity="0.68" d="M507.963 296.267L469.396 250.304C468.863 249.67 467.917 249.587 467.283 250.119C466.648 250.652 466.565 251.598 467.098 252.233L505.665 298.195C506.197 298.83 507.144 298.913 507.778 298.38C508.413 297.848 508.496 296.902 507.963 296.267Z" fill="#07902A"/>
<path opacity="0.18" d="M254.349 822.424L93.0096 630.147C92.4771 629.513 91.531 629.43 90.8963 629.962C90.2617 630.495 90.179 631.441 90.7115 632.075L252.051 824.353C252.584 824.987 253.53 825.07 254.164 824.538C254.799 824.005 254.882 823.059 254.349 822.424Z" fill="#07902A"/>
<path opacity="0.33" d="M739.357 1.62719L722.002 -19.056C721.469 -19.6906 720.523 -19.7734 719.889 -19.2409C719.254 -18.7084 719.171 -17.7623 719.704 -17.1276L737.059 3.55555C737.591 4.19016 738.538 4.27294 739.172 3.74044C739.807 3.20793 739.89 2.2618 739.357 1.62719Z" fill="#07902A"/>
<path opacity="0.97" d="M468.315 205.124L341.044 53.4472C340.511 52.8126 339.565 52.7298 338.93 53.2623C338.296 53.7948 338.213 54.7409 338.745 55.3755L466.017 207.052C466.55 207.687 467.496 207.77 468.131 207.237C468.765 206.705 468.848 205.759 468.315 205.124Z" fill="#07902A"/>
<path opacity="0.11" d="M494.809 538.834L250.55 247.737C250.017 247.103 249.071 247.02 248.437 247.552C247.802 248.085 247.719 249.031 248.252 249.666L492.511 540.762C493.044 541.397 493.99 541.48 494.624 540.947C495.259 540.415 495.342 539.469 494.809 538.834Z" fill="#07902A"/>
<path opacity="0.1" d="M393.239 453.045L172.12 189.526C171.587 188.891 170.641 188.809 170.007 189.341C169.372 189.874 169.289 190.82 169.822 191.454L390.941 454.974C391.473 455.608 392.419 455.691 393.054 455.159C393.689 454.626 393.771 453.68 393.239 453.045Z" fill="#07902A"/>
<path opacity="0.92" d="M734.601 593.656L604.758 438.915C604.225 438.281 603.279 438.198 602.645 438.73C602.01 439.263 601.927 440.209 602.46 440.844L732.303 595.585C732.835 596.219 733.781 596.302 734.416 595.769C735.051 595.237 735.133 594.291 734.601 593.656Z" fill="#07902A"/>
<path opacity="0.27" d="M206.998 574.842L152.361 509.729C151.828 509.094 150.882 509.011 150.248 509.544C149.613 510.076 149.53 511.022 150.063 511.657L204.7 576.771C205.232 577.405 206.178 577.488 206.813 576.956C207.448 576.423 207.53 575.477 206.998 574.842Z" fill="#07902A"/>
<path opacity="0.18" d="M538.639 804.058L446.72 694.513C446.188 693.879 445.242 693.796 444.607 694.328C443.972 694.861 443.89 695.807 444.422 696.442L536.341 805.986C536.873 806.621 537.819 806.703 538.454 806.171C539.089 805.638 539.171 804.692 538.639 804.058Z" fill="#07902A"/>
<path opacity="0.62" d="M252.533 786.056L190.826 712.516C190.293 711.881 189.347 711.798 188.713 712.331C188.078 712.863 187.995 713.809 188.528 714.444L250.235 787.984C250.768 788.619 251.714 788.702 252.348 788.169C252.983 787.637 253.066 786.69 252.533 786.056Z" fill="#07902A"/>
<path opacity="0.28" d="M387.889 61.7388L291.471 -53.1678C290.938 -53.8024 289.992 -53.8852 289.357 -53.3527C288.723 -52.8202 288.64 -51.8741 289.172 -51.2395L385.591 63.6672C386.123 64.3018 387.069 64.3846 387.704 63.8521C388.338 63.3196 388.421 62.3735 387.889 61.7388Z" fill="#07902A"/>
<path d="M159.316 474.399L50.0426 344.172C49.51 343.537 48.5639 343.454 47.9293 343.987C47.2947 344.519 47.2119 345.466 47.7444 346.1L157.018 476.328C157.551 476.962 158.497 477.045 159.132 476.513C159.766 475.98 159.849 475.034 159.316 474.399Z" fill="#07902A"/>
<path opacity="0.38" d="M661.24 596.321L458.119 354.251C457.586 353.616 456.64 353.533 456.006 354.066C455.371 354.598 455.288 355.544 455.821 356.179L658.942 598.249C659.474 598.884 660.42 598.966 661.055 598.434C661.69 597.901 661.772 596.955 661.24 596.321Z" fill="#07902A"/>
<path opacity="0.16" d="M82.209 192.847L-32.85 55.7248C-33.3825 55.0901 -34.3287 55.0074 -34.9633 55.5399C-35.5979 56.0724 -35.6807 57.0185 -35.1482 57.6531L79.9108 194.775C80.4433 195.41 81.3895 195.492 82.0241 194.96C82.6587 194.427 82.7415 193.481 82.209 192.847Z" fill="#07902A"/>
<path opacity="0.16" d="M291.89 599.014L213.47 505.557C212.937 504.922 211.991 504.839 211.356 505.372C210.722 505.904 210.639 506.851 211.171 507.485L289.592 600.943C290.124 601.577 291.07 601.66 291.705 601.127C292.339 600.595 292.422 599.649 291.89 599.014Z" fill="#07902A"/>
<path opacity="0.83" d="M573.783 578.737L507.576 499.834C507.043 499.2 506.097 499.117 505.463 499.649C504.828 500.182 504.745 501.128 505.278 501.763L571.485 580.665C572.017 581.3 572.964 581.383 573.598 580.85C574.233 580.318 574.316 579.372 573.783 578.737Z" fill="#07902A"/>
<path opacity="0.21" d="M106.636 343.232L-39.277 169.339C-39.8095 168.705 -40.7557 168.622 -41.3903 169.155C-42.0249 169.687 -42.1077 170.633 -41.5752 171.268L104.338 345.16C104.87 345.795 105.816 345.877 106.451 345.345C107.085 344.812 107.168 343.866 106.636 343.232Z" fill="#07902A"/>
<path opacity="0.55" d="M781.062 191.341L586.297 -40.7701C585.765 -41.4047 584.819 -41.4875 584.184 -40.955C583.549 -40.4225 583.467 -39.4764 583.999 -38.8418L778.764 193.27C779.296 193.904 780.242 193.987 780.877 193.455C781.512 192.922 781.594 191.976 781.062 191.341Z" fill="#07902A"/>
<path opacity="0.66" d="M201.459 184.528L81.9002 42.0434C81.3677 41.4087 80.4216 41.326 79.787 41.8585C79.1524 42.391 79.0696 43.3371 79.6021 43.9717L199.161 186.456C199.693 187.091 200.639 187.173 201.274 186.641C201.908 186.108 201.991 185.162 201.459 184.528Z" fill="#07902A"/>
<path opacity="0.79" d="M529.922 684.039L399.437 528.532C398.904 527.898 397.958 527.815 397.323 528.347C396.689 528.88 396.606 529.826 397.138 530.46L527.624 685.968C528.157 686.602 529.103 686.685 529.738 686.152C530.372 685.62 530.455 684.674 529.922 684.039Z" fill="#07902A"/>
<path opacity="0.69" d="M772.317 704.675L681.042 595.896C680.509 595.262 679.563 595.179 678.928 595.711C678.294 596.244 678.211 597.19 678.743 597.825L770.019 706.603C770.552 707.238 771.498 707.32 772.133 706.788C772.767 706.255 772.85 705.309 772.317 704.675Z" fill="#07902A"/>
<path opacity="0.45" d="M71.7841 114.012L23.575 56.559C23.0425 55.9244 22.0964 55.8416 21.4618 56.3741C20.8272 56.9066 20.7444 57.8527 21.2769 58.4873L69.486 115.941C70.0185 116.575 70.9646 116.658 71.5992 116.126C72.2338 115.593 72.3166 114.647 71.7841 114.012Z" fill="#07902A"/>
<path opacity="0.91" d="M155.855 598.439L93.5042 524.132C92.9717 523.498 92.0256 523.415 91.391 523.948C90.7564 524.48 90.6736 525.426 91.2061 526.061L153.556 600.367C154.089 601.002 155.035 601.085 155.67 600.552C156.304 600.02 156.387 599.073 155.855 598.439Z" fill="#07902A"/>
<path opacity="0.93" d="M762.996 212.292L672.363 104.279C671.83 103.645 670.884 103.562 670.25 104.095C669.615 104.627 669.532 105.573 670.065 106.208L760.698 214.22C761.23 214.855 762.176 214.937 762.811 214.405C763.446 213.872 763.528 212.926 762.996 212.292Z" fill="#07902A"/>
<path opacity="0.36" d="M588.284 72.3746L531.076 4.19667C530.543 3.56206 529.597 3.47929 528.962 4.01179C528.328 4.54429 528.245 5.49042 528.777 6.12504L585.985 74.303C586.518 74.9376 587.464 75.0204 588.099 74.4879C588.733 73.9554 588.816 73.0092 588.284 72.3746Z" fill="#07902A"/>
<path opacity="0.92" d="M745.641 58.6084L689.718 -8.03746C689.186 -8.67207 688.239 -8.75484 687.605 -8.22234C686.97 -7.68984 686.887 -6.74371 687.42 -6.10909L743.342 60.5368C743.875 61.1714 744.821 61.2542 745.456 60.7217C746.09 60.1892 746.173 59.243 745.641 58.6084Z" fill="#07902A"/>
<path opacity="0.45" d="M134.563 598.254L-33.2043 398.317C-33.7368 397.682 -34.6829 397.599 -35.3175 398.132C-35.9521 398.664 -36.0349 399.611 -35.5024 400.245L132.265 600.183C132.798 600.817 133.744 600.9 134.378 600.368C135.013 599.835 135.096 598.889 134.563 598.254Z" fill="#07902A"/>
<path opacity="0.9" d="M563.569 648.907L503.79 577.664C503.257 577.03 502.311 576.947 501.677 577.48C501.042 578.012 500.959 578.958 501.492 579.593L561.271 650.835C561.803 651.47 562.75 651.552 563.384 651.02C564.019 650.487 564.102 649.541 563.569 648.907Z" fill="#07902A"/>
<path opacity="0.49" d="M164.918 459.662L-55.5585 196.909C-56.091 196.274 -57.0372 196.192 -57.6718 196.724C-58.3064 197.257 -58.3892 198.203 -57.8567 198.837L162.62 461.591C163.152 462.225 164.098 462.308 164.733 461.776C165.367 461.243 165.45 460.297 164.918 459.662Z" fill="#07902A"/>
<path opacity="0.09" d="M658.673 352.358L532.686 202.213C532.154 201.579 531.208 201.496 530.573 202.028C529.938 202.561 529.856 203.507 530.388 204.142L656.375 354.286C656.907 354.921 657.853 355.004 658.488 354.471C659.122 353.939 659.205 352.993 658.673 352.358Z" fill="#07902A"/>
<path opacity="0.47" d="M532.816 72.7616L414.543 -68.1905C414.011 -68.8251 413.064 -68.9079 412.43 -68.3754C411.795 -67.8429 411.712 -66.8968 412.245 -66.2622L530.518 74.69C531.05 75.3246 531.996 75.4074 532.631 74.8749C533.266 74.3424 533.348 73.3963 532.816 72.7616Z" fill="#07902A"/>
<path opacity="0.92" d="M325.167 412.343L100.192 144.228C99.6592 143.593 98.7131 143.511 98.0785 144.043C97.4439 144.576 97.3611 145.522 97.8936 146.156L322.869 414.272C323.402 414.906 324.348 414.989 324.983 414.457C325.617 413.924 325.7 412.978 325.167 412.343Z" fill="#07902A"/>
<path opacity="0.63" d="M407.245 329.697L294.114 194.874C293.582 194.239 292.635 194.156 292.001 194.689C291.366 195.221 291.283 196.167 291.816 196.802L404.947 331.626C405.479 332.26 406.425 332.343 407.06 331.811C407.694 331.278 407.777 330.332 407.245 329.697Z" fill="#07902A"/>
<path opacity="0.95" d="M306.64 786.333L232.719 698.238C232.187 697.603 231.24 697.521 230.606 698.053C229.971 698.586 229.888 699.532 230.421 700.166L304.342 788.261C304.874 788.896 305.82 788.979 306.455 788.446C307.089 787.914 307.172 786.968 306.64 786.333Z" fill="#07902A"/>
<path opacity="0.62" d="M526.173 285.996L409.186 146.576C408.653 145.941 407.707 145.858 407.073 146.391C406.438 146.923 406.355 147.869 406.888 148.504L523.875 287.924C524.408 288.559 525.354 288.641 525.988 288.109C526.623 287.576 526.706 286.63 526.173 285.996Z" fill="#07902A"/>
<path opacity="0.14" d="M321.173 733.996L204.186 594.576C203.653 593.941 202.707 593.858 202.073 594.391C201.438 594.923 201.355 595.869 201.888 596.504L318.875 735.924C319.408 736.559 320.354 736.641 320.988 736.109C321.623 735.576 321.706 734.63 321.173 733.996Z" fill="#07902A"/>
<path opacity="0.66" d="M315.745 564.335L211.614 440.236C211.081 439.601 210.135 439.519 209.5 440.051C208.866 440.584 208.783 441.53 209.315 442.164L313.447 566.264C313.98 566.898 314.926 566.981 315.56 566.448C316.195 565.916 316.278 564.97 315.745 564.335Z" fill="#07902A"/>
<path opacity="0.9" d="M451.529 588.679L299.831 407.892C299.298 407.258 298.352 407.175 297.717 407.707C297.083 408.24 297 409.186 297.533 409.821L449.23 590.607C449.763 591.242 450.709 591.324 451.344 590.792C451.978 590.259 452.061 589.313 451.529 588.679Z" fill="#07902A"/>
<path opacity="0.65" d="M743.17 848.17L572.189 644.402C571.656 643.767 570.71 643.684 570.076 644.217C569.441 644.749 569.358 645.696 569.891 646.33L740.872 850.098C741.405 850.733 742.351 850.815 742.985 850.283C743.62 849.75 743.703 848.804 743.17 848.17Z" fill="#07902A"/>
<path opacity="0.98" d="M111.604 763.482L35.755 673.089C35.2225 672.454 34.2763 672.372 33.6417 672.904C33.0071 673.437 32.9243 674.383 33.4568 675.017L109.306 765.411C109.838 766.045 110.784 766.128 111.419 765.595C112.054 765.063 112.136 764.117 111.604 763.482Z" fill="#07902A"/>
<path opacity="0.67" d="M469.856 187.714L425.503 134.857C424.971 134.222 424.025 134.14 423.39 134.672C422.755 135.205 422.673 136.151 423.205 136.785L467.557 189.643C468.09 190.277 469.036 190.36 469.671 189.827C470.305 189.295 470.388 188.349 469.856 187.714Z" fill="#07902A"/>
<path opacity="0.36" d="M223.637 120.507L95.722 -31.9359C95.1895 -32.5705 94.2434 -32.6533 93.6087 -32.1208C92.9741 -31.5883 92.8914 -30.6421 93.4239 -30.0075L221.339 122.435C221.871 123.07 222.817 123.153 223.452 122.62C224.086 122.088 224.169 121.142 223.637 120.507Z" fill="#07902A"/>
<path opacity="0.27" d="M131.887 743.188L-0.527518 585.383C-1.06002 584.748 -2.00615 584.666 -2.64077 585.198C-3.27538 585.731 -3.35815 586.677 -2.82565 587.311L129.589 745.116C130.121 745.751 131.067 745.834 131.702 745.301C132.336 744.769 132.419 743.823 131.887 743.188Z" fill="#07902A"/>
<path opacity="0.28" d="M147.32 526.501L110.039 482.07C109.506 481.436 108.56 481.353 107.925 481.886C107.291 482.418 107.208 483.364 107.741 483.999L145.022 528.429C145.555 529.064 146.501 529.147 147.135 528.614C147.77 528.082 147.853 527.136 147.32 526.501Z" fill="#07902A"/>
<path opacity="0.21" d="M579.312 542.023L380.047 304.549C379.515 303.914 378.569 303.831 377.934 304.364C377.3 304.896 377.217 305.842 377.749 306.477L577.013 543.951C577.546 544.585 578.492 544.668 579.127 544.136C579.761 543.603 579.844 542.657 579.312 542.023Z" fill="#07902A"/>
<path opacity="0.42" d="M363.389 145.377L275.97 41.1945C275.438 40.5599 274.491 40.4771 273.857 41.0096C273.222 41.5421 273.139 42.4882 273.672 43.1228L361.091 147.305C361.624 147.939 362.57 148.022 363.204 147.49C363.839 146.957 363.922 146.011 363.389 145.377Z" fill="#07902A"/>
<path opacity="0.94" d="M844.993 485.466L700.366 313.106C699.833 312.471 698.887 312.388 698.253 312.921C697.618 313.453 697.535 314.399 698.068 315.034L842.695 487.394C843.227 488.029 844.174 488.111 844.808 487.579C845.443 487.046 845.526 486.1 844.993 485.466Z" fill="#07902A"/>
<path opacity="0.47" d="M328.353 102.526L239.006 -3.95445C238.473 -4.58906 237.527 -4.67184 236.892 -4.13933C236.258 -3.60683 236.175 -2.6607 236.708 -2.02609L326.055 104.454C326.588 105.089 327.534 105.171 328.168 104.639C328.803 104.106 328.886 103.16 328.353 102.526Z" fill="#07902A"/>
<path opacity="0.47" d="M96.7812 105.186L-5.42205 -16.6148C-5.95455 -17.2495 -6.90069 -17.3322 -7.5353 -16.7997C-8.16991 -16.2672 -8.25269 -15.3211 -7.72018 -14.6865L94.4831 107.115C95.0156 107.749 95.9617 107.832 96.5963 107.299C97.2309 106.767 97.3137 105.821 96.7812 105.186Z" fill="#07902A"/>
<path opacity="0.77" d="M698.493 221.828L544.866 38.7433C544.334 38.1087 543.388 38.0259 542.753 38.5584C542.118 39.0909 542.036 40.0371 542.568 40.6717L696.194 223.756C696.727 224.391 697.673 224.474 698.308 223.941C698.942 223.409 699.025 222.463 698.493 221.828Z" fill="#07902A"/>
<path opacity="0.07" d="M269.209 750.846L154.15 613.725C153.617 613.09 152.671 613.007 152.037 613.54C151.402 614.072 151.319 615.018 151.852 615.653L266.911 752.775C267.443 753.409 268.389 753.492 269.024 752.96C269.659 752.427 269.741 751.481 269.209 750.846Z" fill="#07902A"/>
<path opacity="0.65" d="M138.532 279.78L58.8267 184.791C58.2942 184.156 57.3481 184.074 56.7135 184.606C56.0789 185.139 55.9961 186.085 56.5286 186.719L136.234 281.709C136.767 282.343 137.713 282.426 138.348 281.894C138.982 281.361 139.065 280.415 138.532 279.78Z" fill="#07902A"/>
<path opacity="0.77" d="M604.249 762.799L563.11 713.772C562.578 713.138 561.632 713.055 560.997 713.587C560.362 714.12 560.28 715.066 560.812 715.7L601.95 764.727C602.483 765.362 603.429 765.445 604.064 764.912C604.698 764.38 604.781 763.434 604.249 762.799Z" fill="#07902A"/>
<path opacity="0.8" d="M392.315 760.124L265.044 608.447C264.511 607.813 263.565 607.73 262.93 608.262C262.296 608.795 262.213 609.741 262.745 610.376L390.017 762.052C390.55 762.687 391.496 762.77 392.131 762.237C392.765 761.705 392.848 760.759 392.315 760.124Z" fill="#07902A"/>
<path opacity="0.29" d="M726.239 697.045L505.12 433.526C504.587 432.891 503.641 432.809 503.007 433.341C502.372 433.874 502.289 434.82 502.822 435.454L723.941 698.974C724.473 699.608 725.419 699.691 726.054 699.159C726.689 698.626 726.771 697.68 726.239 697.045Z" fill="#07902A"/>
<path opacity="0.94" d="M474.32 703.501L437.039 659.07C436.506 658.436 435.56 658.353 434.925 658.885C434.291 659.418 434.208 660.364 434.741 660.999L472.022 705.429C472.555 706.064 473.501 706.147 474.135 705.614C474.77 705.082 474.853 704.135 474.32 703.501Z" fill="#07902A"/>
<path opacity="0.94" d="M232.812 423.66L42.5469 196.911C42.0144 196.276 41.0683 196.194 40.4337 196.726C39.7991 197.259 39.7163 198.205 40.2488 198.839L230.514 425.589C231.046 426.223 231.993 426.306 232.627 425.773C233.262 425.241 233.345 424.295 232.812 423.66Z" fill="#07902A"/>
<path opacity="0.81" d="M494.353 108.526L405.006 2.04555C404.473 1.41094 403.527 1.32816 402.892 1.86067C402.258 2.39317 402.175 3.3393 402.708 3.97391L492.055 110.454C492.588 111.089 493.534 111.171 494.168 110.639C494.803 110.106 494.886 109.16 494.353 108.526Z" fill="#07902A"/>
<path opacity="0.22" d="M755.067 428.718L650.292 303.853C649.76 303.218 648.814 303.136 648.179 303.668C647.544 304.201 647.462 305.147 647.994 305.781L752.769 430.647C753.301 431.281 754.247 431.364 754.882 430.831C755.516 430.299 755.599 429.353 755.067 428.718Z" fill="#07902A"/>
<path opacity="0.93" d="M70.9273 202.416L30.4317 154.155C29.8992 153.521 28.9531 153.438 28.3185 153.97C27.6839 154.503 27.6011 155.449 28.1336 156.084L68.6292 204.344C69.1617 204.979 70.1078 205.062 70.7424 204.529C71.3771 203.997 71.4598 203.051 70.9273 202.416Z" fill="#07902A"/>
<path opacity="0.38" d="M807.391 73.9275L755.968 12.6439C755.436 12.0093 754.489 11.9266 753.855 12.4591C753.22 12.9916 753.137 13.9377 753.67 14.5723L805.093 75.8559C805.625 76.4905 806.572 76.5732 807.206 76.0407C807.841 75.5082 807.924 74.5621 807.391 73.9275Z" fill="#07902A"/>
<path opacity="0.21" d="M824.495 268.654L724.863 149.917C724.331 149.283 723.385 149.2 722.75 149.732C722.115 150.265 722.033 151.211 722.565 151.845L822.197 270.582C822.73 271.217 823.676 271.3 824.311 270.767C824.945 270.235 825.028 269.289 824.495 268.654Z" fill="#07902A"/>
<path opacity="0.31" d="M223.387 527.826L99.972 380.745C99.4395 380.111 98.4934 380.028 97.8587 380.56C97.2241 381.093 97.1414 382.039 97.6739 382.674L221.089 529.754C221.622 530.389 222.568 530.472 223.202 529.939C223.837 529.407 223.92 528.46 223.387 527.826Z" fill="#07902A"/>
<path opacity="0.36" d="M355.781 277.186L253.578 155.385C253.045 154.751 252.099 154.668 251.465 155.2C250.83 155.733 250.747 156.679 251.28 157.314L353.483 279.115C354.016 279.749 354.962 279.832 355.596 279.299C356.231 278.767 356.314 277.821 355.781 277.186Z" fill="#07902A"/>
<path opacity="0.73" d="M273.817 158.037L173.542 38.5341C173.01 37.8995 172.063 37.8167 171.429 38.3492C170.794 38.8817 170.711 39.8278 171.244 40.4624L271.519 159.965C272.051 160.6 272.997 160.683 273.632 160.15C274.267 159.618 274.349 158.672 273.817 158.037Z" fill="#07902A"/>
<path opacity="0.51" d="M770.035 490.969L735.324 449.602C734.792 448.968 733.845 448.885 733.211 449.418C732.576 449.95 732.493 450.896 733.026 451.531L767.736 492.897C768.269 493.532 769.215 493.615 769.85 493.082C770.484 492.55 770.567 491.603 770.035 490.969Z" fill="#07902A"/>
<path opacity="0.17" d="M348.244 79.4221L217.115 -76.8509C216.583 -77.4855 215.636 -77.5683 215.002 -77.0358C214.367 -76.5033 214.284 -75.5572 214.817 -74.9226L345.946 81.3505C346.478 81.9851 347.424 82.0679 348.059 81.5354C348.693 81.0029 348.776 80.0567 348.244 79.4221Z" fill="#07902A"/>
<path opacity="0.91" d="M205.604 700.482L129.755 610.089C129.222 609.454 128.276 609.372 127.642 609.904C127.007 610.437 126.924 611.383 127.457 612.017L203.306 702.411C203.838 703.045 204.784 703.128 205.419 702.595C206.054 702.063 206.136 701.117 205.604 700.482Z" fill="#07902A"/>
<path opacity="0.94" d="M318.851 294.337L184.508 134.234C183.976 133.599 183.029 133.517 182.395 134.049C181.76 134.582 181.677 135.528 182.21 136.162L316.553 296.266C317.085 296.9 318.031 296.983 318.666 296.451C319.3 295.918 319.383 294.972 318.851 294.337Z" fill="#07902A"/>
<path opacity="0.74" d="M682.141 474.246L635.218 418.325C634.685 417.69 633.739 417.607 633.104 418.14C632.47 418.672 632.387 419.619 632.919 420.253L679.843 476.174C680.375 476.809 681.322 476.892 681.956 476.359C682.591 475.827 682.674 474.881 682.141 474.246Z" fill="#07902A"/>
<path opacity="0.54" d="M538.065 624.167L397.294 456.404C396.762 455.769 395.816 455.686 395.181 456.219C394.546 456.751 394.464 457.697 394.996 458.332L535.767 626.096C536.299 626.73 537.245 626.813 537.88 626.281C538.514 625.748 538.597 624.802 538.065 624.167Z" fill="#07902A"/>
<path opacity="0.56" d="M446.957 292.615L300.402 117.956C299.869 117.322 298.923 117.239 298.288 117.772C297.654 118.304 297.571 119.25 298.104 119.885L444.659 294.543C445.192 295.178 446.138 295.26 446.772 294.728C447.407 294.195 447.49 293.249 446.957 292.615Z" fill="#07902A"/>
<path opacity="0.4" d="M553.141 342.246L506.218 286.325C505.685 285.69 504.739 285.607 504.104 286.14C503.47 286.672 503.387 287.619 503.919 288.253L550.843 344.174C551.375 344.809 552.322 344.892 552.956 344.359C553.591 343.827 553.674 342.881 553.141 342.246Z" fill="#07902A"/>
<path opacity="0.39" d="M450.281 143.549L339.078 11.0228C338.546 10.3882 337.6 10.3055 336.965 10.838C336.331 11.3705 336.248 12.3166 336.78 12.9512L447.983 145.477C448.515 146.112 449.461 146.194 450.096 145.662C450.73 145.129 450.813 144.183 450.281 143.549Z" fill="#07902A"/>
<path opacity="0.96" d="M278.819 486.588L214.54 409.983C214.008 409.349 213.061 409.266 212.427 409.798C211.792 410.331 211.709 411.277 212.242 411.912L276.521 488.516C277.053 489.151 277.999 489.233 278.634 488.701C279.269 488.168 279.351 487.222 278.819 486.588Z" fill="#07902A"/>
<path opacity="0.5" d="M796.106 681.671L765.253 644.901C764.72 644.266 763.774 644.183 763.139 644.716C762.505 645.248 762.422 646.194 762.954 646.829L793.808 683.599C794.341 684.234 795.287 684.316 795.921 683.784C796.556 683.251 796.639 682.305 796.106 681.671Z" fill="#07902A"/>
<path opacity="0.86" d="M152.429 3.32902L138.93 -12.7579C138.398 -13.3925 137.452 -13.4753 136.817 -12.9428C136.182 -12.4103 136.1 -11.4642 136.632 -10.8296L150.131 5.25738C150.663 5.89199 151.609 5.97477 152.244 5.44227C152.879 4.90976 152.961 3.96363 152.429 3.32902Z" fill="#07902A"/>
<path opacity="0.28" d="M431.818 710.312L349.541 612.259C349.009 611.624 348.062 611.541 347.428 612.074C346.793 612.606 346.71 613.552 347.243 614.187L429.52 712.241C430.052 712.875 430.998 712.958 431.633 712.426C432.268 711.893 432.35 710.947 431.818 710.312Z" fill="#07902A"/>
<path opacity="0.75" d="M54.6756 110.184L-17.3166 24.3871C-17.8491 23.7525 -18.7952 23.6697 -19.4298 24.2022C-20.0644 24.7347 -20.1472 25.6809 -19.6147 26.3155L52.3775 112.112C52.91 112.747 53.8561 112.83 54.4907 112.297C55.1254 111.765 55.2081 110.819 54.6756 110.184Z" fill="#07902A"/>
<path opacity="0.55" d="M451.529 644.954L317.83 485.617C317.297 484.982 316.351 484.899 315.716 485.432C315.082 485.964 314.999 486.911 315.532 487.545L449.231 646.882C449.764 647.517 450.71 647.6 451.345 647.067C451.979 646.535 452.062 645.589 451.529 644.954Z" fill="#07902A"/>
<path opacity="0.95" d="M332.106 768.671L301.253 731.901C300.72 731.266 299.774 731.183 299.139 731.716C298.505 732.248 298.422 733.194 298.954 733.829L329.808 770.599C330.341 771.234 331.287 771.316 331.921 770.784C332.556 770.251 332.639 769.305 332.106 768.671Z" fill="#07902A"/>
<path opacity="0.76" d="M379.133 509.043L188.225 281.528C187.693 280.893 186.747 280.811 186.112 281.343C185.478 281.876 185.395 282.822 185.927 283.456L376.835 510.972C377.368 511.606 378.314 511.689 378.948 511.156C379.583 510.624 379.666 509.678 379.133 509.043Z" fill="#07902A"/>
<path opacity="0.1" d="M151.097 713.917L-59.7377 462.654C-60.2702 462.02 -61.2164 461.937 -61.851 462.47C-62.4856 463.002 -62.5684 463.948 -62.0359 464.583L148.798 715.845C149.331 716.48 150.277 716.563 150.912 716.03C151.546 715.498 151.629 714.552 151.097 713.917Z" fill="#07902A"/>
</g>
<defs>
<clipPath id="clip0_10_8906">
<rect width="800" height="800" fill="white"/>
</clipPath>
</defs>
</svg>
