<svg width="800" height="800" viewBox="0 0 800 800" fill="none" xmlns="http://www.w3.org/2000/svg">
<g clip-path="url(#clip0_9_7242)">
<rect width="800" height="800" fill="#07080A"/>
<path d="M405.8 397.7C406.187 397.7 406.5 397.386 406.5 397C406.5 396.613 406.187 396.3 405.8 396.3C405.413 396.3 405.1 396.613 405.1 397C405.1 397.386 405.413 397.7 405.8 397.7Z" fill="#07902A"/>
<path d="M404.4 403.3C404.787 403.3 405.1 402.987 405.1 402.6C405.1 402.213 404.787 401.9 404.4 401.9C404.014 401.9 403.7 402.213 403.7 402.6C403.7 402.987 404.014 403.3 404.4 403.3Z" fill="#07902A"/>
<path d="M398.8 407.5C399.187 407.5 399.5 407.186 399.5 406.8C399.5 406.413 399.187 406.1 398.8 406.1C398.413 406.1 398.1 406.413 398.1 406.8C398.1 407.186 398.413 407.5 398.8 407.5Z" fill="#07902A"/>
<path d="M391.8 406.1C392.187 406.1 392.5 405.787 392.5 405.4C392.5 405.013 392.187 404.7 391.8 404.7C391.413 404.7 391.1 405.013 391.1 405.4C391.1 405.787 391.413 406.1 391.8 406.1Z" fill="#07902A"/>
<path opacity="0.99" d="M387.6 399.1C387.987 399.1 388.3 398.787 388.3 398.4C388.3 398.013 387.987 397.7 387.6 397.7C387.214 397.7 386.9 398.013 386.9 398.4C386.9 398.787 387.214 399.1 387.6 399.1Z" fill="#07902A"/>
<path opacity="0.99" d="M389 390.7C389.387 390.7 389.7 390.386 389.7 390C389.7 389.613 389.387 389.3 389 389.3C388.613 389.3 388.3 389.613 388.3 390C388.3 390.386 388.613 390.7 389 390.7Z" fill="#07902A"/>
<path opacity="0.99" d="M397.4 385.1C397.787 385.1 398.1 384.787 398.1 384.4C398.1 384.013 397.787 383.7 397.4 383.7C397.014 383.7 396.7 384.013 396.7 384.4C396.7 384.787 397.014 385.1 397.4 385.1Z" fill="#07902A"/>
<path opacity="0.99" d="M407.2 386.5C407.587 386.5 407.9 386.186 407.9 385.8C407.9 385.413 407.587 385.1 407.2 385.1C406.814 385.1 406.5 385.413 406.5 385.8C406.5 386.186 406.814 386.5 407.2 386.5Z" fill="#07902A"/>
<path opacity="0.99" d="M414.2 394.9C414.587 394.9 414.9 394.587 414.9 394.2C414.9 393.813 414.587 393.5 414.2 393.5C413.814 393.5 413.5 393.813 413.5 394.2C413.5 394.587 413.814 394.9 414.2 394.9Z" fill="#07902A"/>
<path opacity="0.99" d="M412.8 406.1C413.187 406.1 413.5 405.787 413.5 405.4C413.5 405.013 413.187 404.7 412.8 404.7C412.413 404.7 412.1 405.013 412.1 405.4C412.1 405.787 412.413 406.1 412.8 406.1Z" fill="#07902A"/>
<path opacity="0.99" d="M403 414.5C403.387 414.5 403.7 414.186 403.7 413.8C403.7 413.413 403.387 413.1 403 413.1C402.613 413.1 402.3 413.413 402.3 413.8C402.3 414.186 402.613 414.5 403 414.5Z" fill="#07902A"/>
<path opacity="0.99" d="M390.4 414.5C390.787 414.5 391.1 414.186 391.1 413.8C391.1 413.413 390.787 413.1 390.4 413.1C390.014 413.1 389.7 413.413 389.7 413.8C389.7 414.186 390.014 414.5 390.4 414.5Z" fill="#07902A"/>
<path opacity="0.98" d="M380.6 403.3C380.987 403.3 381.3 402.987 381.3 402.6C381.3 402.213 380.987 401.9 380.6 401.9C380.214 401.9 379.9 402.213 379.9 402.6C379.9 402.987 380.214 403.3 380.6 403.3Z" fill="#07902A"/>
<path opacity="0.98" d="M380.6 387.9C380.987 387.9 381.3 387.587 381.3 387.2C381.3 386.813 380.987 386.5 380.6 386.5C380.214 386.5 379.9 386.813 379.9 387.2C379.9 387.587 380.214 387.9 380.6 387.9Z" fill="#07902A"/>
<path opacity="0.98" d="M391.8 376.7C392.187 376.7 392.5 376.386 392.5 376C392.5 375.613 392.187 375.3 391.8 375.3C391.413 375.3 391.1 375.613 391.1 376C391.1 376.386 391.413 376.7 391.8 376.7Z" fill="#07902A"/>
<path opacity="0.98" d="M407.2 376.7C407.587 376.7 407.9 376.386 407.9 376C407.9 375.613 407.587 375.3 407.2 375.3C406.814 375.3 406.5 375.613 406.5 376C406.5 376.386 406.814 376.7 407.2 376.7Z" fill="#07902A"/>
<path opacity="0.98" d="M421.2 387.9C421.587 387.9 421.9 387.587 421.9 387.2C421.9 386.813 421.587 386.5 421.2 386.5C420.814 386.5 420.5 386.813 420.5 387.2C420.5 387.587 420.814 387.9 421.2 387.9Z" fill="#07902A"/>
<path opacity="0.98" d="M422.6 406.1C422.987 406.1 423.3 405.787 423.3 405.4C423.3 405.013 422.987 404.7 422.6 404.7C422.214 404.7 421.9 405.013 421.9 405.4C421.9 405.787 422.214 406.1 422.6 406.1Z" fill="#07902A"/>
<path opacity="0.98" d="M410 421.5C410.387 421.5 410.7 421.186 410.7 420.8C410.7 420.413 410.387 420.1 410 420.1C409.613 420.1 409.3 420.413 409.3 420.8C409.3 421.186 409.613 421.5 410 421.5Z" fill="#07902A"/>
<path opacity="0.97" d="M390.4 424.3C390.787 424.3 391.1 423.987 391.1 423.6C391.1 423.213 390.787 422.9 390.4 422.9C390.014 422.9 389.7 423.213 389.7 423.6C389.7 423.987 390.014 424.3 390.4 424.3Z" fill="#07902A"/>
<path opacity="0.97" d="M373.6 411.7C373.987 411.7 374.3 411.386 374.3 411C374.3 410.613 373.987 410.3 373.6 410.3C373.214 410.3 372.9 410.613 372.9 411C372.9 411.386 373.214 411.7 373.6 411.7Z" fill="#07902A"/>
<path opacity="0.97" d="M370.8 391.4C371.573 391.4 372.2 390.773 372.2 390C372.2 389.227 371.573 388.6 370.8 388.6C370.027 388.6 369.4 389.227 369.4 390C369.4 390.773 370.027 391.4 370.8 391.4Z" fill="#07902A"/>
<path opacity="0.97" d="M382 373.2C382.773 373.2 383.4 372.573 383.4 371.8C383.4 371.027 382.773 370.4 382 370.4C381.227 370.4 380.6 371.027 380.6 371.8C380.6 372.573 381.227 373.2 382 373.2Z" fill="#07902A"/>
<path opacity="0.97" d="M404.4 367.6C405.173 367.6 405.8 366.973 405.8 366.2C405.8 365.427 405.173 364.8 404.4 364.8C403.627 364.8 403 365.427 403 366.2C403 366.973 403.627 367.6 404.4 367.6Z" fill="#07902A"/>
<path opacity="0.97" d="M425.4 380.2C426.173 380.2 426.8 379.573 426.8 378.8C426.8 378.027 426.173 377.4 425.4 377.4C424.627 377.4 424 378.027 424 378.8C424 379.573 424.627 380.2 425.4 380.2Z" fill="#07902A"/>
<path opacity="0.97" d="M432.4 404C433.173 404 433.8 403.373 433.8 402.6C433.8 401.827 433.173 401.2 432.4 401.2C431.627 401.2 431 401.827 431 402.6C431 403.373 431.627 404 432.4 404Z" fill="#07902A"/>
<path opacity="0.97" d="M419.8 426.4C420.573 426.4 421.2 425.773 421.2 425C421.2 424.227 420.573 423.6 419.8 423.6C419.027 423.6 418.4 424.227 418.4 425C418.4 425.773 419.027 426.4 419.8 426.4Z" fill="#07902A"/>
<path opacity="0.96" d="M394.6 433.4C395.373 433.4 396 432.773 396 432C396 431.227 395.373 430.6 394.6 430.6C393.827 430.6 393.2 431.227 393.2 432C393.2 432.773 393.827 433.4 394.6 433.4Z" fill="#07902A"/>
<path opacity="0.96" d="M370.8 422.2C371.573 422.2 372.2 421.573 372.2 420.8C372.2 420.027 371.573 419.4 370.8 419.4C370.027 419.4 369.4 420.027 369.4 420.8C369.4 421.573 370.027 422.2 370.8 422.2Z" fill="#07902A"/>
<path opacity="0.96" d="M361 397C361.773 397 362.4 396.373 362.4 395.6C362.4 394.827 361.773 394.2 361 394.2C360.227 394.2 359.6 394.827 359.6 395.6C359.6 396.373 360.227 397 361 397Z" fill="#07902A"/>
<path opacity="0.96" d="M372.2 370.4C372.973 370.4 373.6 369.773 373.6 369C373.6 368.227 372.973 367.6 372.2 367.6C371.427 367.6 370.8 368.227 370.8 369C370.8 369.773 371.427 370.4 372.2 370.4Z" fill="#07902A"/>
<path opacity="0.96" d="M398.8 357.8C399.573 357.8 400.2 357.173 400.2 356.4C400.2 355.627 399.573 355 398.8 355C398.027 355 397.4 355.627 397.4 356.4C397.4 357.173 398.027 357.8 398.8 357.8Z" fill="#07902A"/>
<path opacity="0.96" d="M426.8 369C427.573 369 428.2 368.373 428.2 367.6C428.2 366.827 427.573 366.2 426.8 366.2C426.027 366.2 425.4 366.827 425.4 367.6C425.4 368.373 426.027 369 426.8 369Z" fill="#07902A"/>
<path opacity="0.96" d="M440.8 395.6C441.573 395.6 442.2 394.973 442.2 394.2C442.2 393.427 441.573 392.8 440.8 392.8C440.027 392.8 439.4 393.427 439.4 394.2C439.4 394.973 440.027 395.6 440.8 395.6Z" fill="#07902A"/>
<path opacity="0.95" d="M431 426.4C431.773 426.4 432.4 425.773 432.4 425C432.4 424.227 431.773 423.6 431 423.6C430.227 423.6 429.6 424.227 429.6 425C429.6 425.773 430.227 426.4 431 426.4Z" fill="#07902A"/>
<path opacity="0.95" d="M403 441.8C403.773 441.8 404.4 441.173 404.4 440.4C404.4 439.627 403.773 439 403 439C402.227 439 401.6 439.627 401.6 440.4C401.6 441.173 402.227 441.8 403 441.8Z" fill="#07902A"/>
<path opacity="0.95" d="M370.8 434.8C371.573 434.8 372.2 434.173 372.2 433.4C372.2 432.627 371.573 432 370.8 432C370.027 432 369.4 432.627 369.4 433.4C369.4 434.173 370.027 434.8 370.8 434.8Z" fill="#07902A"/>
<path opacity="0.95" d="M352.6 405.4C353.373 405.4 354 404.773 354 404C354 403.227 353.373 402.6 352.6 402.6C351.827 402.6 351.2 403.227 351.2 404C351.2 404.773 351.827 405.4 352.6 405.4Z" fill="#07902A"/>
<path opacity="0.95" d="M359.6 371.8C360.373 371.8 361 371.173 361 370.4C361 369.627 360.373 369 359.6 369C358.827 369 358.2 369.627 358.2 370.4C358.2 371.173 358.827 371.8 359.6 371.8Z" fill="#07902A"/>
<path opacity="0.95" d="M389 350.8C389.773 350.8 390.4 350.173 390.4 349.4C390.4 348.627 389.773 348 389 348C388.227 348 387.6 348.627 387.6 349.4C387.6 350.173 388.227 350.8 389 350.8Z" fill="#07902A"/>
<path opacity="0.95" d="M425.4 356.4C426.173 356.4 426.8 355.773 426.8 355C426.8 354.227 426.173 353.6 425.4 353.6C424.627 353.6 424 354.227 424 355C424 355.773 424.627 356.4 425.4 356.4Z" fill="#07902A"/>
<path opacity="0.95" d="M447.8 385.8C448.573 385.8 449.2 385.173 449.2 384.4C449.2 383.627 448.573 383 447.8 383C447.027 383 446.4 383.627 446.4 384.4C446.4 385.173 447.027 385.8 447.8 385.8Z" fill="#07902A"/>
<path opacity="0.94" d="M443.6 423.6C444.373 423.6 445 422.973 445 422.2C445 421.427 444.373 420.8 443.6 420.8C442.827 420.8 442.2 421.427 442.2 422.2C442.2 422.973 442.827 423.6 443.6 423.6Z" fill="#07902A"/>
<path opacity="0.94" d="M414.2 448.8C414.973 448.8 415.6 448.173 415.6 447.4C415.6 446.627 414.973 446 414.2 446C413.427 446 412.8 446.627 412.8 447.4C412.8 448.173 413.427 448.8 414.2 448.8Z" fill="#07902A"/>
<path opacity="0.94" d="M375 447.4C375.773 447.4 376.4 446.773 376.4 446C376.4 445.227 375.773 444.6 375 444.6C374.227 444.6 373.6 445.227 373.6 446C373.6 446.773 374.227 447.4 375 447.4Z" fill="#07902A"/>
<path opacity="0.94" d="M347 418C347.773 418 348.4 417.373 348.4 416.6C348.4 415.827 347.773 415.2 347 415.2C346.227 415.2 345.6 415.827 345.6 416.6C345.6 417.373 346.227 418 347 418Z" fill="#07902A"/>
<path opacity="0.94" d="M347 376C347.773 376 348.4 375.373 348.4 374.6C348.4 373.827 347.773 373.2 347 373.2C346.227 373.2 345.6 373.827 345.6 374.6C345.6 375.373 346.227 376 347 376Z" fill="#07902A"/>
<path opacity="0.94" d="M376.4 346.6C377.173 346.6 377.8 345.973 377.8 345.2C377.8 344.427 377.173 343.8 376.4 343.8C375.627 343.8 375 344.427 375 345.2C375 345.973 375.627 346.6 376.4 346.6Z" fill="#07902A"/>
<path opacity="0.94" d="M418.4 343.8C419.173 343.8 419.8 343.173 419.8 342.4C419.8 341.627 419.173 341 418.4 341C417.627 341 417 341.627 417 342.4C417 343.173 417.627 343.8 418.4 343.8Z" fill="#07902A"/>
<path opacity="0.93" d="M452 371.8C452.773 371.8 453.4 371.173 453.4 370.4C453.4 369.627 452.773 369 452 369C451.227 369 450.6 369.627 450.6 370.4C450.6 371.173 451.227 371.8 452 371.8Z" fill="#07902A"/>
<path opacity="0.93" d="M456.2 416.6C456.973 416.6 457.6 415.973 457.6 415.2C457.6 414.427 456.973 413.8 456.2 413.8C455.427 413.8 454.8 414.427 454.8 415.2C454.8 415.973 455.427 416.6 456.2 416.6Z" fill="#07902A"/>
<path opacity="0.93" d="M428.2 451.6C428.973 451.6 429.6 450.973 429.6 450.2C429.6 449.427 428.973 448.8 428.2 448.8C427.427 448.8 426.8 449.427 426.8 450.2C426.8 450.973 427.427 451.6 428.2 451.6Z" fill="#07902A"/>
<path opacity="0.93" d="M383.4 458.6C384.173 458.6 384.8 457.973 384.8 457.2C384.8 456.427 384.173 455.8 383.4 455.8C382.627 455.8 382 456.427 382 457.2C382 457.973 382.627 458.6 383.4 458.6Z" fill="#07902A"/>
<path opacity="0.93" d="M345.6 432C346.373 432 347 431.373 347 430.6C347 429.827 346.373 429.2 345.6 429.2C344.827 429.2 344.2 429.827 344.2 430.6C344.2 431.373 344.827 432 345.6 432Z" fill="#07902A"/>
<path opacity="0.93" d="M335.8 385.8C336.573 385.8 337.2 385.173 337.2 384.4C337.2 383.627 336.573 383 335.8 383C335.027 383 334.4 383.627 334.4 384.4C334.4 385.173 335.027 385.8 335.8 385.8Z" fill="#07902A"/>
<path opacity="0.93" d="M361 345.9C362.16 345.9 363.1 344.96 363.1 343.8C363.1 342.64 362.16 341.7 361 341.7C359.84 341.7 358.9 342.64 358.9 343.8C358.9 344.96 359.84 345.9 361 345.9Z" fill="#07902A"/>
<path opacity="0.93" d="M408.6 333.3C409.76 333.3 410.7 332.36 410.7 331.2C410.7 330.04 409.76 329.1 408.6 329.1C407.44 329.1 406.5 330.04 406.5 331.2C406.5 332.36 407.44 333.3 408.6 333.3Z" fill="#07902A"/>
<path opacity="0.92" d="M452 357.1C453.16 357.1 454.1 356.16 454.1 355C454.1 353.84 453.16 352.9 452 352.9C450.84 352.9 449.9 353.84 449.9 355C449.9 356.16 450.84 357.1 452 357.1Z" fill="#07902A"/>
<path opacity="0.92" d="M467.4 406.1C468.56 406.1 469.5 405.16 469.5 404C469.5 402.84 468.56 401.9 467.4 401.9C466.24 401.9 465.3 402.84 465.3 404C465.3 405.16 466.24 406.1 467.4 406.1Z" fill="#07902A"/>
<path opacity="0.92" d="M445 452.3C446.16 452.3 447.1 451.36 447.1 450.2C447.1 449.04 446.16 448.1 445 448.1C443.84 448.1 442.9 449.04 442.9 450.2C442.9 451.36 443.84 452.3 445 452.3Z" fill="#07902A"/>
<path opacity="0.92" d="M396 470.5C397.16 470.5 398.1 469.56 398.1 468.4C398.1 467.24 397.16 466.3 396 466.3C394.84 466.3 393.9 467.24 393.9 468.4C393.9 469.56 394.84 470.5 396 470.5Z" fill="#07902A"/>
<path opacity="0.92" d="M347 449.5C348.16 449.5 349.1 448.56 349.1 447.4C349.1 446.24 348.16 445.3 347 445.3C345.84 445.3 344.9 446.24 344.9 447.4C344.9 448.56 345.84 449.5 347 449.5Z" fill="#07902A"/>
<path opacity="0.92" d="M326 399.1C327.16 399.1 328.1 398.16 328.1 397C328.1 395.84 327.16 394.9 326 394.9C324.84 394.9 323.9 395.84 323.9 397C323.9 398.16 324.84 399.1 326 399.1Z" fill="#07902A"/>
<path opacity="0.92" d="M345.6 348.7C346.76 348.7 347.7 347.76 347.7 346.6C347.7 345.44 346.76 344.5 345.6 344.5C344.44 344.5 343.5 345.44 343.5 346.6C343.5 347.76 344.44 348.7 345.6 348.7Z" fill="#07902A"/>
<path opacity="0.91" d="M394.6 323.5C395.76 323.5 396.7 322.56 396.7 321.4C396.7 320.24 395.76 319.3 394.6 319.3C393.44 319.3 392.5 320.24 392.5 321.4C392.5 322.56 393.44 323.5 394.6 323.5Z" fill="#07902A"/>
<path opacity="0.91" d="M447.8 341.7C448.96 341.7 449.9 340.76 449.9 339.6C449.9 338.44 448.96 337.5 447.8 337.5C446.64 337.5 445.7 338.44 445.7 339.6C445.7 340.76 446.64 341.7 447.8 341.7Z" fill="#07902A"/>
<path opacity="0.91" d="M475.8 390.7C476.96 390.7 477.9 389.76 477.9 388.6C477.9 387.44 476.96 386.5 475.8 386.5C474.64 386.5 473.7 387.44 473.7 388.6C473.7 389.76 474.64 390.7 475.8 390.7Z" fill="#07902A"/>
<path opacity="0.91" d="M460.4 446.7C461.56 446.7 462.5 445.76 462.5 444.6C462.5 443.44 461.56 442.5 460.4 442.5C459.24 442.5 458.3 443.44 458.3 444.6C458.3 445.76 459.24 446.7 460.4 446.7Z" fill="#07902A"/>
<path opacity="0.91" d="M411.4 477.5C412.56 477.5 413.5 476.56 413.5 475.4C413.5 474.24 412.56 473.3 411.4 473.3C410.24 473.3 409.3 474.24 409.3 475.4C409.3 476.56 410.24 477.5 411.4 477.5Z" fill="#07902A"/>
<path opacity="0.91" d="M352.6 464.9C353.76 464.9 354.7 463.96 354.7 462.8C354.7 461.64 353.76 460.7 352.6 460.7C351.44 460.7 350.5 461.64 350.5 462.8C350.5 463.96 351.44 464.9 352.6 464.9Z" fill="#07902A"/>
<path opacity="0.91" d="M319 415.9C320.16 415.9 321.1 414.96 321.1 413.8C321.1 412.64 320.16 411.7 319 411.7C317.84 411.7 316.9 412.64 316.9 413.8C316.9 414.96 317.84 415.9 319 415.9Z" fill="#07902A"/>
<path opacity="0.9" d="M328.8 355.7C329.96 355.7 330.9 354.76 330.9 353.6C330.9 352.44 329.96 351.5 328.8 351.5C327.64 351.5 326.7 352.44 326.7 353.6C326.7 354.76 327.64 355.7 328.8 355.7Z" fill="#07902A"/>
<path opacity="0.9" d="M377.8 317.9C378.96 317.9 379.9 316.96 379.9 315.8C379.9 314.64 378.96 313.7 377.8 313.7C376.64 313.7 375.7 314.64 375.7 315.8C375.7 316.96 376.64 317.9 377.8 317.9Z" fill="#07902A"/>
<path opacity="0.9" d="M439.4 324.9C440.56 324.9 441.5 323.96 441.5 322.8C441.5 321.64 440.56 320.7 439.4 320.7C438.24 320.7 437.3 321.64 437.3 322.8C437.3 323.96 438.24 324.9 439.4 324.9Z" fill="#07902A"/>
<path opacity="0.9" d="M480 372.5C481.16 372.5 482.1 371.56 482.1 370.4C482.1 369.24 481.16 368.3 480 368.3C478.84 368.3 477.9 369.24 477.9 370.4C477.9 371.56 478.84 372.5 480 372.5Z" fill="#07902A"/>
<path opacity="0.9" d="M477.2 436.9C478.36 436.9 479.3 435.96 479.3 434.8C479.3 433.64 478.36 432.7 477.2 432.7C476.04 432.7 475.1 433.64 475.1 434.8C475.1 435.96 476.04 436.9 477.2 436.9Z" fill="#07902A"/>
<path opacity="0.9" d="M429.6 481.7C430.76 481.7 431.7 480.76 431.7 479.6C431.7 478.44 430.76 477.5 429.6 477.5C428.44 477.5 427.5 478.44 427.5 479.6C427.5 480.76 428.44 481.7 429.6 481.7Z" fill="#07902A"/>
<path opacity="0.9" d="M363.8 480.3C364.96 480.3 365.9 479.36 365.9 478.2C365.9 477.04 364.96 476.1 363.8 476.1C362.64 476.1 361.7 477.04 361.7 478.2C361.7 479.36 362.64 480.3 363.8 480.3Z" fill="#07902A"/>
<path opacity="0.9" d="M316.2 435.5C317.36 435.5 318.3 434.56 318.3 433.4C318.3 432.24 317.36 431.3 316.2 431.3C315.04 431.3 314.1 432.24 314.1 433.4C314.1 434.56 315.04 435.5 316.2 435.5Z" fill="#07902A"/>
<path opacity="0.89" d="M313.4 368.3C314.56 368.3 315.5 367.36 315.5 366.2C315.5 365.04 314.56 364.1 313.4 364.1C312.24 364.1 311.3 365.04 311.3 366.2C311.3 367.36 312.24 368.3 313.4 368.3Z" fill="#07902A"/>
<path opacity="0.89" d="M358.2 316.5C359.36 316.5 360.3 315.56 360.3 314.4C360.3 313.24 359.36 312.3 358.2 312.3C357.04 312.3 356.1 313.24 356.1 314.4C356.1 315.56 357.04 316.5 358.2 316.5Z" fill="#07902A"/>
<path opacity="0.89" d="M426.8 309.5C427.96 309.5 428.9 308.56 428.9 307.4C428.9 306.24 427.96 305.3 426.8 305.3C425.64 305.3 424.7 306.24 424.7 307.4C424.7 308.56 425.64 309.5 426.8 309.5Z" fill="#07902A"/>
<path opacity="0.89" d="M481.4 352.9C482.56 352.9 483.5 351.96 483.5 350.8C483.5 349.64 482.56 348.7 481.4 348.7C480.24 348.7 479.3 349.64 479.3 350.8C479.3 351.96 480.24 352.9 481.4 352.9Z" fill="#07902A"/>
<path opacity="0.89" d="M491.2 422.9C492.36 422.9 493.3 421.96 493.3 420.8C493.3 419.64 492.36 418.7 491.2 418.7C490.04 418.7 489.1 419.64 489.1 420.8C489.1 421.96 490.04 422.9 491.2 422.9Z" fill="#07902A"/>
<path opacity="0.89" d="M450.6 480.3C451.76 480.3 452.7 479.36 452.7 478.2C452.7 477.04 451.76 476.1 450.6 476.1C449.44 476.1 448.5 477.04 448.5 478.2C448.5 479.36 449.44 480.3 450.6 480.3Z" fill="#07902A"/>
<path opacity="0.89" d="M379.2 494.3C380.36 494.3 381.3 493.36 381.3 492.2C381.3 491.04 380.36 490.1 379.2 490.1C378.04 490.1 377.1 491.04 377.1 492.2C377.1 493.36 378.04 494.3 379.2 494.3Z" fill="#07902A"/>
<path opacity="0.88" d="M317.6 456.5C318.76 456.5 319.7 455.56 319.7 454.4C319.7 453.24 318.76 452.3 317.6 452.3C316.44 452.3 315.5 453.24 315.5 454.4C315.5 455.56 316.44 456.5 317.6 456.5Z" fill="#07902A"/>
<path opacity="0.88" d="M300.8 385.1C301.96 385.1 302.9 384.16 302.9 383C302.9 381.84 301.96 380.9 300.8 380.9C299.64 380.9 298.7 381.84 298.7 383C298.7 384.16 299.64 385.1 300.8 385.1Z" fill="#07902A"/>
<path opacity="0.88" d="M337.2 319.3C338.36 319.3 339.3 318.36 339.3 317.2C339.3 316.04 338.36 315.1 337.2 315.1C336.04 315.1 335.1 316.04 335.1 317.2C335.1 318.36 336.04 319.3 337.2 319.3Z" fill="#07902A"/>
<path opacity="0.88" d="M408.6 298.3C409.76 298.3 410.7 297.36 410.7 296.2C410.7 295.04 409.76 294.1 408.6 294.1C407.44 294.1 406.5 295.04 406.5 296.2C406.5 297.36 407.44 298.3 408.6 298.3Z" fill="#07902A"/>
<path opacity="0.88" d="M475.8 332.6C477.347 332.6 478.6 331.346 478.6 329.8C478.6 328.254 477.347 327 475.8 327C474.254 327 473 328.254 473 329.8C473 331.346 474.254 332.6 475.8 332.6Z" fill="#07902A"/>
<path opacity="0.88" d="M502.4 404C503.946 404 505.2 402.746 505.2 401.2C505.2 399.654 503.946 398.4 502.4 398.4C500.854 398.4 499.6 399.654 499.6 401.2C499.6 402.746 500.854 404 502.4 404Z" fill="#07902A"/>
<path opacity="0.88" d="M471.6 475.4C473.146 475.4 474.4 474.146 474.4 472.6C474.4 471.053 473.146 469.8 471.6 469.8C470.054 469.8 468.8 471.053 468.8 472.6C468.8 474.146 470.054 475.4 471.6 475.4Z" fill="#07902A"/>
<path opacity="0.88" d="M398.8 506.2C400.347 506.2 401.6 504.946 401.6 503.4C401.6 501.853 400.347 500.6 398.8 500.6C397.254 500.6 396 501.853 396 503.4C396 504.946 397.254 506.2 398.8 506.2Z" fill="#07902A"/>
<path opacity="0.87" d="M326 478.2C327.546 478.2 328.8 476.946 328.8 475.4C328.8 473.853 327.546 472.6 326 472.6C324.454 472.6 323.2 473.853 323.2 475.4C323.2 476.946 324.454 478.2 326 478.2Z" fill="#07902A"/>
<path opacity="0.87" d="M291 405.4C292.546 405.4 293.8 404.146 293.8 402.6C293.8 401.053 292.546 399.8 291 399.8C289.454 399.8 288.2 401.053 288.2 402.6C288.2 404.146 289.454 405.4 291 405.4Z" fill="#07902A"/>
<path opacity="0.87" d="M316.2 329.8C317.747 329.8 319 328.546 319 327C319 325.454 317.747 324.2 316.2 324.2C314.654 324.2 313.4 325.454 313.4 327C313.4 328.546 314.654 329.8 316.2 329.8Z" fill="#07902A"/>
<path opacity="0.87" d="M387.6 290.6C389.146 290.6 390.4 289.346 390.4 287.8C390.4 286.254 389.146 285 387.6 285C386.054 285 384.8 286.254 384.8 287.8C384.8 289.346 386.054 290.6 387.6 290.6Z" fill="#07902A"/>
<path opacity="0.87" d="M466 311.6C467.547 311.6 468.8 310.346 468.8 308.8C468.8 307.254 467.547 306 466 306C464.454 306 463.2 307.254 463.2 308.8C463.2 310.346 464.454 311.6 466 311.6Z" fill="#07902A"/>
<path opacity="0.87" d="M509.4 381.6C510.946 381.6 512.2 380.346 512.2 378.8C512.2 377.254 510.946 376 509.4 376C507.854 376 506.6 377.254 506.6 378.8C506.6 380.346 507.854 381.6 509.4 381.6Z" fill="#07902A"/>
<path opacity="0.87" d="M492.6 464.2C494.146 464.2 495.4 462.946 495.4 461.4C495.4 459.853 494.146 458.6 492.6 458.6C491.054 458.6 489.8 459.853 489.8 461.4C489.8 462.946 491.054 464.2 492.6 464.2Z" fill="#07902A"/>
<path opacity="0.86" d="M422.6 511.8C424.146 511.8 425.4 510.546 425.4 509C425.4 507.454 424.146 506.2 422.6 506.2C421.054 506.2 419.8 507.454 419.8 509C419.8 510.546 421.054 511.8 422.6 511.8Z" fill="#07902A"/>
<path opacity="0.86" d="M338.6 497.8C340.146 497.8 341.4 496.546 341.4 495C341.4 493.454 340.146 492.2 338.6 492.2C337.054 492.2 335.8 493.454 335.8 495C335.8 496.546 337.054 497.8 338.6 497.8Z" fill="#07902A"/>
<path opacity="0.86" d="M286.8 429.2C288.347 429.2 289.6 427.946 289.6 426.4C289.6 424.853 288.347 423.6 286.8 423.6C285.254 423.6 284 424.853 284 426.4C284 427.946 285.254 429.2 286.8 429.2Z" fill="#07902A"/>
<path opacity="0.86" d="M295.2 343.8C296.747 343.8 298 342.546 298 341C298 339.454 296.747 338.2 295.2 338.2C293.654 338.2 292.4 339.454 292.4 341C292.4 342.546 293.654 343.8 295.2 343.8Z" fill="#07902A"/>
<path opacity="0.86" d="M362.4 286.4C363.946 286.4 365.2 285.146 365.2 283.6C365.2 282.053 363.946 280.8 362.4 280.8C360.854 280.8 359.6 282.053 359.6 283.6C359.6 285.146 360.854 286.4 362.4 286.4Z" fill="#07902A"/>
<path opacity="0.86" d="M450.6 292C452.146 292 453.4 290.746 453.4 289.2C453.4 287.654 452.146 286.4 450.6 286.4C449.054 286.4 447.8 287.654 447.8 289.2C447.8 290.746 449.054 292 450.6 292Z" fill="#07902A"/>
<path opacity="0.86" d="M512.2 356.4C513.747 356.4 515 355.146 515 353.6C515 352.053 513.747 350.8 512.2 350.8C510.654 350.8 509.4 352.053 509.4 353.6C509.4 355.146 510.654 356.4 512.2 356.4Z" fill="#07902A"/>
<path opacity="0.86" d="M510.8 447.4C512.347 447.4 513.6 446.146 513.6 444.6C513.6 443.053 512.347 441.8 510.8 441.8C509.254 441.8 508 443.053 508 444.6C508 446.146 509.254 447.4 510.8 447.4Z" fill="#07902A"/>
<path opacity="0.85" d="M447.8 511.8C449.347 511.8 450.6 510.546 450.6 509C450.6 507.454 449.347 506.2 447.8 506.2C446.254 506.2 445 507.454 445 509C445 510.546 446.254 511.8 447.8 511.8Z" fill="#07902A"/>
<path opacity="0.85" d="M356.8 516C358.347 516 359.6 514.746 359.6 513.2C359.6 511.654 358.347 510.4 356.8 510.4C355.254 510.4 354 511.654 354 513.2C354 514.746 355.254 516 356.8 516Z" fill="#07902A"/>
<path opacity="0.85" d="M286.8 455.8C288.347 455.8 289.6 454.546 289.6 453C289.6 451.454 288.347 450.2 286.8 450.2C285.254 450.2 284 451.454 284 453C284 454.546 285.254 455.8 286.8 455.8Z" fill="#07902A"/>
<path opacity="0.85" d="M278.4 363.4C279.946 363.4 281.2 362.146 281.2 360.6C281.2 359.053 279.946 357.8 278.4 357.8C276.854 357.8 275.6 359.053 275.6 360.6C275.6 362.146 276.854 363.4 278.4 363.4Z" fill="#07902A"/>
<path opacity="0.85" d="M335.8 289.2C337.347 289.2 338.6 287.946 338.6 286.4C338.6 284.853 337.347 283.6 335.8 283.6C334.254 283.6 333 284.853 333 286.4C333 287.946 334.254 289.2 335.8 289.2Z" fill="#07902A"/>
<path opacity="0.85" d="M429.6 275.2C431.146 275.2 432.4 273.946 432.4 272.4C432.4 270.853 431.146 269.6 429.6 269.6C428.054 269.6 426.8 270.853 426.8 272.4C426.8 273.946 428.054 275.2 429.6 275.2Z" fill="#07902A"/>
<path opacity="0.85" d="M508 331.2C509.547 331.2 510.8 329.946 510.8 328.4C510.8 326.853 509.547 325.6 508 325.6C506.454 325.6 505.2 326.853 505.2 328.4C505.2 329.946 506.454 331.2 508 331.2Z" fill="#07902A"/>
<path opacity="0.84" d="M526.2 425C527.747 425 529 423.746 529 422.2C529 420.654 527.747 419.4 526.2 419.4C524.654 419.4 523.4 420.654 523.4 422.2C523.4 423.746 524.654 425 526.2 425Z" fill="#07902A"/>
<path opacity="0.84" d="M474.4 507.6C475.946 507.6 477.2 506.346 477.2 504.8C477.2 503.254 475.946 502 474.4 502C472.854 502 471.6 503.254 471.6 504.8C471.6 506.346 472.854 507.6 474.4 507.6Z" fill="#07902A"/>
<path opacity="0.84" d="M379.2 531.4C380.747 531.4 382 530.146 382 528.6C382 527.053 380.747 525.8 379.2 525.8C377.654 525.8 376.4 527.053 376.4 528.6C376.4 530.146 377.654 531.4 379.2 531.4Z" fill="#07902A"/>
<path opacity="0.84" d="M293.8 482.4C295.347 482.4 296.6 481.146 296.6 479.6C296.6 478.053 295.347 476.8 293.8 476.8C292.254 476.8 291 478.053 291 479.6C291 481.146 292.254 482.4 293.8 482.4Z" fill="#07902A"/>
<path opacity="0.84" d="M264.4 387.2C265.946 387.2 267.2 385.946 267.2 384.4C267.2 382.853 265.946 381.6 264.4 381.6C262.854 381.6 261.6 382.853 261.6 384.4C261.6 385.946 262.854 387.2 264.4 387.2Z" fill="#07902A"/>
<path opacity="0.84" d="M309.2 297.6C310.747 297.6 312 296.346 312 294.8C312 293.254 310.747 292 309.2 292C307.654 292 306.4 293.254 306.4 294.8C306.4 296.346 307.654 297.6 309.2 297.6Z" fill="#07902A"/>
<path opacity="0.84" d="M404.4 262.6C405.946 262.6 407.2 261.346 407.2 259.8C407.2 258.254 405.946 257 404.4 257C402.854 257 401.6 258.254 401.6 259.8C401.6 261.346 402.854 262.6 404.4 262.6Z" fill="#07902A"/>
<path opacity="0.84" d="M498.2 304.6C499.747 304.6 501 303.346 501 301.8C501 300.254 499.747 299 498.2 299C496.654 299 495.4 300.254 495.4 301.8C495.4 303.346 496.654 304.6 498.2 304.6Z" fill="#07902A"/>
<path opacity="0.83" d="M537.4 399.1C539.333 399.1 540.9 397.533 540.9 395.6C540.9 393.667 539.333 392.1 537.4 392.1C535.467 392.1 533.9 393.667 533.9 395.6C533.9 397.533 535.467 399.1 537.4 399.1Z" fill="#07902A"/>
<path opacity="0.83" d="M501 495.7C502.933 495.7 504.5 494.133 504.5 492.2C504.5 490.267 502.933 488.7 501 488.7C499.067 488.7 497.5 490.267 497.5 492.2C497.5 494.133 499.067 495.7 501 495.7Z" fill="#07902A"/>
<path opacity="0.83" d="M407.2 541.9C409.133 541.9 410.7 540.333 410.7 538.4C410.7 536.467 409.133 534.9 407.2 534.9C405.267 534.9 403.7 536.467 403.7 538.4C403.7 540.333 405.267 541.9 407.2 541.9Z" fill="#07902A"/>
<path opacity="0.83" d="M306.4 509.7C308.333 509.7 309.9 508.133 309.9 506.2C309.9 504.267 308.333 502.7 306.4 502.7C304.467 502.7 302.9 504.267 302.9 506.2C302.9 508.133 304.467 509.7 306.4 509.7Z" fill="#07902A"/>
<path opacity="0.83" d="M256 415.9C257.933 415.9 259.5 414.333 259.5 412.4C259.5 410.467 257.933 408.9 256 408.9C254.067 408.9 252.5 410.467 252.5 412.4C252.5 414.333 254.067 415.9 256 415.9Z" fill="#07902A"/>
<path opacity="0.83" d="M284 313.7C285.933 313.7 287.5 312.133 287.5 310.2C287.5 308.267 285.933 306.7 284 306.7C282.067 306.7 280.5 308.267 280.5 310.2C280.5 312.133 282.067 313.7 284 313.7Z" fill="#07902A"/>
<path opacity="0.83" d="M375 257.7C376.933 257.7 378.5 256.133 378.5 254.2C378.5 252.267 376.933 250.7 375 250.7C373.067 250.7 371.5 252.267 371.5 254.2C371.5 256.133 373.067 257.7 375 257.7Z" fill="#07902A"/>
<path opacity="0.82" d="M481.4 280.1C483.333 280.1 484.9 278.533 484.9 276.6C484.9 274.667 483.333 273.1 481.4 273.1C479.467 273.1 477.9 274.667 477.9 276.6C477.9 278.533 479.467 280.1 481.4 280.1Z" fill="#07902A"/>
<path opacity="0.82" d="M543 369.7C544.933 369.7 546.5 368.133 546.5 366.2C546.5 364.267 544.933 362.7 543 362.7C541.067 362.7 539.5 364.267 539.5 366.2C539.5 368.133 541.067 369.7 543 369.7Z" fill="#07902A"/>
<path opacity="0.82" d="M524.8 477.5C526.733 477.5 528.3 475.933 528.3 474C528.3 472.067 526.733 470.5 524.8 470.5C522.867 470.5 521.3 472.067 521.3 474C521.3 475.933 522.867 477.5 524.8 477.5Z" fill="#07902A"/>
<path opacity="0.82" d="M438 544.7C439.933 544.7 441.5 543.133 441.5 541.2C441.5 539.267 439.933 537.7 438 537.7C436.067 537.7 434.5 539.267 434.5 541.2C434.5 543.133 436.067 544.7 438 544.7Z" fill="#07902A"/>
<path opacity="0.82" d="M327.4 533.5C329.333 533.5 330.9 531.933 330.9 530C330.9 528.067 329.333 526.5 327.4 526.5C325.467 526.5 323.9 528.067 323.9 530C323.9 531.933 325.467 533.5 327.4 533.5Z" fill="#07902A"/>
<path opacity="0.82" d="M254.6 446.7C256.533 446.7 258.1 445.133 258.1 443.2C258.1 441.267 256.533 439.7 254.6 439.7C252.667 439.7 251.1 441.267 251.1 443.2C251.1 445.133 252.667 446.7 254.6 446.7Z" fill="#07902A"/>
<path opacity="0.82" d="M261.6 334.7C263.533 334.7 265.1 333.133 265.1 331.2C265.1 329.267 263.533 327.7 261.6 327.7C259.667 327.7 258.1 329.267 258.1 331.2C258.1 333.133 259.667 334.7 261.6 334.7Z" fill="#07902A"/>
<path opacity="0.82" d="M344.2 256.3C346.133 256.3 347.7 254.733 347.7 252.8C347.7 250.867 346.133 249.3 344.2 249.3C342.267 249.3 340.7 250.867 340.7 252.8C340.7 254.733 342.267 256.3 344.2 256.3Z" fill="#07902A"/>
<path opacity="0.81" d="M459 257.7C460.933 257.7 462.5 256.133 462.5 254.2C462.5 252.267 460.933 250.7 459 250.7C457.067 250.7 455.5 252.267 455.5 254.2C455.5 256.133 457.067 257.7 459 257.7Z" fill="#07902A"/>
<path opacity="0.81" d="M541.6 337.5C543.533 337.5 545.1 335.933 545.1 334C545.1 332.067 543.533 330.5 541.6 330.5C539.667 330.5 538.1 332.067 538.1 334C538.1 335.933 539.667 337.5 541.6 337.5Z" fill="#07902A"/>
<path opacity="0.81" d="M547.2 453.7C549.133 453.7 550.7 452.133 550.7 450.2C550.7 448.267 549.133 446.7 547.2 446.7C545.267 446.7 543.7 448.267 543.7 450.2C543.7 452.133 545.267 453.7 547.2 453.7Z" fill="#07902A"/>
<path opacity="0.81" d="M470.2 541.9C472.133 541.9 473.7 540.333 473.7 538.4C473.7 536.467 472.133 534.9 470.2 534.9C468.267 534.9 466.7 536.467 466.7 538.4C466.7 540.333 468.267 541.9 470.2 541.9Z" fill="#07902A"/>
<path opacity="0.81" d="M352.6 553.1C354.533 553.1 356.1 551.533 356.1 549.6C356.1 547.667 354.533 546.1 352.6 546.1C350.667 546.1 349.1 547.667 349.1 549.6C349.1 551.533 350.667 553.1 352.6 553.1Z" fill="#07902A"/>
<path opacity="0.81" d="M258.8 478.9C260.733 478.9 262.3 477.333 262.3 475.4C262.3 473.467 260.733 471.9 258.8 471.9C256.867 471.9 255.3 473.467 255.3 475.4C255.3 477.333 256.867 478.9 258.8 478.9Z" fill="#07902A"/>
<path opacity="0.81" d="M242 361.3C243.933 361.3 245.5 359.733 245.5 357.8C245.5 355.867 243.933 354.3 242 354.3C240.067 354.3 238.5 355.867 238.5 357.8C238.5 359.733 240.067 361.3 242 361.3Z" fill="#07902A"/>
<path opacity="0.8" d="M312 263.3C313.933 263.3 315.5 261.733 315.5 259.8C315.5 257.867 313.933 256.3 312 256.3C310.067 256.3 308.5 257.867 308.5 259.8C308.5 261.733 310.067 263.3 312 263.3Z" fill="#07902A"/>
<path opacity="0.8" d="M429.6 239.5C431.533 239.5 433.1 237.933 433.1 236C433.1 234.067 431.533 232.5 429.6 232.5C427.667 232.5 426.1 234.067 426.1 236C426.1 237.933 427.667 239.5 429.6 239.5Z" fill="#07902A"/>
<path opacity="0.8" d="M533.2 305.3C535.133 305.3 536.7 303.733 536.7 301.8C536.7 299.867 535.133 298.3 533.2 298.3C531.267 298.3 529.7 299.867 529.7 301.8C529.7 303.733 531.267 305.3 533.2 305.3Z" fill="#07902A"/>
<path opacity="0.8" d="M562.6 424.3C564.533 424.3 566.1 422.733 566.1 420.8C566.1 418.867 564.533 417.3 562.6 417.3C560.667 417.3 559.1 418.867 559.1 420.8C559.1 422.733 560.667 424.3 562.6 424.3Z" fill="#07902A"/>
<path opacity="0.8" d="M502.4 530.7C504.333 530.7 505.9 529.133 505.9 527.2C505.9 525.267 504.333 523.7 502.4 523.7C500.467 523.7 498.9 525.267 498.9 527.2C498.9 529.133 500.467 530.7 502.4 530.7Z" fill="#07902A"/>
<path opacity="0.8" d="M383.4 567.1C385.333 567.1 386.9 565.533 386.9 563.6C386.9 561.667 385.333 560.1 383.4 560.1C381.467 560.1 379.9 561.667 379.9 563.6C379.9 565.533 381.467 567.1 383.4 567.1Z" fill="#07902A"/>
<path opacity="0.8" d="M271.4 511.1C273.333 511.1 274.9 509.533 274.9 507.6C274.9 505.667 273.333 504.1 271.4 504.1C269.467 504.1 267.9 505.667 267.9 507.6C267.9 509.533 269.467 511.1 271.4 511.1Z" fill="#07902A"/>
<path opacity="0.8" d="M229.4 393.5C231.333 393.5 232.9 391.933 232.9 390C232.9 388.067 231.333 386.5 229.4 386.5C227.467 386.5 225.9 388.067 225.9 390C225.9 391.933 227.467 393.5 229.4 393.5Z" fill="#07902A"/>
<path opacity="0.79" d="M279.8 277.3C281.733 277.3 283.3 275.733 283.3 273.8C283.3 271.867 281.733 270.3 279.8 270.3C277.867 270.3 276.3 271.867 276.3 273.8C276.3 275.733 277.867 277.3 279.8 277.3Z" fill="#07902A"/>
<path opacity="0.79" d="M397.4 228.3C399.333 228.3 400.9 226.733 400.9 224.8C400.9 222.867 399.333 221.3 397.4 221.3C395.467 221.3 393.9 222.867 393.9 224.8C393.9 226.733 395.467 228.3 397.4 228.3Z" fill="#07902A"/>
<path opacity="0.79" d="M516.4 274.5C518.333 274.5 519.9 272.933 519.9 271C519.9 269.067 518.333 267.5 516.4 267.5C514.467 267.5 512.9 269.067 512.9 271C512.9 272.933 514.467 274.5 516.4 274.5Z" fill="#07902A"/>
<path opacity="0.79" d="M572.4 389.3C574.333 389.3 575.9 387.733 575.9 385.8C575.9 383.867 574.333 382.3 572.4 382.3C570.467 382.3 568.9 383.867 568.9 385.8C568.9 387.733 570.467 389.3 572.4 389.3Z" fill="#07902A"/>
<path opacity="0.79" d="M533.2 514.6C535.52 514.6 537.4 512.72 537.4 510.4C537.4 508.08 535.52 506.2 533.2 506.2C530.881 506.2 529 508.08 529 510.4C529 512.72 530.881 514.6 533.2 514.6Z" fill="#07902A"/>
<path opacity="0.79" d="M418.4 576.2C420.72 576.2 422.6 574.319 422.6 572C422.6 569.68 420.72 567.8 418.4 567.8C416.081 567.8 414.2 569.68 414.2 572C414.2 574.319 416.081 576.2 418.4 576.2Z" fill="#07902A"/>
<path opacity="0.79" d="M292.4 542.6C294.72 542.6 296.6 540.72 296.6 538.4C296.6 536.08 294.72 534.2 292.4 534.2C290.08 534.2 288.2 536.08 288.2 538.4C288.2 540.72 290.08 542.6 292.4 542.6Z" fill="#07902A"/>
<path opacity="0.78" d="M222.4 430.6C224.72 430.6 226.6 428.72 226.6 426.4C226.6 424.08 224.72 422.2 222.4 422.2C220.08 422.2 218.2 424.08 218.2 426.4C218.2 428.72 220.08 430.6 222.4 430.6Z" fill="#07902A"/>
<path opacity="0.78" d="M250.4 300.4C252.72 300.4 254.6 298.52 254.6 296.2C254.6 293.88 252.72 292 250.4 292C248.08 292 246.2 293.88 246.2 296.2C246.2 298.52 248.08 300.4 250.4 300.4Z" fill="#07902A"/>
<path opacity="0.78" d="M361 224.8C363.32 224.8 365.2 222.919 365.2 220.6C365.2 218.28 363.32 216.4 361 216.4C358.68 216.4 356.8 218.28 356.8 220.6C356.8 222.919 358.68 224.8 361 224.8Z" fill="#07902A"/>
<path opacity="0.78" d="M492.6 245.8C494.92 245.8 496.8 243.919 496.8 241.6C496.8 239.28 494.92 237.4 492.6 237.4C490.281 237.4 488.4 239.28 488.4 241.6C488.4 243.919 490.281 245.8 492.6 245.8Z" fill="#07902A"/>
<path opacity="0.78" d="M575.2 353.6C577.52 353.6 579.4 351.72 579.4 349.4C579.4 347.08 577.52 345.2 575.2 345.2C572.881 345.2 571 347.08 571 349.4C571 351.72 572.881 353.6 575.2 353.6Z" fill="#07902A"/>
<path opacity="0.78" d="M559.8 488C562.12 488 564 486.119 564 483.8C564 481.48 562.12 479.6 559.8 479.6C557.481 479.6 555.6 481.48 555.6 483.8C555.6 486.119 557.481 488 559.8 488Z" fill="#07902A"/>
<path opacity="0.78" d="M456.2 576.2C458.52 576.2 460.4 574.319 460.4 572C460.4 569.68 458.52 567.8 456.2 567.8C453.881 567.8 452 569.68 452 572C452 574.319 453.881 576.2 456.2 576.2Z" fill="#07902A"/>
<path opacity="0.78" d="M319 569.2C321.32 569.2 323.2 567.319 323.2 565C323.2 562.68 321.32 560.8 319 560.8C316.68 560.8 314.8 562.68 314.8 565C314.8 567.319 316.68 569.2 319 569.2Z" fill="#07902A"/>
<path opacity="0.77" d="M223.8 468.4C226.12 468.4 228 466.52 228 464.2C228 461.88 226.12 460 223.8 460C221.481 460 219.6 461.88 219.6 464.2C219.6 466.52 221.481 468.4 223.8 468.4Z" fill="#07902A"/>
<path opacity="0.77" d="M225.2 328.4C227.52 328.4 229.4 326.52 229.4 324.2C229.4 321.88 227.52 320 225.2 320C222.881 320 221 321.88 221 324.2C221 326.52 222.881 328.4 225.2 328.4Z" fill="#07902A"/>
<path opacity="0.77" d="M321.8 229C324.12 229 326 227.119 326 224.8C326 222.48 324.12 220.6 321.8 220.6C319.481 220.6 317.6 222.48 317.6 224.8C317.6 227.119 319.481 229 321.8 229Z" fill="#07902A"/>
<path opacity="0.77" d="M463.2 222C465.52 222 467.4 220.119 467.4 217.8C467.4 215.48 465.52 213.6 463.2 213.6C460.881 213.6 459 215.48 459 217.8C459 220.119 460.881 222 463.2 222Z" fill="#07902A"/>
<path opacity="0.77" d="M569.6 315.8C571.92 315.8 573.8 313.919 573.8 311.6C573.8 309.28 571.92 307.4 569.6 307.4C567.281 307.4 565.4 309.28 565.4 311.6C565.4 313.919 567.281 315.8 569.6 315.8Z" fill="#07902A"/>
<path opacity="0.77" d="M582.2 457.2C584.52 457.2 586.4 455.319 586.4 453C586.4 450.68 584.52 448.8 582.2 448.8C579.881 448.8 578 450.68 578 453C578 455.319 579.881 457.2 582.2 457.2Z" fill="#07902A"/>
<path opacity="0.77" d="M494 569.2C496.32 569.2 498.2 567.319 498.2 565C498.2 562.68 496.32 560.8 494 560.8C491.68 560.8 489.8 562.68 489.8 565C489.8 567.319 491.68 569.2 494 569.2Z" fill="#07902A"/>
<path opacity="0.76" d="M352.6 590.2C354.92 590.2 356.8 588.319 356.8 586C356.8 583.68 354.92 581.8 352.6 581.8C350.281 581.8 348.4 583.68 348.4 586C348.4 588.319 350.281 590.2 352.6 590.2Z" fill="#07902A"/>
<path opacity="0.76" d="M233.6 506.2C235.92 506.2 237.8 504.319 237.8 502C237.8 499.68 235.92 497.8 233.6 497.8C231.281 497.8 229.4 499.68 229.4 502C229.4 504.319 231.281 506.2 233.6 506.2Z" fill="#07902A"/>
<path opacity="0.76" d="M205.6 363.4C207.92 363.4 209.8 361.52 209.8 359.2C209.8 356.88 207.92 355 205.6 355C203.281 355 201.4 356.88 201.4 359.2C201.4 361.52 203.281 363.4 205.6 363.4Z" fill="#07902A"/>
<path opacity="0.76" d="M284 240.2C286.32 240.2 288.2 238.319 288.2 236C288.2 233.68 286.32 231.8 284 231.8C281.68 231.8 279.8 233.68 279.8 236C279.8 238.319 281.68 240.2 284 240.2Z" fill="#07902A"/>
<path opacity="0.76" d="M426.8 205.2C429.12 205.2 431 203.319 431 201C431 198.68 429.12 196.8 426.8 196.8C424.481 196.8 422.6 198.68 422.6 201C422.6 203.319 424.481 205.2 426.8 205.2Z" fill="#07902A"/>
<path opacity="0.76" d="M555.6 276.6C557.92 276.6 559.8 274.72 559.8 272.4C559.8 270.08 557.92 268.2 555.6 268.2C553.281 268.2 551.4 270.08 551.4 272.4C551.4 274.72 553.281 276.6 555.6 276.6Z" fill="#07902A"/>
<path opacity="0.76" d="M599 419.4C601.32 419.4 603.2 417.52 603.2 415.2C603.2 412.88 601.32 411 599 411C596.68 411 594.8 412.88 594.8 415.2C594.8 417.52 596.68 419.4 599 419.4Z" fill="#07902A"/>
<path opacity="0.76" d="M531.8 552.4C534.12 552.4 536 550.52 536 548.2C536 545.88 534.12 544 531.8 544C529.481 544 527.6 545.88 527.6 548.2C527.6 550.52 529.481 552.4 531.8 552.4Z" fill="#07902A"/>
<path opacity="0.75" d="M390.4 604.2C392.72 604.2 394.6 602.319 394.6 600C394.6 597.68 392.72 595.8 390.4 595.8C388.081 595.8 386.2 597.68 386.2 600C386.2 602.319 388.081 604.2 390.4 604.2Z" fill="#07902A"/>
<path opacity="0.75" d="M253.2 544C255.52 544 257.4 542.119 257.4 539.8C257.4 537.48 255.52 535.6 253.2 535.6C250.881 535.6 249 537.48 249 539.8C249 542.119 250.881 544 253.2 544Z" fill="#07902A"/>
<path opacity="0.75" d="M194.4 404C196.72 404 198.6 402.119 198.6 399.8C198.6 397.48 196.72 395.6 194.4 395.6C192.08 395.6 190.2 397.48 190.2 399.8C190.2 402.119 192.08 404 194.4 404Z" fill="#07902A"/>
<path opacity="0.75" d="M247.6 261.2C249.92 261.2 251.8 259.319 251.8 257C251.8 254.68 249.92 252.8 247.6 252.8C245.281 252.8 243.4 254.68 243.4 257C243.4 259.319 245.281 261.2 247.6 261.2Z" fill="#07902A"/>
<path opacity="0.75" d="M386.2 194C388.52 194 390.4 192.119 390.4 189.8C390.4 187.48 388.52 185.6 386.2 185.6C383.881 185.6 382 187.48 382 189.8C382 192.119 383.881 194 386.2 194Z" fill="#07902A"/>
<path opacity="0.75" d="M531.8 241.6C534.12 241.6 536 239.72 536 237.4C536 235.08 534.12 233.2 531.8 233.2C529.481 233.2 527.6 235.08 527.6 237.4C527.6 239.72 529.481 241.6 531.8 241.6Z" fill="#07902A"/>
<path opacity="0.75" d="M606 377.4C608.32 377.4 610.2 375.52 610.2 373.2C610.2 370.88 608.32 369 606 369C603.68 369 601.8 370.88 601.8 373.2C601.8 375.52 603.68 377.4 606 377.4Z" fill="#07902A"/>
<path opacity="0.74" d="M566.8 527.2C569.12 527.2 571 525.319 571 523C571 520.68 569.12 518.8 566.8 518.8C564.481 518.8 562.6 520.68 562.6 523C562.6 525.319 564.481 527.2 566.8 527.2Z" fill="#07902A"/>
<path opacity="0.74" d="M433.8 609.8C436.12 609.8 438 607.919 438 605.6C438 603.28 436.12 601.4 433.8 601.4C431.481 601.4 429.6 603.28 429.6 605.6C429.6 607.919 431.481 609.8 433.8 609.8Z" fill="#07902A"/>
<path opacity="0.74" d="M279.8 578.3C282.506 578.3 284.7 576.106 284.7 573.4C284.7 570.694 282.506 568.5 279.8 568.5C277.094 568.5 274.9 570.694 274.9 573.4C274.9 576.106 277.094 578.3 279.8 578.3Z" fill="#07902A"/>
<path opacity="0.74" d="M190.2 448.1C192.906 448.1 195.1 445.906 195.1 443.2C195.1 440.494 192.906 438.3 190.2 438.3C187.494 438.3 185.3 440.494 185.3 443.2C185.3 445.906 187.494 448.1 190.2 448.1Z" fill="#07902A"/>
<path opacity="0.74" d="M215.4 291.3C218.106 291.3 220.3 289.106 220.3 286.4C220.3 283.694 218.106 281.5 215.4 281.5C212.694 281.5 210.5 283.694 210.5 286.4C210.5 289.106 212.694 291.3 215.4 291.3Z" fill="#07902A"/>
<path opacity="0.74" d="M342.8 193.3C345.506 193.3 347.7 191.106 347.7 188.4C347.7 185.694 345.506 183.5 342.8 183.5C340.094 183.5 337.9 185.694 337.9 188.4C337.9 191.106 340.094 193.3 342.8 193.3Z" fill="#07902A"/>
<path opacity="0.74" d="M501 211.5C503.706 211.5 505.9 209.306 505.9 206.6C505.9 203.894 503.706 201.7 501 201.7C498.294 201.7 496.1 203.894 496.1 206.6C496.1 209.306 498.294 211.5 501 211.5Z" fill="#07902A"/>
<path opacity="0.74" d="M606 334.7C608.706 334.7 610.9 332.506 610.9 329.8C610.9 327.094 608.706 324.9 606 324.9C603.294 324.9 601.1 327.094 601.1 329.8C601.1 332.506 603.294 334.7 606 334.7Z" fill="#07902A"/>
<path opacity="0.73" d="M596.2 495.7C598.906 495.7 601.1 493.506 601.1 490.8C601.1 488.094 598.906 485.9 596.2 485.9C593.494 485.9 591.3 488.094 591.3 490.8C591.3 493.506 593.494 495.7 596.2 495.7Z" fill="#07902A"/>
<path opacity="0.73" d="M477.2 607.7C479.906 607.7 482.1 605.506 482.1 602.8C482.1 600.094 479.906 597.9 477.2 597.9C474.494 597.9 472.3 600.094 472.3 602.8C472.3 605.506 474.494 607.7 477.2 607.7Z" fill="#07902A"/>
<path opacity="0.73" d="M314.8 606.3C317.506 606.3 319.7 604.106 319.7 601.4C319.7 598.694 317.506 596.5 314.8 596.5C312.094 596.5 309.9 598.694 309.9 601.4C309.9 604.106 312.094 606.3 314.8 606.3Z" fill="#07902A"/>
<path opacity="0.73" d="M195.8 491.5C198.506 491.5 200.7 489.306 200.7 486.6C200.7 483.894 198.506 481.7 195.8 481.7C193.094 481.7 190.9 483.894 190.9 486.6C190.9 489.306 193.094 491.5 195.8 491.5Z" fill="#07902A"/>
<path opacity="0.73" d="M188.8 327.7C191.506 327.7 193.7 325.506 193.7 322.8C193.7 320.094 191.506 317.9 188.8 317.9C186.094 317.9 183.9 320.094 183.9 322.8C183.9 325.506 186.094 327.7 188.8 327.7Z" fill="#07902A"/>
<path opacity="0.73" d="M298 201.7C300.706 201.7 302.9 199.506 302.9 196.8C302.9 194.094 300.706 191.9 298 191.9C295.294 191.9 293.1 194.094 293.1 196.8C293.1 199.506 295.294 201.7 298 201.7Z" fill="#07902A"/>
<path opacity="0.73" d="M463.2 186.3C465.906 186.3 468.1 184.106 468.1 181.4C468.1 178.694 465.906 176.5 463.2 176.5C460.494 176.5 458.3 178.694 458.3 181.4C458.3 184.106 460.494 186.3 463.2 186.3Z" fill="#07902A"/>
<path opacity="0.72" d="M594.8 289.9C597.506 289.9 599.7 287.706 599.7 285C599.7 282.294 597.506 280.1 594.8 280.1C592.094 280.1 589.9 282.294 589.9 285C589.9 287.706 592.094 289.9 594.8 289.9Z" fill="#07902A"/>
<path opacity="0.72" d="M620 456.5C622.706 456.5 624.9 454.306 624.9 451.6C624.9 448.894 622.706 446.7 620 446.7C617.294 446.7 615.1 448.894 615.1 451.6C615.1 454.306 617.294 456.5 620 456.5Z" fill="#07902A"/>
<path opacity="0.72" d="M522 593.7C524.706 593.7 526.9 591.506 526.9 588.8C526.9 586.094 524.706 583.9 522 583.9C519.294 583.9 517.1 586.094 517.1 588.8C517.1 591.506 519.294 593.7 522 593.7Z" fill="#07902A"/>
<path opacity="0.72" d="M355.4 627.3C358.106 627.3 360.3 625.106 360.3 622.4C360.3 619.694 358.106 617.5 355.4 617.5C352.694 617.5 350.5 619.694 350.5 622.4C350.5 625.106 352.694 627.3 355.4 627.3Z" fill="#07902A"/>
<path opacity="0.72" d="M211.2 536.3C213.906 536.3 216.1 534.106 216.1 531.4C216.1 528.694 213.906 526.5 211.2 526.5C208.494 526.5 206.3 528.694 206.3 531.4C206.3 534.106 208.494 536.3 211.2 536.3Z" fill="#07902A"/>
<path opacity="0.72" d="M169.2 369.7C171.906 369.7 174.1 367.506 174.1 364.8C174.1 362.094 171.906 359.9 169.2 359.9C166.494 359.9 164.3 362.094 164.3 364.8C164.3 367.506 166.494 369.7 169.2 369.7Z" fill="#07902A"/>
<path opacity="0.72" d="M254.6 219.9C257.306 219.9 259.5 217.706 259.5 215C259.5 212.294 257.306 210.1 254.6 210.1C251.894 210.1 249.7 212.294 249.7 215C249.7 217.706 251.894 219.9 254.6 219.9Z" fill="#07902A"/>
<path opacity="0.71" d="M419.8 169.5C422.506 169.5 424.7 167.306 424.7 164.6C424.7 161.894 422.506 159.7 419.8 159.7C417.094 159.7 414.9 161.894 414.9 164.6C414.9 167.306 417.094 169.5 419.8 169.5Z" fill="#07902A"/>
<path opacity="0.71" d="M575.2 246.5C577.906 246.5 580.1 244.306 580.1 241.6C580.1 238.894 577.906 236.7 575.2 236.7C572.494 236.7 570.3 238.894 570.3 241.6C570.3 244.306 572.494 246.5 575.2 246.5Z" fill="#07902A"/>
<path opacity="0.71" d="M634 410.3C636.706 410.3 638.9 408.106 638.9 405.4C638.9 402.694 636.706 400.5 634 400.5C631.294 400.5 629.1 402.694 629.1 405.4C629.1 408.106 631.294 410.3 634 410.3Z" fill="#07902A"/>
<path opacity="0.71" d="M564 571.3C566.706 571.3 568.9 569.106 568.9 566.4C568.9 563.694 566.706 561.5 564 561.5C561.294 561.5 559.1 563.694 559.1 566.4C559.1 569.106 561.294 571.3 564 571.3Z" fill="#07902A"/>
<path opacity="0.71" d="M401.6 639.9C404.306 639.9 406.5 637.706 406.5 635C406.5 632.294 404.306 630.1 401.6 630.1C398.894 630.1 396.7 632.294 396.7 635C396.7 637.706 398.894 639.9 401.6 639.9Z" fill="#07902A"/>
<path opacity="0.71" d="M236.4 576.9C239.106 576.9 241.3 574.706 241.3 572C241.3 569.294 239.106 567.1 236.4 567.1C233.694 567.1 231.5 569.294 231.5 572C231.5 574.706 233.694 576.9 236.4 576.9Z" fill="#07902A"/>
<path opacity="0.71" d="M159.4 417.3C162.106 417.3 164.3 415.106 164.3 412.4C164.3 409.694 162.106 407.5 159.4 407.5C156.694 407.5 154.5 409.694 154.5 412.4C154.5 415.106 156.694 417.3 159.4 417.3Z" fill="#07902A"/>
<path opacity="0.71" d="M214 247.9C216.706 247.9 218.9 245.706 218.9 243C218.9 240.294 216.706 238.1 214 238.1C211.294 238.1 209.1 240.294 209.1 243C209.1 245.706 211.294 247.9 214 247.9Z" fill="#07902A"/>
<path opacity="0.7" d="M370.8 161.1C373.506 161.1 375.7 158.906 375.7 156.2C375.7 153.494 373.506 151.3 370.8 151.3C368.094 151.3 365.9 153.494 365.9 156.2C365.9 158.906 368.094 161.1 370.8 161.1Z" fill="#07902A"/>
<path opacity="0.7" d="M544.4 207.3C547.106 207.3 549.3 205.106 549.3 202.4C549.3 199.694 547.106 197.5 544.4 197.5C541.694 197.5 539.5 199.694 539.5 202.4C539.5 205.106 541.694 207.3 544.4 207.3Z" fill="#07902A"/>
<path opacity="0.7" d="M639.6 361.3C642.306 361.3 644.5 359.106 644.5 356.4C644.5 353.694 642.306 351.5 639.6 351.5C636.894 351.5 634.7 353.694 634.7 356.4C634.7 359.106 636.894 361.3 639.6 361.3Z" fill="#07902A"/>
<path opacity="0.7" d="M601.8 539.1C604.506 539.1 606.7 536.906 606.7 534.2C606.7 531.494 604.506 529.3 601.8 529.3C599.094 529.3 596.9 531.494 596.9 534.2C596.9 536.906 599.094 539.1 601.8 539.1Z" fill="#07902A"/>
<path opacity="0.7" d="M452 642.7C454.706 642.7 456.9 640.506 456.9 637.8C456.9 635.094 454.706 632.9 452 632.9C449.294 632.9 447.1 635.094 447.1 637.8C447.1 640.506 449.294 642.7 452 642.7Z" fill="#07902A"/>
<path opacity="0.7" d="M271.4 613.3C274.106 613.3 276.3 611.106 276.3 608.4C276.3 605.694 274.106 603.5 271.4 603.5C268.694 603.5 266.5 605.694 266.5 608.4C266.5 611.106 268.694 613.3 271.4 613.3Z" fill="#07902A"/>
<path opacity="0.7" d="M159.4 468.4C162.493 468.4 165 465.893 165 462.8C165 459.707 162.493 457.2 159.4 457.2C156.307 457.2 153.8 459.707 153.8 462.8C153.8 465.893 156.307 468.4 159.4 468.4Z" fill="#07902A"/>
<path opacity="0.69" d="M179 285C182.093 285 184.6 282.493 184.6 279.4C184.6 276.307 182.093 273.8 179 273.8C175.907 273.8 173.4 276.307 173.4 279.4C173.4 282.493 175.907 285 179 285Z" fill="#07902A"/>
<path opacity="0.69" d="M320.4 164.6C323.493 164.6 326 162.093 326 159C326 155.907 323.493 153.4 320.4 153.4C317.307 153.4 314.8 155.907 314.8 159C314.8 162.093 317.307 164.6 320.4 164.6Z" fill="#07902A"/>
<path opacity="0.69" d="M506.6 174.4C509.693 174.4 512.2 171.893 512.2 168.8C512.2 165.707 509.693 163.2 506.6 163.2C503.507 163.2 501 165.707 501 168.8C501 171.893 503.507 174.4 506.6 174.4Z" fill="#07902A"/>
<path opacity="0.69" d="M634 311.6C637.093 311.6 639.6 309.093 639.6 306C639.6 302.907 637.093 300.4 634 300.4C630.907 300.4 628.4 302.907 628.4 306C628.4 309.093 630.907 311.6 634 311.6Z" fill="#07902A"/>
<path opacity="0.69" d="M634 499.2C637.093 499.2 639.6 496.693 639.6 493.6C639.6 490.507 637.093 488 634 488C630.907 488 628.4 490.507 628.4 493.6C628.4 496.693 630.907 499.2 634 499.2Z" fill="#07902A"/>
<path opacity="0.69" d="M502.4 635C505.493 635 508 632.493 508 629.4C508 626.307 505.493 623.8 502.4 623.8C499.307 623.8 496.8 626.307 496.8 629.4C496.8 632.493 499.307 635 502.4 635Z" fill="#07902A"/>
<path opacity="0.69" d="M313.4 643.4C316.493 643.4 319 640.893 319 637.8C319 634.707 316.493 632.2 313.4 632.2C310.307 632.2 307.8 634.707 307.8 637.8C307.8 640.893 310.307 643.4 313.4 643.4Z" fill="#07902A"/>
<path opacity="0.69" d="M169.2 518.8C172.293 518.8 174.8 516.293 174.8 513.2C174.8 510.107 172.293 507.6 169.2 507.6C166.107 507.6 163.6 510.107 163.6 513.2C163.6 516.293 166.107 518.8 169.2 518.8Z" fill="#07902A"/>
<path opacity="0.68" d="M151 328.4C154.093 328.4 156.6 325.893 156.6 322.8C156.6 319.707 154.093 317.2 151 317.2C147.907 317.2 145.4 319.707 145.4 322.8C145.4 325.893 147.907 328.4 151 328.4Z" fill="#07902A"/>
<path opacity="0.68" d="M270 177.2C273.093 177.2 275.6 174.693 275.6 171.6C275.6 168.507 273.093 166 270 166C266.907 166 264.4 168.507 264.4 171.6C264.4 174.693 266.907 177.2 270 177.2Z" fill="#07902A"/>
<path opacity="0.68" d="M460.4 149.2C463.493 149.2 466 146.693 466 143.6C466 140.507 463.493 138 460.4 138C457.307 138 454.8 140.507 454.8 143.6C454.8 146.693 457.307 149.2 460.4 149.2Z" fill="#07902A"/>
<path opacity="0.68" d="M618.6 261.2C621.693 261.2 624.2 258.693 624.2 255.6C624.2 252.507 621.693 250 618.6 250C615.507 250 613 252.507 613 255.6C613 258.693 615.507 261.2 618.6 261.2Z" fill="#07902A"/>
<path opacity="0.68" d="M656.4 451.6C659.493 451.6 662 449.093 662 446C662 442.907 659.493 440.4 656.4 440.4C653.307 440.4 650.8 442.907 650.8 446C650.8 449.093 653.307 451.6 656.4 451.6Z" fill="#07902A"/>
<path opacity="0.68" d="M552.8 616.8C555.893 616.8 558.4 614.293 558.4 611.2C558.4 608.107 555.893 605.6 552.8 605.6C549.707 605.6 547.2 608.107 547.2 611.2C547.2 614.293 549.707 616.8 552.8 616.8Z" fill="#07902A"/>
<path opacity="0.68" d="M362.4 664.4C365.493 664.4 368 661.893 368 658.8C368 655.707 365.493 653.2 362.4 653.2C359.307 653.2 356.8 655.707 356.8 658.8C356.8 661.893 359.307 664.4 362.4 664.4Z" fill="#07902A"/>
<path opacity="0.67" d="M191.6 567.8C194.693 567.8 197.2 565.293 197.2 562.2C197.2 559.107 194.693 556.6 191.6 556.6C188.507 556.6 186 559.107 186 562.2C186 565.293 188.507 567.8 191.6 567.8Z" fill="#07902A"/>
<path opacity="0.67" d="M132.8 380.2C135.893 380.2 138.4 377.693 138.4 374.6C138.4 371.507 135.893 369 132.8 369C129.707 369 127.2 371.507 127.2 374.6C127.2 377.693 129.707 380.2 132.8 380.2Z" fill="#07902A"/>
<path opacity="0.67" d="M221 202.4C224.093 202.4 226.6 199.893 226.6 196.8C226.6 193.707 224.093 191.2 221 191.2C217.907 191.2 215.4 193.707 215.4 196.8C215.4 199.893 217.907 202.4 221 202.4Z" fill="#07902A"/>
<path opacity="0.67" d="M408.6 133.8C411.693 133.8 414.2 131.293 414.2 128.2C414.2 125.107 411.693 122.6 408.6 122.6C405.507 122.6 403 125.107 403 128.2C403 131.293 405.507 133.8 408.6 133.8Z" fill="#07902A"/>
<path opacity="0.67" d="M592 213.6C595.093 213.6 597.6 211.093 597.6 208C597.6 204.907 595.093 202.4 592 202.4C588.907 202.4 586.4 204.907 586.4 208C586.4 211.093 588.907 213.6 592 213.6Z" fill="#07902A"/>
<path opacity="0.67" d="M669 398.4C672.093 398.4 674.6 395.893 674.6 392.8C674.6 389.707 672.093 387.2 669 387.2C665.907 387.2 663.4 389.707 663.4 392.8C663.4 395.893 665.907 398.4 669 398.4Z" fill="#07902A"/>
<path opacity="0.67" d="M599 587.4C602.093 587.4 604.6 584.893 604.6 581.8C604.6 578.707 602.093 576.2 599 576.2C595.907 576.2 593.4 578.707 593.4 581.8C593.4 584.893 595.907 587.4 599 587.4Z" fill="#07902A"/>
<path opacity="0.67" d="M417 675.6C420.093 675.6 422.6 673.093 422.6 670C422.6 666.907 420.093 664.4 417 664.4C413.907 664.4 411.4 666.907 411.4 670C411.4 673.093 413.907 675.6 417 675.6Z" fill="#07902A"/>
<path opacity="0.66" d="M223.8 614C226.893 614 229.4 611.493 229.4 608.4C229.4 605.307 226.893 602.8 223.8 602.8C220.707 602.8 218.2 605.307 218.2 608.4C218.2 611.493 220.707 614 223.8 614Z" fill="#07902A"/>
<path opacity="0.66" d="M125.8 434.8C128.893 434.8 131.4 432.293 131.4 429.2C131.4 426.107 128.893 423.6 125.8 423.6C122.707 423.6 120.2 426.107 120.2 429.2C120.2 432.293 122.707 434.8 125.8 434.8Z" fill="#07902A"/>
<path opacity="0.66" d="M177.6 237.4C180.693 237.4 183.2 234.893 183.2 231.8C183.2 228.707 180.693 226.2 177.6 226.2C174.507 226.2 172 228.707 172 231.8C172 234.893 174.507 237.4 177.6 237.4Z" fill="#07902A"/>
<path opacity="0.66" d="M352.6 129.6C355.693 129.6 358.2 127.093 358.2 124C358.2 120.907 355.693 118.4 352.6 118.4C349.507 118.4 347 120.907 347 124C347 127.093 349.507 129.6 352.6 129.6Z" fill="#07902A"/>
<path opacity="0.66" d="M554.2 171.6C557.293 171.6 559.8 169.093 559.8 166C559.8 162.907 557.293 160.4 554.2 160.4C551.107 160.4 548.6 162.907 548.6 166C548.6 169.093 551.107 171.6 554.2 171.6Z" fill="#07902A"/>
<path opacity="0.66" d="M671.8 342.4C674.893 342.4 677.4 339.893 677.4 336.8C677.4 333.707 674.893 331.2 671.8 331.2C668.707 331.2 666.2 333.707 666.2 336.8C666.2 339.893 668.707 342.4 671.8 342.4Z" fill="#07902A"/>
<path opacity="0.66" d="M639.6 546.8C642.693 546.8 645.2 544.293 645.2 541.2C645.2 538.107 642.693 535.6 639.6 535.6C636.507 535.6 634 538.107 634 541.2C634 544.293 636.507 546.8 639.6 546.8Z" fill="#07902A"/>
<path opacity="0.65" d="M474.4 674.2C477.493 674.2 480 671.693 480 668.6C480 665.507 477.493 663 474.4 663C471.307 663 468.8 665.507 468.8 668.6C468.8 671.693 471.307 674.2 474.4 674.2Z" fill="#07902A"/>
<path opacity="0.65" d="M265.8 651.8C268.893 651.8 271.4 649.293 271.4 646.2C271.4 643.107 268.893 640.6 265.8 640.6C262.707 640.6 260.2 643.107 260.2 646.2C260.2 649.293 262.707 651.8 265.8 651.8Z" fill="#07902A"/>
<path opacity="0.65" d="M130 492.2C133.093 492.2 135.6 489.693 135.6 486.6C135.6 483.507 133.093 481 130 481C126.907 481 124.4 483.507 124.4 486.6C124.4 489.693 126.907 492.2 130 492.2Z" fill="#07902A"/>
<path opacity="0.65" d="M141.2 281.5C144.68 281.5 147.5 278.679 147.5 275.2C147.5 271.721 144.68 268.9 141.2 268.9C137.721 268.9 134.9 271.721 134.9 275.2C134.9 278.679 137.721 281.5 141.2 281.5Z" fill="#07902A"/>
<path opacity="0.65" d="M295.2 137.3C298.68 137.3 301.5 134.479 301.5 131C301.5 127.521 298.68 124.7 295.2 124.7C291.721 124.7 288.9 127.521 288.9 131C288.9 134.479 291.721 137.3 295.2 137.3Z" fill="#07902A"/>
<path opacity="0.65" d="M508 137.3C511.48 137.3 514.3 134.479 514.3 131C514.3 127.521 511.48 124.7 508 124.7C504.521 124.7 501.7 127.521 501.7 131C501.7 134.479 504.521 137.3 508 137.3Z" fill="#07902A"/>
<path opacity="0.65" d="M662 285.7C665.48 285.7 668.3 282.879 668.3 279.4C668.3 275.92 665.48 273.1 662 273.1C658.521 273.1 655.7 275.92 655.7 279.4C655.7 282.879 658.521 285.7 662 285.7Z" fill="#07902A"/>
<path opacity="0.65" d="M671.8 498.5C675.28 498.5 678.1 495.679 678.1 492.2C678.1 488.721 675.28 485.9 671.8 485.9C668.321 485.9 665.5 488.721 665.5 492.2C665.5 495.679 668.321 498.5 671.8 498.5Z" fill="#07902A"/>
<path opacity="0.64" d="M530.4 660.9C533.879 660.9 536.7 658.079 536.7 654.6C536.7 651.12 533.879 648.3 530.4 648.3C526.921 648.3 524.1 651.12 524.1 654.6C524.1 658.079 526.921 660.9 530.4 660.9Z" fill="#07902A"/>
<path opacity="0.64" d="M316.2 681.9C319.68 681.9 322.5 679.079 322.5 675.6C322.5 672.12 319.68 669.3 316.2 669.3C312.721 669.3 309.9 672.12 309.9 675.6C309.9 679.079 312.721 681.9 316.2 681.9Z" fill="#07902A"/>
<path opacity="0.64" d="M145.4 548.9C148.879 548.9 151.7 546.079 151.7 542.6C151.7 539.12 148.879 536.3 145.4 536.3C141.921 536.3 139.1 539.12 139.1 542.6C139.1 546.079 141.921 548.9 145.4 548.9Z" fill="#07902A"/>
<path opacity="0.64" d="M113.2 334.7C116.68 334.7 119.5 331.879 119.5 328.4C119.5 324.92 116.68 322.1 113.2 322.1C109.721 322.1 106.9 324.92 106.9 328.4C106.9 331.879 109.721 334.7 113.2 334.7Z" fill="#07902A"/>
<path opacity="0.64" d="M239.2 156.9C242.68 156.9 245.5 154.079 245.5 150.6C245.5 147.12 242.68 144.3 239.2 144.3C235.721 144.3 232.9 147.12 232.9 150.6C232.9 154.079 235.721 156.9 239.2 156.9Z" fill="#07902A"/>
<path opacity="0.64" d="M453.4 113.5C456.879 113.5 459.7 110.679 459.7 107.2C459.7 103.721 456.879 100.9 453.4 100.9C449.921 100.9 447.1 103.721 447.1 107.2C447.1 110.679 449.921 113.5 453.4 113.5Z" fill="#07902A"/>
<path opacity="0.64" d="M639.6 229.7C643.079 229.7 645.9 226.879 645.9 223.4C645.9 219.92 643.079 217.1 639.6 217.1C636.121 217.1 633.3 219.92 633.3 223.4C633.3 226.879 636.121 229.7 639.6 229.7Z" fill="#07902A"/>
<path opacity="0.63" d="M694.2 443.9C697.68 443.9 700.5 441.079 700.5 437.6C700.5 434.12 697.68 431.3 694.2 431.3C690.721 431.3 687.9 434.12 687.9 437.6C687.9 441.079 690.721 443.9 694.2 443.9Z" fill="#07902A"/>
<path opacity="0.63" d="M585 635.7C588.48 635.7 591.3 632.879 591.3 629.4C591.3 625.92 588.48 623.1 585 623.1C581.521 623.1 578.7 625.92 578.7 629.4C578.7 632.879 581.521 635.7 585 635.7Z" fill="#07902A"/>
<path opacity="0.63" d="M373.6 701.5C377.079 701.5 379.9 698.679 379.9 695.2C379.9 691.721 377.079 688.9 373.6 688.9C370.121 688.9 367.3 691.721 367.3 695.2C367.3 698.679 370.121 701.5 373.6 701.5Z" fill="#07902A"/>
<path opacity="0.63" d="M173.4 603.5C176.879 603.5 179.7 600.679 179.7 597.2C179.7 593.721 176.879 590.9 173.4 590.9C169.921 590.9 167.1 593.721 167.1 597.2C167.1 600.679 169.921 603.5 173.4 603.5Z" fill="#07902A"/>
<path opacity="0.63" d="M97.8001 393.5C101.28 393.5 104.1 390.679 104.1 387.2C104.1 383.721 101.28 380.9 97.8001 380.9C94.3207 380.9 91.5001 383.721 91.5001 387.2C91.5001 390.679 94.3207 393.5 97.8001 393.5Z" fill="#07902A"/>
<path opacity="0.63" d="M186 187.7C189.479 187.7 192.3 184.879 192.3 181.4C192.3 177.92 189.479 175.1 186 175.1C182.521 175.1 179.7 177.92 179.7 181.4C179.7 184.879 182.521 187.7 186 187.7Z" fill="#07902A"/>
<path opacity="0.63" d="M393.2 99.4999C396.68 99.4999 399.5 96.6793 399.5 93.1999C399.5 89.7205 396.68 86.8999 393.2 86.8999C389.721 86.8999 386.9 89.7205 386.9 93.1999C386.9 96.6793 389.721 99.4999 393.2 99.4999Z" fill="#07902A"/>
<path opacity="0.63" d="M604.6 179.3C608.079 179.3 610.9 176.479 610.9 173C610.9 169.521 608.079 166.7 604.6 166.7C601.121 166.7 598.3 169.521 598.3 173C598.3 176.479 601.121 179.3 604.6 179.3Z" fill="#07902A"/>
<path opacity="0.62" d="M704 382.3C707.48 382.3 710.3 379.479 710.3 376C710.3 372.521 707.48 369.7 704 369.7C700.521 369.7 697.7 372.521 697.7 376C697.7 379.479 700.521 382.3 704 382.3Z" fill="#07902A"/>
<path opacity="0.62" d="M635.4 599.3C638.879 599.3 641.7 596.479 641.7 593C641.7 589.521 638.879 586.7 635.4 586.7C631.921 586.7 629.1 589.521 629.1 593C629.1 596.479 631.921 599.3 635.4 599.3Z" fill="#07902A"/>
<path opacity="0.62" d="M435.2 709.9C438.68 709.9 441.5 707.079 441.5 703.6C441.5 700.12 438.68 697.3 435.2 697.3C431.721 697.3 428.9 700.12 428.9 703.6C428.9 707.079 431.721 709.9 435.2 709.9Z" fill="#07902A"/>
<path opacity="0.62" d="M214 651.1C217.479 651.1 220.3 648.279 220.3 644.8C220.3 641.321 217.479 638.5 214 638.5C210.521 638.5 207.7 641.321 207.7 644.8C207.7 648.279 210.521 651.1 214 651.1Z" fill="#07902A"/>
<path opacity="0.62" d="M93.6 455.1C97.0794 455.1 99.9 452.279 99.9 448.8C99.9 445.321 97.0794 442.5 93.6 442.5C90.1207 442.5 87.3 445.321 87.3 448.8C87.3 452.279 90.1207 455.1 93.6 455.1Z" fill="#07902A"/>
<path opacity="0.62" d="M139.8 229.7C143.28 229.7 146.1 226.879 146.1 223.4C146.1 219.92 143.28 217.1 139.8 217.1C136.321 217.1 133.5 219.92 133.5 223.4C133.5 226.879 136.321 229.7 139.8 229.7Z" fill="#07902A"/>
<path opacity="0.62" d="M330.2 98.1C333.68 98.1 336.5 95.2794 336.5 91.8C336.5 88.3206 333.68 85.5 330.2 85.5C326.721 85.5 323.9 88.3206 323.9 91.8C323.9 95.2794 326.721 98.1 330.2 98.1Z" fill="#07902A"/>
<path opacity="0.61" d="M559.8 134.5C563.28 134.5 566.1 131.679 566.1 128.2C566.1 124.721 563.28 121.9 559.8 121.9C556.321 121.9 553.5 124.721 553.5 128.2C553.5 131.679 556.321 134.5 559.8 134.5Z" fill="#07902A"/>
<path opacity="0.61" d="M701.2 319.3C704.68 319.3 707.5 316.479 707.5 313C707.5 309.521 704.68 306.7 701.2 306.7C697.721 306.7 694.9 309.521 694.9 313C694.9 316.479 697.721 319.3 701.2 319.3Z" fill="#07902A"/>
<path opacity="0.61" d="M677.4 551.7C680.879 551.7 683.7 548.879 683.7 545.4C683.7 541.92 680.879 539.1 677.4 539.1C673.921 539.1 671.1 541.92 671.1 545.4C671.1 548.879 673.921 551.7 677.4 551.7Z" fill="#07902A"/>
<path opacity="0.61" d="M499.6 704.3C503.079 704.3 505.9 701.479 505.9 698C505.9 694.521 503.079 691.7 499.6 691.7C496.121 691.7 493.3 694.521 493.3 698C493.3 701.479 496.121 704.3 499.6 704.3Z" fill="#07902A"/>
<path opacity="0.61" d="M264.4 691.7C267.879 691.7 270.7 688.879 270.7 685.4C270.7 681.92 267.879 679.1 264.4 679.1C260.921 679.1 258.1 681.92 258.1 685.4C258.1 688.879 260.921 691.7 264.4 691.7Z" fill="#07902A"/>
<path opacity="0.61" d="M102 519.5C105.479 519.5 108.3 516.679 108.3 513.2C108.3 509.721 105.479 506.9 102 506.9C98.5207 506.9 95.7001 509.721 95.7001 513.2C95.7001 516.679 98.5207 519.5 102 519.5Z" fill="#07902A"/>
<path opacity="0.61" d="M102 282.9C105.479 282.9 108.3 280.079 108.3 276.6C108.3 273.12 105.479 270.3 102 270.3C98.5207 270.3 95.7001 273.12 95.7001 276.6C95.7001 280.079 98.5207 282.9 102 282.9Z" fill="#07902A"/>
<path opacity="0.61" d="M267.2 110.7C270.68 110.7 273.5 107.879 273.5 104.4C273.5 100.92 270.68 98.0999 267.2 98.0999C263.721 98.0999 260.9 100.92 260.9 104.4C260.9 107.879 263.721 110.7 267.2 110.7Z" fill="#07902A"/>
<path opacity="0.6" d="M505.2 100.2C509.066 100.2 512.2 97.0659 512.2 93.2C512.2 89.334 509.066 86.2 505.2 86.2C501.334 86.2 498.2 89.334 498.2 93.2C498.2 97.0659 501.334 100.2 505.2 100.2Z" fill="#07902A"/>
<path opacity="0.6" d="M685.8 257C689.666 257 692.8 253.866 692.8 250C692.8 246.134 689.666 243 685.8 243C681.934 243 678.8 246.134 678.8 250C678.8 253.866 681.934 257 685.8 257Z" fill="#07902A"/>
<path opacity="0.6" d="M709.6 495C713.466 495 716.6 491.866 716.6 488C716.6 484.134 713.466 481 709.6 481C705.734 481 702.6 484.134 702.6 488C702.6 491.866 705.734 495 709.6 495Z" fill="#07902A"/>
<path opacity="0.6" d="M561.2 685.4C565.066 685.4 568.2 682.266 568.2 678.4C568.2 674.534 565.066 671.4 561.2 671.4C557.334 671.4 554.2 674.534 554.2 678.4C554.2 682.266 557.334 685.4 561.2 685.4Z" fill="#07902A"/>
<path opacity="0.6" d="M323.2 721.8C327.066 721.8 330.2 718.666 330.2 714.8C330.2 710.934 327.066 707.8 323.2 707.8C319.334 707.8 316.2 710.934 316.2 714.8C316.2 718.666 319.334 721.8 323.2 721.8Z" fill="#07902A"/>
<path opacity="0.6" d="M124.4 581.8C128.266 581.8 131.4 578.666 131.4 574.8C131.4 570.934 128.266 567.8 124.4 567.8C120.534 567.8 117.4 570.934 117.4 574.8C117.4 578.666 120.534 581.8 124.4 581.8Z" fill="#07902A"/>
<path opacity="0.6" d="M75.4001 343.8C79.2661 343.8 82.4001 340.666 82.4001 336.8C82.4001 332.934 79.2661 329.8 75.4001 329.8C71.5342 329.8 68.4001 332.934 68.4001 336.8C68.4001 340.666 71.5342 343.8 75.4001 343.8Z" fill="#07902A"/>
<path opacity="0.59" d="M205.6 136.6C209.466 136.6 212.6 133.466 212.6 129.6C212.6 125.734 209.466 122.6 205.6 122.6C201.734 122.6 198.6 125.734 198.6 129.6C198.6 133.466 201.734 136.6 205.6 136.6Z" fill="#07902A"/>
<path opacity="0.59" d="M442.2 76.3999C446.066 76.3999 449.2 73.2659 449.2 69.3999C449.2 65.5339 446.066 62.3999 442.2 62.3999C438.334 62.3999 435.2 65.5339 435.2 69.3999C435.2 73.2659 438.334 76.3999 442.2 76.3999Z" fill="#07902A"/>
<path opacity="0.59" d="M656.4 195.4C660.266 195.4 663.4 192.266 663.4 188.4C663.4 184.534 660.266 181.4 656.4 181.4C652.534 181.4 649.4 184.534 649.4 188.4C649.4 192.266 652.534 195.4 656.4 195.4Z" fill="#07902A"/>
<path opacity="0.59" d="M730.6 430.6C734.466 430.6 737.6 427.466 737.6 423.6C737.6 419.734 734.466 416.6 730.6 416.6C726.734 416.6 723.6 419.734 723.6 423.6C723.6 427.466 726.734 430.6 730.6 430.6Z" fill="#07902A"/>
<path opacity="0.59" d="M621.4 653.2C625.266 653.2 628.4 650.066 628.4 646.2C628.4 642.334 625.266 639.2 621.4 639.2C617.534 639.2 614.4 642.334 614.4 646.2C614.4 650.066 617.534 653.2 621.4 653.2Z" fill="#07902A"/>
<path opacity="0.59" d="M389 738.6C392.866 738.6 396 735.466 396 731.6C396 727.734 392.866 724.6 389 724.6C385.134 724.6 382 727.734 382 731.6C382 735.466 385.134 738.6 389 738.6Z" fill="#07902A"/>
<path opacity="0.59" d="M159.4 640.6C163.266 640.6 166.4 637.466 166.4 633.6C166.4 629.734 163.266 626.6 159.4 626.6C155.534 626.6 152.4 629.734 152.4 633.6C152.4 637.466 155.534 640.6 159.4 640.6Z" fill="#07902A"/>
<path opacity="0.59" d="M61.4001 411C65.2661 411 68.4001 407.866 68.4001 404C68.4001 400.134 65.2661 397 61.4001 397C57.5342 397 54.4001 400.134 54.4001 404C54.4001 407.866 57.5342 411 61.4001 411Z" fill="#07902A"/>
<path opacity="0.58" d="M149.6 175.8C153.466 175.8 156.6 172.666 156.6 168.8C156.6 164.934 153.466 161.8 149.6 161.8C145.734 161.8 142.6 164.934 142.6 168.8C142.6 172.666 145.734 175.8 149.6 175.8Z" fill="#07902A"/>
<path opacity="0.58" d="M375 65.2C378.866 65.2 382 62.0659 382 58.2C382 54.334 378.866 51.2 375 51.2C371.134 51.2 368 54.334 368 58.2C368 62.0659 371.134 65.2 375 65.2Z" fill="#07902A"/>
<path opacity="0.58" d="M615.8 142.2C619.666 142.2 622.8 139.066 622.8 135.2C622.8 131.334 619.666 128.2 615.8 128.2C611.934 128.2 608.8 131.334 608.8 135.2C608.8 139.066 611.934 142.2 615.8 142.2Z" fill="#07902A"/>
<path opacity="0.58" d="M737.6 363.4C741.466 363.4 744.6 360.266 744.6 356.4C744.6 352.534 741.466 349.4 737.6 349.4C733.734 349.4 730.6 352.534 730.6 356.4C730.6 360.266 733.734 363.4 737.6 363.4Z" fill="#07902A"/>
<path opacity="0.58" d="M673.2 608.4C677.066 608.4 680.2 605.266 680.2 601.4C680.2 597.534 677.066 594.4 673.2 594.4C669.334 594.4 666.2 597.534 666.2 601.4C666.2 605.266 669.334 608.4 673.2 608.4Z" fill="#07902A"/>
<path opacity="0.58" d="M457.6 742.8C461.466 742.8 464.6 739.666 464.6 735.8C464.6 731.934 461.466 728.8 457.6 728.8C453.734 728.8 450.6 731.934 450.6 735.8C450.6 739.666 453.734 742.8 457.6 742.8Z" fill="#07902A"/>
<path opacity="0.58" d="M208.4 691C212.266 691 215.4 687.866 215.4 684C215.4 680.134 212.266 677 208.4 677C204.534 677 201.4 680.134 201.4 684C201.4 687.866 204.534 691 208.4 691Z" fill="#07902A"/>
<path opacity="0.57" d="M61.4001 479.6C65.2661 479.6 68.4001 476.466 68.4001 472.6C68.4001 468.734 65.2661 465.6 61.4001 465.6C57.5342 465.6 54.4001 468.734 54.4001 472.6C54.4001 476.466 57.5342 479.6 61.4001 479.6Z" fill="#07902A"/>
<path opacity="0.57" d="M100.6 226.2C104.466 226.2 107.6 223.066 107.6 219.2C107.6 215.334 104.466 212.2 100.6 212.2C96.7341 212.2 93.6001 215.334 93.6001 219.2C93.6001 223.066 96.7341 226.2 100.6 226.2Z" fill="#07902A"/>
<path opacity="0.57" d="M305 69.3999C308.866 69.3999 312 66.2659 312 62.3999C312 58.5339 308.866 55.3999 305 55.3999C301.134 55.3999 298 58.5339 298 62.3999C298 66.2659 301.134 69.3999 305 69.3999Z" fill="#07902A"/>
<path opacity="0.57" d="M561.2 96C565.066 96 568.2 92.866 568.2 89C568.2 85.134 565.066 82 561.2 82C557.334 82 554.2 85.134 554.2 89C554.2 92.866 557.334 96 561.2 96Z" fill="#07902A"/>
<path opacity="0.57" d="M730.6 292C734.466 292 737.6 288.866 737.6 285C737.6 281.134 734.466 278 730.6 278C726.734 278 723.6 281.134 723.6 285C723.6 288.866 726.734 292 730.6 292Z" fill="#07902A"/>
<path opacity="0.57" d="M716.6 552.4C720.466 552.4 723.6 549.266 723.6 545.4C723.6 541.534 720.466 538.4 716.6 538.4C712.734 538.4 709.6 541.534 709.6 545.4C709.6 549.266 712.734 552.4 716.6 552.4Z" fill="#07902A"/>
<path opacity="0.57" d="M527.6 731.6C531.466 731.6 534.6 728.466 534.6 724.6C534.6 720.734 531.466 717.6 527.6 717.6C523.734 717.6 520.6 720.734 520.6 724.6C520.6 728.466 523.734 731.6 527.6 731.6Z" fill="#07902A"/>
<path opacity="0.57" d="M265.8 731.6C269.666 731.6 272.8 728.466 272.8 724.6C272.8 720.734 269.666 717.6 265.8 717.6C261.934 717.6 258.8 720.734 258.8 724.6C258.8 728.466 261.934 731.6 265.8 731.6Z" fill="#07902A"/>
<path opacity="0.56" d="M76.8 549.6C80.666 549.6 83.8 546.466 83.8 542.6C83.8 538.734 80.666 535.6 76.8 535.6C72.9341 535.6 69.8 538.734 69.8 542.6C69.8 546.466 72.9341 549.6 76.8 549.6Z" fill="#07902A"/>
<path opacity="0.56" d="M64.2001 287.8C68.0661 287.8 71.2001 284.666 71.2001 280.8C71.2001 276.934 68.0661 273.8 64.2001 273.8C60.3341 273.8 57.2001 276.934 57.2001 280.8C57.2001 284.666 60.3341 287.8 64.2001 287.8Z" fill="#07902A"/>
<path opacity="0.56" d="M235 87.5999C238.866 87.5999 242 84.4658 242 80.5999C242 76.7339 238.866 73.5999 235 73.5999C231.134 73.5999 228 76.7339 228 80.5999C228 84.4658 231.134 87.5999 235 87.5999Z" fill="#07902A"/>
<path opacity="0.56" d="M498.2 61C502.066 61 505.2 57.866 505.2 54C505.2 50.134 502.066 47 498.2 47C494.334 47 491.2 50.134 491.2 54C491.2 57.866 494.334 61 498.2 61Z" fill="#07902A"/>
<path opacity="0.56" d="M708.2 224.1C712.453 224.1 715.9 220.653 715.9 216.4C715.9 212.147 712.453 208.7 708.2 208.7C703.948 208.7 700.5 212.147 700.5 216.4C700.5 220.653 703.948 224.1 708.2 224.1Z" fill="#07902A"/>
<path opacity="0.56" d="M748.8 487.3C753.053 487.3 756.5 483.852 756.5 479.6C756.5 475.347 753.053 471.9 748.8 471.9C744.548 471.9 741.1 475.347 741.1 479.6C741.1 483.852 744.548 487.3 748.8 487.3Z" fill="#07902A"/>
<path opacity="0.56" d="M596.2 705.7C600.453 705.7 603.9 702.252 603.9 698C603.9 693.747 600.453 690.3 596.2 690.3C591.948 690.3 588.5 693.747 588.5 698C588.5 702.252 591.948 705.7 596.2 705.7Z" fill="#07902A"/>
<path opacity="0.55" d="M333 760.3C337.253 760.3 340.7 756.852 340.7 752.6C340.7 748.347 337.253 744.9 333 744.9C328.747 744.9 325.3 748.347 325.3 752.6C325.3 756.852 328.747 760.3 333 760.3Z" fill="#07902A"/>
<path opacity="0.55" d="M106.2 617.5C110.453 617.5 113.9 614.052 113.9 609.8C113.9 605.547 110.453 602.1 106.2 602.1C101.948 602.1 98.5001 605.547 98.5001 609.8C98.5001 614.052 101.948 617.5 106.2 617.5Z" fill="#07902A"/>
<path opacity="0.55" d="M39.0001 357.1C43.2527 357.1 46.7001 353.653 46.7001 349.4C46.7001 345.147 43.2527 341.7 39.0001 341.7C34.7475 341.7 31.3001 345.147 31.3001 349.4C31.3001 353.653 34.7475 357.1 39.0001 357.1Z" fill="#07902A"/>
<path opacity="0.55" d="M169.2 121.9C173.453 121.9 176.9 118.453 176.9 114.2C176.9 109.947 173.453 106.5 169.2 106.5C164.948 106.5 161.5 109.947 161.5 114.2C161.5 118.453 164.948 121.9 169.2 121.9Z" fill="#07902A"/>
<path opacity="0.55" d="M428.2 40.6998C432.453 40.6998 435.9 37.2524 435.9 32.9998C435.9 28.7472 432.453 25.2998 428.2 25.2998C423.948 25.2998 420.5 28.7472 420.5 32.9998C420.5 37.2524 423.948 40.6998 428.2 40.6998Z" fill="#07902A"/>
<path opacity="0.55" d="M671.8 159.7C676.053 159.7 679.5 156.252 679.5 152C679.5 147.747 676.053 144.3 671.8 144.3C667.548 144.3 664.1 147.747 664.1 152C664.1 156.252 667.548 159.7 671.8 159.7Z" fill="#07902A"/>
<path opacity="0.55" d="M767 415.9C771.253 415.9 774.7 412.453 774.7 408.2C774.7 403.947 771.253 400.5 767 400.5C762.747 400.5 759.3 403.947 759.3 408.2C759.3 412.453 762.747 415.9 767 415.9Z" fill="#07902A"/>
<path opacity="0.54" d="M659.2 666.5C663.453 666.5 666.9 663.052 666.9 658.8C666.9 654.547 663.453 651.1 659.2 651.1C654.948 651.1 651.5 654.547 651.5 658.8C651.5 663.052 654.948 666.5 659.2 666.5Z" fill="#07902A"/>
<path opacity="0.54" d="M407.2 774.3C411.453 774.3 414.9 770.852 414.9 766.6C414.9 762.347 411.453 758.9 407.2 758.9C402.948 758.9 399.5 762.347 399.5 766.6C399.5 770.852 402.948 774.3 407.2 774.3Z" fill="#07902A"/>
<path opacity="0.54" d="M149.6 679.1C153.853 679.1 157.3 675.653 157.3 671.4C157.3 667.147 153.853 663.7 149.6 663.7C145.348 663.7 141.9 667.147 141.9 671.4C141.9 675.653 145.348 679.1 149.6 679.1Z" fill="#07902A"/>
<path opacity="0.54" d="M27.8001 431.3C32.0527 431.3 35.5001 427.852 35.5001 423.6C35.5001 419.347 32.0527 415.9 27.8001 415.9C23.5475 415.9 20.1001 419.347 20.1001 423.6C20.1001 427.852 23.5475 431.3 27.8001 431.3Z" fill="#07902A"/>
<path opacity="0.54" d="M110.4 168.1C114.653 168.1 118.1 164.653 118.1 160.4C118.1 156.147 114.653 152.7 110.4 152.7C106.147 152.7 102.7 156.147 102.7 160.4C102.7 164.653 106.147 168.1 110.4 168.1Z" fill="#07902A"/>
<path opacity="0.54" d="M352.6 33.6998C356.853 33.6998 360.3 30.2524 360.3 25.9998C360.3 21.7472 356.853 18.2998 352.6 18.2998C348.348 18.2998 344.9 21.7472 344.9 25.9998C344.9 30.2524 348.348 33.6998 352.6 33.6998Z" fill="#07902A"/>
<path opacity="0.54" d="M621.4 103.7C625.653 103.7 629.1 100.252 629.1 95.9998C629.1 91.7472 625.653 88.2998 621.4 88.2998C617.148 88.2998 613.7 91.7472 613.7 95.9998C613.7 100.252 617.148 103.7 621.4 103.7Z" fill="#07902A"/>
<path opacity="0.54" d="M769.8 340.3C774.053 340.3 777.5 336.852 777.5 332.6C777.5 328.347 774.053 324.9 769.8 324.9C765.548 324.9 762.1 328.347 762.1 332.6C762.1 336.852 765.548 340.3 769.8 340.3Z" fill="#07902A"/>
<path opacity="0.53" d="M712.4 613.3C716.653 613.3 720.1 609.852 720.1 605.6C720.1 601.347 716.653 597.9 712.4 597.9C708.148 597.9 704.7 601.347 704.7 605.6C704.7 609.852 708.148 613.3 712.4 613.3Z" fill="#07902A"/>
<path opacity="0.53" d="M482.8 772.9C487.053 772.9 490.5 769.453 490.5 765.2C490.5 760.947 487.053 757.5 482.8 757.5C478.548 757.5 475.1 760.947 475.1 765.2C475.1 769.453 478.548 772.9 482.8 772.9Z" fill="#07902A"/>
<path opacity="0.53" d="M205.6 730.9C209.853 730.9 213.3 727.453 213.3 723.2C213.3 718.947 209.853 715.5 205.6 715.5C201.348 715.5 197.9 718.947 197.9 723.2C197.9 727.453 201.348 730.9 205.6 730.9Z" fill="#07902A"/>
<path opacity="0.53" d="M32.0001 508.3C36.2527 508.3 39.7001 504.852 39.7001 500.6C39.7001 496.347 36.2527 492.9 32.0001 492.9C27.7475 492.9 24.3001 496.347 24.3001 500.6C24.3001 504.852 27.7475 508.3 32.0001 508.3Z" fill="#07902A"/>
<path opacity="0.53" d="M61.4001 226.9C65.6527 226.9 69.1001 223.453 69.1001 219.2C69.1001 214.947 65.6527 211.5 61.4001 211.5C57.1475 211.5 53.7001 214.947 53.7001 219.2C53.7001 223.453 57.1475 226.9 61.4001 226.9Z" fill="#07902A"/>
<path opacity="0.53" d="M275.6 42.1C279.853 42.1 283.3 38.6525 283.3 34.4C283.3 30.1474 279.853 26.7 275.6 26.7C271.348 26.7 267.9 30.1474 267.9 34.4C267.9 38.6525 271.348 42.1 275.6 42.1Z" fill="#07902A"/>
<path opacity="0.53" d="M559.8 56.1C564.053 56.1 567.5 52.6525 567.5 48.4C567.5 44.1474 564.053 40.7 559.8 40.7C555.548 40.7 552.1 44.1474 552.1 48.4C552.1 52.6525 555.548 56.1 559.8 56.1Z" fill="#07902A"/>
<path opacity="0.52" d="M757.2 263.3C761.453 263.3 764.9 259.852 764.9 255.6C764.9 251.347 761.453 247.9 757.2 247.9C752.948 247.9 749.5 251.347 749.5 255.6C749.5 259.852 752.948 263.3 757.2 263.3Z" fill="#07902A"/>
<path opacity="0.52" d="M757.2 548.9C761.453 548.9 764.9 545.453 764.9 541.2C764.9 536.947 761.453 533.5 757.2 533.5C752.948 533.5 749.5 536.947 749.5 541.2C749.5 545.453 752.948 548.9 757.2 548.9Z" fill="#07902A"/>
<path opacity="0.52" d="M559.8 756.1C564.053 756.1 567.5 752.653 567.5 748.4C567.5 744.147 564.053 740.7 559.8 740.7C555.548 740.7 552.1 744.147 552.1 748.4C552.1 752.653 555.548 756.1 559.8 756.1Z" fill="#07902A"/>
<path opacity="0.52" d="M272.8 771.5C277.053 771.5 280.5 768.052 280.5 763.8C280.5 759.547 277.053 756.1 272.8 756.1C268.548 756.1 265.1 759.547 265.1 763.8C265.1 768.052 268.548 771.5 272.8 771.5Z" fill="#07902A"/>
<path opacity="0.52" d="M53 583.9C57.2526 583.9 60.7 580.453 60.7 576.2C60.7 571.947 57.2526 568.5 53 568.5C48.7475 568.5 45.3 571.947 45.3 576.2C45.3 580.453 48.7475 583.9 53 583.9Z" fill="#07902A"/>
<path opacity="0.52" d="M23.6001 296.9C27.8527 296.9 31.3001 293.453 31.3001 289.2C31.3001 284.947 27.8527 281.5 23.6001 281.5C19.3475 281.5 15.9001 284.947 15.9001 289.2C15.9001 293.453 19.3475 296.9 23.6001 296.9Z" fill="#07902A"/>
<path opacity="0.52" d="M201.4 67.2999C205.653 67.2999 209.1 63.8525 209.1 59.5999C209.1 55.3473 205.653 51.8999 201.4 51.8999C197.147 51.8999 193.7 55.3473 193.7 59.5999C193.7 63.8525 197.147 67.2999 201.4 67.2999Z" fill="#07902A"/>
<path opacity="0.52" d="M488.4 22.4999C492.653 22.4999 496.1 19.0524 496.1 14.7999C496.1 10.5473 492.653 7.09985 488.4 7.09985C484.148 7.09985 480.7 10.5473 480.7 14.7999C480.7 19.0524 484.148 22.4999 488.4 22.4999Z" fill="#07902A"/>
<path opacity="0.51" d="M727.8 189.1C732.053 189.1 735.5 185.653 735.5 181.4C735.5 177.147 732.053 173.7 727.8 173.7C723.548 173.7 720.1 177.147 720.1 181.4C720.1 185.653 723.548 189.1 727.8 189.1Z" fill="#07902A"/>
<path opacity="0.51" d="M786.6 475.4C791.239 475.4 795 471.639 795 467C795 462.361 791.239 458.6 786.6 458.6C781.961 458.6 778.2 462.361 778.2 467C778.2 471.639 781.961 475.4 786.6 475.4Z" fill="#07902A"/>
<path opacity="0.51" d="M632.6 724.6C637.239 724.6 641 720.839 641 716.2C641 711.561 637.239 707.8 632.6 707.8C627.961 707.8 624.2 711.561 624.2 716.2C624.2 720.839 627.961 724.6 632.6 724.6Z" fill="#07902A"/>
<path opacity="0.51" d="M348.4 798.8C353.039 798.8 356.8 795.039 356.8 790.4C356.8 785.761 353.039 782 348.4 782C343.761 782 340 785.761 340 790.4C340 795.039 343.761 798.8 348.4 798.8Z" fill="#07902A"/>
<path opacity="0.51" d="M90.8001 656C95.4393 656 99.2001 652.239 99.2001 647.6C99.2001 642.961 95.4393 639.2 90.8001 639.2C86.161 639.2 82.4001 642.961 82.4001 647.6C82.4001 652.239 86.161 656 90.8001 656Z" fill="#07902A"/>
<path opacity="0.51" d="M1.20011 374.6C5.8393 374.6 9.60011 370.839 9.60011 366.2C9.60011 361.561 5.8393 357.8 1.20011 357.8C-3.43908 357.8 -7.19989 361.561 -7.19989 366.2C-7.19989 370.839 -3.43908 374.6 1.20011 374.6Z" fill="#07902A"/>
<path opacity="0.51" d="M131.4 108.6C136.039 108.6 139.8 104.839 139.8 100.2C139.8 95.5606 136.039 91.7998 131.4 91.7998C126.761 91.7998 123 95.5606 123 100.2C123 104.839 126.761 108.6 131.4 108.6Z" fill="#07902A"/>
<path opacity="0.5" d="M410 4.99995C414.639 4.99995 418.4 1.23914 418.4 -3.40005C418.4 -8.03924 414.639 -11.8 410 -11.8C405.361 -11.8 401.6 -8.03924 401.6 -3.40005C401.6 1.23914 405.361 4.99995 410 4.99995Z" fill="#07902A"/>
<path opacity="0.5" d="M683 122.6C687.639 122.6 691.4 118.839 691.4 114.2C691.4 109.561 687.639 105.8 683 105.8C678.361 105.8 674.6 109.561 674.6 114.2C674.6 118.839 678.361 122.6 683 122.6Z" fill="#07902A"/>
<path opacity="0.5" d="M802 395.6C806.639 395.6 810.4 391.839 810.4 387.2C810.4 382.561 806.639 378.8 802 378.8C797.361 378.8 793.6 382.561 793.6 387.2C793.6 391.839 797.361 395.6 802 395.6Z" fill="#07902A"/>
<path opacity="0.5" d="M698.4 677C703.039 677 706.8 673.239 706.8 668.6C706.8 663.961 703.039 660.2 698.4 660.2C693.761 660.2 690 663.961 690 668.6C690 673.239 693.761 677 698.4 677Z" fill="#07902A"/>
<path opacity="0.5" d="M428.2 808.6C432.839 808.6 436.6 804.839 436.6 800.2C436.6 795.561 432.839 791.8 428.2 791.8C423.561 791.8 419.8 795.561 419.8 800.2C419.8 804.839 423.561 808.6 428.2 808.6Z" fill="#07902A"/>
<path opacity="0.5" d="M141.2 719C145.839 719 149.6 715.239 149.6 710.6C149.6 705.961 145.839 702.2 141.2 702.2C136.561 702.2 132.8 705.961 132.8 710.6C132.8 715.239 136.561 719 141.2 719Z" fill="#07902A"/>
<path opacity="0.5" d="M-4.39993 455.8C0.239265 455.8 4.00007 452.039 4.00007 447.4C4.00007 442.761 0.239265 439 -4.39993 439C-9.03912 439 -12.7999 442.761 -12.7999 447.4C-12.7999 452.039 -9.03912 455.8 -4.39993 455.8Z" fill="#07902A"/>
<path opacity="0.5" d="M69.8001 163.2C74.4393 163.2 78.2001 159.439 78.2001 154.8C78.2001 150.161 74.4393 146.4 69.8001 146.4C65.161 146.4 61.4001 150.161 61.4001 154.8C61.4001 159.439 65.161 163.2 69.8001 163.2Z" fill="#07902A"/>
<path opacity="0.49" d="M327.4 2.1999C332.039 2.1999 335.8 -1.56091 335.8 -6.2001C335.8 -10.8393 332.039 -14.6001 327.4 -14.6001C322.761 -14.6001 319 -10.8393 319 -6.2001C319 -1.56091 322.761 2.1999 327.4 2.1999Z" fill="#07902A"/>
<path opacity="0.49" d="M625.6 63.8C630.239 63.8 634 60.0392 634 55.4C634 50.7608 630.239 47 625.6 47C620.961 47 617.2 50.7608 617.2 55.4C617.2 60.0392 620.961 63.8 625.6 63.8Z" fill="#07902A"/>
<path opacity="0.49" d="M799.2 313C803.839 313 807.6 309.239 807.6 304.6C807.6 299.961 803.839 296.2 799.2 296.2C794.561 296.2 790.8 299.961 790.8 304.6C790.8 309.239 794.561 313 799.2 313Z" fill="#07902A"/>
<path opacity="0.49" d="M754.4 615.4C759.039 615.4 762.8 611.639 762.8 607C762.8 602.361 759.039 598.6 754.4 598.6C749.761 598.6 746 602.361 746 607C746 611.639 749.761 615.4 754.4 615.4Z" fill="#07902A"/>
<path opacity="0.49" d="M512.2 803C516.839 803 520.6 799.239 520.6 794.6C520.6 789.961 516.839 786.2 512.2 786.2C507.561 786.2 503.8 789.961 503.8 794.6C503.8 799.239 507.561 803 512.2 803Z" fill="#07902A"/>
<path opacity="0.49" d="M207 772.2C211.639 772.2 215.4 768.439 215.4 763.8C215.4 759.161 211.639 755.4 207 755.4C202.361 755.4 198.6 759.161 198.6 763.8C198.6 768.439 202.361 772.2 207 772.2Z" fill="#07902A"/>
<path opacity="0.49" d="M5.40012 539.8C10.0393 539.8 13.8001 536.039 13.8001 531.4C13.8001 526.761 10.0393 523 5.40012 523C0.76093 523 -2.99988 526.761 -2.99988 531.4C-2.99988 536.039 0.76093 539.8 5.40012 539.8Z" fill="#07902A"/>
<path opacity="0.48" d="M20.8001 230.4C25.4393 230.4 29.2001 226.639 29.2001 222C29.2001 217.361 25.4393 213.6 20.8001 213.6C16.1609 213.6 12.4001 217.361 12.4001 222C12.4001 226.639 16.1609 230.4 20.8001 230.4Z" fill="#07902A"/>
<path opacity="0.48" d="M244.8 17.5998C249.439 17.5998 253.2 13.839 253.2 9.1998C253.2 4.56061 249.439 0.799805 244.8 0.799805C240.161 0.799805 236.4 4.56061 236.4 9.1998C236.4 13.839 240.161 17.5998 244.8 17.5998Z" fill="#07902A"/>
<path opacity="0.48" d="M554.2 16.1999C558.839 16.1999 562.6 12.4391 562.6 7.7999C562.6 3.16071 558.839 -0.600098 554.2 -0.600098C549.561 -0.600098 545.8 3.16071 545.8 7.7999C545.8 12.4391 549.561 16.1999 554.2 16.1999Z" fill="#07902A"/>
<path opacity="0.48" d="M781 230.4C785.639 230.4 789.4 226.639 789.4 222C789.4 217.361 785.639 213.6 781 213.6C776.361 213.6 772.6 217.361 772.6 222C772.6 226.639 776.361 230.4 781 230.4Z" fill="#07902A"/>
<path opacity="0.48" d="M796.4 542.6C801.039 542.6 804.8 538.839 804.8 534.2C804.8 529.561 801.039 525.8 796.4 525.8C791.761 525.8 788 529.561 788 534.2C788 538.839 791.761 542.6 796.4 542.6Z" fill="#07902A"/>
<path opacity="0.48" d="M593.4 779.2C598.039 779.2 601.8 775.439 601.8 770.8C601.8 766.161 598.039 762.4 593.4 762.4C588.761 762.4 585 766.161 585 770.8C585 775.439 588.761 779.2 593.4 779.2Z" fill="#07902A"/>
<path opacity="0.48" d="M282.6 811.4C287.239 811.4 291 807.639 291 803C291 798.361 287.239 794.6 282.6 794.6C277.961 794.6 274.2 798.361 274.2 803C274.2 807.639 277.961 811.4 282.6 811.4Z" fill="#07902A"/>
<path opacity="0.48" d="M33.4001 619.6C38.0393 619.6 41.8001 615.839 41.8001 611.2C41.8001 606.561 38.0393 602.8 33.4001 602.8C28.7609 602.8 25.0001 606.561 25.0001 611.2C25.0001 615.839 28.7609 619.6 33.4001 619.6Z" fill="#07902A"/>
<path opacity="0.47" d="M165 49.8C169.639 49.8 173.4 46.0392 173.4 41.4C173.4 36.7608 169.639 33 165 33C160.361 33 156.6 36.7608 156.6 41.4C156.6 46.0392 160.361 49.8 165 49.8Z" fill="#07902A"/>
<path opacity="0.47" d="M744.6 152C749.239 152 753 148.239 753 143.6C753 138.961 749.239 135.2 744.6 135.2C739.961 135.2 736.2 138.961 736.2 143.6C736.2 148.239 739.961 152 744.6 152Z" fill="#07902A"/>
<path opacity="0.47" d="M670.4 738.6C675.039 738.6 678.8 734.839 678.8 730.2C678.8 725.561 675.039 721.8 670.4 721.8C665.761 721.8 662 725.561 662 730.2C662 734.839 665.761 738.6 670.4 738.6Z" fill="#07902A"/>
<path opacity="0.46" d="M78.2001 695.9C83.2259 695.9 87.3001 691.826 87.3001 686.8C87.3001 681.774 83.2259 677.7 78.2001 677.7C73.1743 677.7 69.1001 681.774 69.1001 686.8C69.1001 691.826 73.1743 695.9 78.2001 695.9Z" fill="#07902A"/>
<path opacity="0.46" d="M90.8001 98.0999C95.8259 98.0999 99.9001 94.0257 99.9001 88.9999C99.9001 83.9741 95.8259 79.8999 90.8001 79.8999C85.7743 79.8999 81.7001 83.9741 81.7001 88.9999C81.7001 94.0257 85.7743 98.0999 90.8001 98.0999Z" fill="#07902A"/>
<path opacity="0.46" d="M691.4 81.2999C696.426 81.2999 700.5 77.2256 700.5 72.1999C700.5 67.1741 696.426 63.0999 691.4 63.0999C686.374 63.0999 682.3 67.1741 682.3 72.1999C682.3 77.2256 686.374 81.2999 691.4 81.2999Z" fill="#07902A"/>
<path opacity="0.46" d="M739 683.3C744.026 683.3 748.1 679.226 748.1 674.2C748.1 669.174 744.026 665.1 739 665.1C733.974 665.1 729.9 669.174 729.9 674.2C729.9 679.226 733.974 683.3 739 683.3Z" fill="#07902A"/>
<path opacity="0.45" d="M138.4 761.7C143.426 761.7 147.5 757.626 147.5 752.6C147.5 747.574 143.426 743.5 138.4 743.5C133.374 743.5 129.3 747.574 129.3 752.6C129.3 757.626 133.374 761.7 138.4 761.7Z" fill="#07902A"/>
<path opacity="0.45" d="M29.2001 162.5C34.2259 162.5 38.3001 158.426 38.3001 153.4C38.3001 148.374 34.2259 144.3 29.2001 144.3C24.1743 144.3 20.1001 148.374 20.1001 153.4C20.1001 158.426 24.1743 162.5 29.2001 162.5Z" fill="#07902A"/>
<path opacity="0.45" d="M624.2 22.4998C629.226 22.4998 633.3 18.4256 633.3 13.3998C633.3 8.37401 629.226 4.2998 624.2 4.2998C619.174 4.2998 615.1 8.37401 615.1 13.3998C615.1 18.4256 619.174 22.4998 624.2 22.4998Z" fill="#07902A"/>
<path opacity="0.45" d="M795 613.3C800.026 613.3 804.1 609.226 804.1 604.2C804.1 599.174 800.026 595.1 795 595.1C789.974 595.1 785.9 599.174 785.9 604.2C785.9 609.226 789.974 613.3 795 613.3Z" fill="#07902A"/>
<path opacity="0.44" d="M211.2 814.9C216.226 814.9 220.3 810.826 220.3 805.8C220.3 800.774 216.226 796.7 211.2 796.7C206.174 796.7 202.1 800.774 202.1 805.8C202.1 810.826 206.174 814.9 211.2 814.9Z" fill="#07902A"/>
<path opacity="0.44" d="M802 194.7C807.026 194.7 811.1 190.626 811.1 185.6C811.1 180.574 807.026 176.5 802 176.5C796.974 176.5 792.9 180.574 792.9 185.6C792.9 190.626 796.974 194.7 802 194.7Z" fill="#07902A"/>
<path opacity="0.43" d="M631.2 799.5C636.226 799.5 640.3 795.426 640.3 790.4C640.3 785.374 636.226 781.3 631.2 781.3C626.174 781.3 622.1 785.374 622.1 790.4C622.1 795.426 626.174 799.5 631.2 799.5Z" fill="#07902A"/>
<path opacity="0.43" d="M15.2001 659.5C20.2259 659.5 24.3001 655.426 24.3001 650.4C24.3001 645.374 20.2259 641.3 15.2001 641.3C10.1743 641.3 6.1001 645.374 6.1001 650.4C6.1001 655.426 10.1743 659.5 15.2001 659.5Z" fill="#07902A"/>
<path opacity="0.43" d="M125.8 35.0999C130.826 35.0999 134.9 31.0257 134.9 25.9999C134.9 20.9741 130.826 16.8999 125.8 16.8999C120.774 16.8999 116.7 20.9741 116.7 25.9999C116.7 31.0257 120.774 35.0999 125.8 35.0999Z" fill="#07902A"/>
<path opacity="0.43" d="M757.2 112.1C762.226 112.1 766.3 108.026 766.3 103C766.3 97.9741 762.226 93.8999 757.2 93.8999C752.174 93.8999 748.1 97.9741 748.1 103C748.1 108.026 752.174 112.1 757.2 112.1Z" fill="#07902A"/>
<path opacity="0.42" d="M711 750.5C716.026 750.5 720.1 746.426 720.1 741.4C720.1 736.374 716.026 732.3 711 732.3C705.974 732.3 701.9 736.374 701.9 741.4C701.9 746.426 705.974 750.5 711 750.5Z" fill="#07902A"/>
<path opacity="0.42" d="M68.4001 738.6C73.8125 738.6 78.2001 734.212 78.2001 728.8C78.2001 723.388 73.8125 719 68.4001 719C62.9877 719 58.6001 723.388 58.6001 728.8C58.6001 734.212 62.9877 738.6 68.4001 738.6Z" fill="#07902A"/>
<path opacity="0.42" d="M50.2001 93.1999C55.6125 93.1999 60.0001 88.8122 60.0001 83.3999C60.0001 77.9875 55.6125 73.5999 50.2001 73.5999C44.7877 73.5999 40.4001 77.9875 40.4001 83.3999C40.4001 88.8122 44.7877 93.1999 50.2001 93.1999Z" fill="#07902A"/>
<path opacity="0.42" d="M695.6 39.9999C701.012 39.9999 705.4 35.6123 705.4 30.1999C705.4 24.7875 701.012 20.3999 695.6 20.3999C690.188 20.3999 685.8 24.7875 685.8 30.1999C685.8 35.6123 690.188 39.9999 695.6 39.9999Z" fill="#07902A"/>
<path opacity="0.41" d="M781 686.8C786.412 686.8 790.8 682.412 790.8 677C790.8 671.588 786.412 667.2 781 667.2C775.588 667.2 771.2 671.588 771.2 677C771.2 682.412 775.588 686.8 781 686.8Z" fill="#07902A"/>
<path opacity="0.41" d="M137 804.4C142.412 804.4 146.8 800.012 146.8 794.6C146.8 789.187 142.412 784.8 137 784.8C131.588 784.8 127.2 789.187 127.2 794.6C127.2 800.012 131.588 804.4 137 804.4Z" fill="#07902A"/>
<path opacity="0.39" d="M670.4 817C675.812 817 680.2 812.612 680.2 807.2C680.2 801.788 675.812 797.4 670.4 797.4C664.988 797.4 660.6 801.788 660.6 807.2C660.6 812.612 664.988 817 670.4 817Z" fill="#07902A"/>
<path opacity="0.39" d="M1.20009 700.8C6.61248 700.8 11.0001 696.412 11.0001 691C11.0001 685.588 6.61248 681.2 1.20009 681.2C-4.21231 681.2 -8.59991 685.588 -8.59991 691C-8.59991 696.412 -4.21231 700.8 1.20009 700.8Z" fill="#07902A"/>
<path opacity="0.38" d="M83.8001 23.1999C89.2125 23.1999 93.6001 18.8122 93.6001 13.3999C93.6001 7.98746 89.2125 3.59985 83.8001 3.59985C78.3877 3.59985 74.0001 7.98746 74.0001 13.3999C74.0001 18.8122 78.3877 23.1999 83.8001 23.1999Z" fill="#07902A"/>
<path opacity="0.38" d="M767 70.8C772.412 70.8 776.8 66.4123 776.8 61C776.8 55.5876 772.412 51.2 767 51.2C761.588 51.2 757.2 55.5876 757.2 61C757.2 66.4123 761.588 70.8 767 70.8Z" fill="#07902A"/>
<path opacity="0.38" d="M754.4 759.6C759.812 759.6 764.2 755.212 764.2 749.8C764.2 744.388 759.812 740 754.4 740C748.988 740 744.6 744.388 744.6 749.8C744.6 755.212 748.988 759.6 754.4 759.6Z" fill="#07902A"/>
<path opacity="0.38" d="M62.8001 780.6C68.2125 780.6 72.6001 776.212 72.6001 770.8C72.6001 765.388 68.2125 761 62.8001 761C57.3877 761 53.0001 765.388 53.0001 770.8C53.0001 776.212 57.3877 780.6 62.8001 780.6Z" fill="#07902A"/>
<path opacity="0.37" d="M6.80011 89.7C12.5991 89.7 17.3001 84.9989 17.3001 79.2C17.3001 73.401 12.5991 68.7 6.80011 68.7C1.00112 68.7 -3.69989 73.401 -3.69989 79.2C-3.69989 84.9989 1.00112 89.7 6.80011 89.7Z" fill="#07902A"/>
<path opacity="0.34" d="M-9.99988 744.9C-4.20089 744.9 0.500122 740.199 0.500122 734.4C0.500122 728.601 -4.20089 723.9 -9.99988 723.9C-15.7989 723.9 -20.4999 728.601 -20.4999 734.4C-20.4999 740.199 -15.7989 744.9 -9.99988 744.9Z" fill="#07902A"/>
<path opacity="0.34" d="M40.4001 15.5C46.1991 15.5 50.9001 10.799 50.9001 5C50.9001 -0.79899 46.1991 -5.5 40.4001 -5.5C34.6011 -5.5 29.9001 -0.79899 29.9001 5C29.9001 10.799 34.6011 15.5 40.4001 15.5Z" fill="#07902A"/>
<path opacity="0.34" d="M774 28.0999C779.799 28.0999 784.5 23.3988 784.5 17.5999C784.5 11.8009 779.799 7.09985 774 7.09985C768.201 7.09985 763.5 11.8009 763.5 17.5999C763.5 23.3988 768.201 28.0999 774 28.0999Z" fill="#07902A"/>
<path opacity="0.33" d="M797.8 764.5C803.599 764.5 808.3 759.799 808.3 754C808.3 748.201 803.599 743.5 797.8 743.5C792.001 743.5 787.3 748.201 787.3 754C787.3 759.799 792.001 764.5 797.8 764.5Z" fill="#07902A"/>
<path opacity="0.3" d="M-4.39991 10.6C1.78568 10.6 6.80009 5.58554 6.80009 -0.600049C6.80009 -6.78564 1.78568 -11.8 -4.39991 -11.8C-10.5855 -11.8 -15.5999 -6.78564 -15.5999 -0.600049C-15.5999 5.58554 -10.5855 10.6 -4.39991 10.6Z" fill="#07902A"/>
</g>
<defs>
<clipPath id="clip0_9_7242">
<rect width="800" height="800" fill="white"/>
</clipPath>
</defs>
</svg>
