<?xml version="1.0" encoding="UTF-8"?> <svg xmlns:xlink="http://www.w3.org/1999/xlink" xmlns="http://www.w3.org/2000/svg" version="1.1" viewBox="0.0 0.0 585.0 362.0" fill="none" stroke="none" stroke-linecap="square" stroke-miterlimit="10" width="585" height="362"><path fill="#ffffff" d="M0 0L585.0 0L585.0 362.0L0 362.0L0 0Z" fill-rule="nonzero"></path><path fill="#2e5dab" d="M442.36667 179.20667C442.36667 179.90198 442.35678 180.59727 442.33704 181.29243L442.33704 158.81244C442.35678 158.11726 442.36667 157.42198 442.36667 156.72667Z" fill-rule="nonzero"></path><path fill="#4285f4" d="M292.5 51.82C332.76367 51.82 371.33377 63.160942 399.52002 83.28758C427.7063 103.41423 443.13757 130.63345 442.33704 158.81244L292.5 156.72667Z" fill-rule="nonzero"></path><path fill="#a42f25" d="M442.33704 181.29243C441.24423 219.7598 410.1571 254.72198 361.33334 272.39343L361.33334 249.91344C410.1571 232.24199 441.24423 197.27979 442.33704 158.81244Z" fill-rule="nonzero"></path><path fill="#ea4335" d="M442.33704 158.81244C441.24423 197.27979 410.1571 232.24199 361.33334 249.91344L292.5 156.72667Z" fill-rule="nonzero"></path><path fill="#24763a" d="M223.66664 272.39343C173.89249 254.378 142.63333 218.43057 142.63333 179.20667L142.63333 156.72667C142.63333 195.95056 173.89249 231.89801 223.66664 249.91344Z" fill-rule="nonzero"></path><path fill="#34a853" d="M223.66664 249.91344C162.26372 227.68904 130.54175 178.94951 146.87915 131.93256C163.21657 84.91561 223.37456 51.82 292.5 51.82L292.5 156.72667Z" fill-rule="nonzero"></path><path fill="#b08403" d="M361.33334 272.39343C318.1594 288.01996 266.8406 288.01996 223.66664 272.39343L223.66664 249.91344C266.8406 265.53998 318.1594 265.53998 361.33334 249.91344Z" fill-rule="nonzero"></path><path fill="#fbbc04" d="M361.33334 249.91344C318.1594 265.53998 266.8406 265.53998 223.66664 249.91344L292.5 156.72667Z" fill-rule="nonzero"></path><path fill="#000000" d="M352.30737 110.6096L352.30737 111.7971L345.68237 111.7971Q345.66675 111.3596 345.823 110.93772Q346.08862 110.26585 346.6355 109.6096Q347.198 108.95335 348.24487 108.09397Q349.8855 106.75022 350.448 105.96897Q351.02612 105.18772 351.02612 104.4846Q351.02612 103.75022 350.49487 103.25022Q349.97925 102.75022 349.15112 102.75022Q348.2605 102.75022 347.71362 103.28147Q347.18237 103.81272 347.18237 104.76585L345.91675 104.62522Q346.04175 103.21897 346.8855 102.4846Q347.74487 101.7346 349.16675 101.7346Q350.61987 101.7346 351.448 102.53147Q352.29175 103.32835 352.29175 104.51585Q352.29175 105.12522 352.04175 105.70335Q351.80737 106.28147 351.22925 106.9221Q350.66675 107.56272 349.33862 108.68772Q348.22925 109.6096 347.91675 109.95335Q347.60425 110.28147 347.40112 110.6096L352.30737 110.6096ZM353.83862 109.1721L355.1355 109.06272Q355.27612 110.00022 355.79175 110.4846Q356.323 110.95335 357.05737 110.95335Q357.948 110.95335 358.55737 110.28147Q359.18237 109.6096 359.18237 108.51585Q359.18237 107.45335 358.58862 106.84397Q357.99487 106.2346 357.04175 106.2346Q356.448 106.2346 355.96362 106.51585Q355.49487 106.78147 355.21362 107.20335L354.05737 107.06272L355.02612 101.90647L360.0105 101.90647L360.0105 103.09397L356.0105 103.09397L355.47925 105.78147Q356.3855 105.15647 357.36987 105.15647Q358.68237 105.15647 359.573 106.06272Q360.47925 106.96897 360.47925 108.40647Q360.47925 109.76585 359.698 110.75022Q358.72925 111.96897 357.05737 111.96897Q355.698 111.96897 354.823 111.20335Q353.96362 110.43772 353.83862 109.1721ZM362.52612 111.7971L362.52612 110.39085L363.93237 110.39085L363.93237 111.7971L362.52612 111.7971ZM365.85425 109.15647L367.073 108.9846Q367.29175 110.03147 367.79175 110.50022Q368.30737 110.95335 369.04175 110.95335Q369.91675 110.95335 370.5105 110.3596Q371.10425 109.75022 371.10425 108.8596Q371.10425 108.01585 370.54175 107.46897Q369.99487 106.9221 369.15112 106.9221Q368.79175 106.9221 368.27612 107.0471L368.41675 105.96897Q368.54175 105.9846 368.60425 105.9846Q369.40112 105.9846 370.02612 105.57835Q370.65112 105.1721 370.65112 104.31272Q370.65112 103.64085 370.198 103.20335Q369.74487 102.75022 369.0105 102.75022Q368.29175 102.75022 367.80737 103.20335Q367.33862 103.64085 367.198 104.5471L365.97925 104.32835Q366.198 103.09397 366.99487 102.4221Q367.79175 101.7346 368.97925 101.7346Q369.80737 101.7346 370.49487 102.09397Q371.18237 102.43772 371.54175 103.0471Q371.91675 103.65647 371.91675 104.34397Q371.91675 104.9846 371.573 105.51585Q371.22925 106.0471 370.54175 106.37522Q371.43237 106.57835 371.91675 107.21897Q372.41675 107.8596 372.41675 108.84397Q372.41675 110.15647 371.448 111.06272Q370.49487 111.96897 369.04175 111.96897Q367.71362 111.96897 366.83862 111.18772Q365.97925 110.40647 365.85425 109.15647ZM374.073 104.18772Q374.073 103.1096 374.60425 102.3596Q375.15112 101.6096 376.18237 101.6096Q377.11987 101.6096 377.72925 102.28147Q378.35425 102.95335 378.35425 104.25022Q378.35425 105.53147 377.72925 106.21897Q377.10425 106.90647 376.198 106.90647Q375.29175 106.90647 374.68237 106.2346Q374.073 105.5471 374.073 104.18772ZM376.21362 102.45335Q375.7605 102.45335 375.448 102.8596Q375.15112 103.25022 375.15112 104.2971Q375.15112 105.26585 375.448 105.65647Q375.7605 106.0471 376.21362 106.0471Q376.68237 106.0471 376.97925 105.65647Q377.29175 105.26585 377.29175 104.20335Q377.29175 103.2346 376.97925 102.84397Q376.66675 102.45335 376.21362 102.45335ZM376.21362 112.1721L381.698 101.6096L382.698 101.6096L377.24487 112.1721L376.21362 112.1721ZM380.55737 109.43772Q380.55737 108.3596 381.08862 107.62522Q381.6355 106.87522 382.66675 106.87522Q383.60425 106.87522 384.22925 107.5471Q384.85425 108.21897 384.85425 109.51585Q384.85425 110.7971 384.22925 111.4846Q383.60425 112.1721 382.66675 112.1721Q381.7605 112.1721 381.15112 111.50022Q380.55737 110.81272 380.55737 109.43772ZM382.698 107.71897Q382.22925 107.71897 381.93237 108.12522Q381.6355 108.51585 381.6355 109.56272Q381.6355 110.53147 381.93237 110.9221Q382.24487 111.31272 382.698 111.31272Q383.16675 111.31272 383.46362 110.9221Q383.77612 110.53147 383.77612 109.46897Q383.77612 108.50022 383.46362 108.1096Q383.16675 107.71897 382.698 107.71897Z" fill-rule="nonzero"></path><path fill="#000000" d="M364.75375 199.64696L363.51938 199.64696L363.51938 191.8032Q363.08188 192.22508 362.3475 192.66258Q361.62875 193.08446 361.06625 193.28758L361.06625 192.10008Q362.0975 191.6157 362.86313 190.9282Q363.64438 190.2407 363.95688 189.58446L364.75375 189.58446L364.75375 199.64696ZM368.19125 190.94383L368.19125 189.75633L374.69125 189.75633L374.69125 190.70946Q373.7225 191.72508 372.785 193.41258Q371.8475 195.10008 371.33188 196.89696Q370.9725 198.14696 370.86313 199.64696L369.5975 199.64696Q369.61313 198.45946 370.05063 196.78758Q370.50375 195.1157 371.33188 193.56883Q372.17563 192.00633 373.11313 190.94383L368.19125 190.94383ZM376.80063 199.64696L376.80063 198.2407L378.20688 198.2407L378.20688 199.64696L376.80063 199.64696ZM384.75375 199.64696L383.51938 199.64696L383.51938 191.8032Q383.08188 192.22508 382.3475 192.66258Q381.62875 193.08446 381.06625 193.28758L381.06625 192.10008Q382.0975 191.6157 382.86313 190.9282Q383.64438 190.2407 383.95688 189.58446L384.75375 189.58446L384.75375 199.64696ZM388.3475 192.03758Q388.3475 190.95946 388.87875 190.20946Q389.42563 189.45946 390.45688 189.45946Q391.39438 189.45946 392.00375 190.13133Q392.62875 190.8032 392.62875 192.10008Q392.62875 193.38133 392.00375 194.06883Q391.37875 194.75633 390.4725 194.75633Q389.56625 194.75633 388.95688 194.08446Q388.3475 193.39696 388.3475 192.03758ZM390.48813 190.3032Q390.035 190.3032 389.7225 190.70946Q389.42563 191.10008 389.42563 192.14696Q389.42563 193.1157 389.7225 193.50633Q390.035 193.89696 390.48813 193.89696Q390.95688 193.89696 391.25375 193.50633Q391.56625 193.1157 391.56625 192.0532Q391.56625 191.08446 391.25375 190.69383Q390.94125 190.3032 390.48813 190.3032ZM390.48813 200.02196L395.9725 189.45946L396.9725 189.45946L391.51938 200.02196L390.48813 200.02196ZM394.83188 197.28758Q394.83188 196.20946 395.36313 195.47508Q395.91 194.72508 396.94125 194.72508Q397.87875 194.72508 398.50375 195.39696Q399.12875 196.06883 399.12875 197.3657Q399.12875 198.64696 398.50375 199.33446Q397.87875 200.02196 396.94125 200.02196Q396.035 200.02196 395.42563 199.35008Q394.83188 198.66258 394.83188 197.28758ZM396.9725 195.56883Q396.50375 195.56883 396.20688 195.97508Q395.91 196.3657 395.91 197.41258Q395.91 198.38133 396.20688 198.77196Q396.51938 199.16258 396.9725 199.16258Q397.44125 199.16258 397.73813 198.77196Q398.05063 198.38133 398.05063 197.31883Q398.05063 196.35008 397.73813 195.95946Q397.44125 195.56883 396.9725 195.56883Z" fill-rule="nonzero"></path><path fill="#000000" d="M277.71875 240.74792L276.48438 240.74792L276.48438 232.90417Q276.04688 233.32605 275.3125 233.76355Q274.59375 234.18542 274.03125 234.38855L274.03125 233.20105Q275.0625 232.71667 275.82812 232.02917Q276.60938 231.34167 276.92188 230.68542L277.71875 230.68542L277.71875 240.74792ZM281.07812 238.12292L282.375 238.01355Q282.51562 238.95105 283.03125 239.43542Q283.5625 239.90417 284.29688 239.90417Q285.1875 239.90417 285.79688 239.2323Q286.42188 238.56042 286.42188 237.46667Q286.42188 236.40417 285.82812 235.7948Q285.23438 235.18542 284.28125 235.18542Q283.6875 235.18542 283.20312 235.46667Q282.73438 235.7323 282.45312 236.15417L281.29688 236.01355L282.26562 230.8573L287.25 230.8573L287.25 232.0448L283.25 232.0448L282.71875 234.7323Q283.625 234.1073 284.60938 234.1073Q285.92188 234.1073 286.8125 235.01355Q287.71875 235.9198 287.71875 237.3573Q287.71875 238.71667 286.9375 239.70105Q285.96875 240.9198 284.29688 240.9198Q282.9375 240.9198 282.0625 240.15417Q281.20312 239.38855 281.07812 238.12292ZM289.76562 240.74792L289.76562 239.34167L291.17188 239.34167L291.17188 240.74792L289.76562 240.74792ZM299.54688 239.56042L299.54688 240.74792L292.92188 240.74792Q292.90625 240.31042 293.0625 239.88855Q293.32812 239.21667 293.875 238.56042Q294.4375 237.90417 295.48438 237.0448Q297.125 235.70105 297.6875 234.9198Q298.26562 234.13855 298.26562 233.43542Q298.26562 232.70105 297.73438 232.20105Q297.21875 231.70105 296.39062 231.70105Q295.5 231.70105 294.95312 232.2323Q294.42188 232.76355 294.42188 233.71667L293.15625 233.57605Q293.28125 232.1698 294.125 231.43542Q294.98438 230.68542 296.40625 230.68542Q297.85938 230.68542 298.6875 231.4823Q299.53125 232.27917 299.53125 233.46667Q299.53125 234.07605 299.28125 234.65417Q299.04688 235.2323 298.46875 235.87292Q297.90625 236.51355 296.57812 237.63855Q295.46875 238.56042 295.15625 238.90417Q294.84375 239.2323 294.64062 239.56042L299.54688 239.56042ZM301.3125 233.13855Q301.3125 232.06042 301.84375 231.31042Q302.39062 230.56042 303.42188 230.56042Q304.35938 230.56042 304.96875 231.2323Q305.59375 231.90417 305.59375 233.20105Q305.59375 234.4823 304.96875 235.1698Q304.34375 235.8573 303.4375 235.8573Q302.53125 235.8573 301.92188 235.18542Q301.3125 234.49792 301.3125 233.13855ZM303.45312 231.40417Q303.0 231.40417 302.6875 231.81042Q302.39062 232.20105 302.39062 233.24792Q302.39062 234.21667 302.6875 234.6073Q303.0 234.99792 303.45312 234.99792Q303.92188 234.99792 304.21875 234.6073Q304.53125 234.21667 304.53125 233.15417Q304.53125 232.18542 304.21875 231.7948Q303.90625 231.40417 303.45312 231.40417ZM303.45312 241.12292L308.9375 230.56042L309.9375 230.56042L304.48438 241.12292L303.45312 241.12292ZM307.79688 238.38855Q307.79688 237.31042 308.32812 236.57605Q308.875 235.82605 309.90625 235.82605Q310.84375 235.82605 311.46875 236.49792Q312.09375 237.1698 312.09375 238.46667Q312.09375 239.74792 311.46875 240.43542Q310.84375 241.12292 309.90625 241.12292Q309.0 241.12292 308.39062 240.45105Q307.79688 239.76355 307.79688 238.38855ZM309.9375 236.6698Q309.46875 236.6698 309.17188 237.07605Q308.875 237.46667 308.875 238.51355Q308.875 239.4823 309.17188 239.87292Q309.48438 240.26355 309.9375 240.26355Q310.40625 240.26355 310.70312 239.87292Q311.01562 239.4823 311.01562 238.4198Q311.01562 237.45105 310.70312 237.06042Q310.40625 236.6698 309.9375 236.6698Z" fill-rule="nonzero"></path><path fill="#000000" d="M173.80688 144.15118L173.80688 141.74493L169.44751 141.74493L169.44751 140.61993L174.02563 134.13556L175.02563 134.13556L175.02563 140.61993L176.38501 140.61993L176.38501 141.74493L175.02563 141.74493L175.02563 144.15118L173.80688 144.15118ZM173.80688 140.61993L173.80688 136.10431L170.66626 140.61993L173.80688 140.61993ZM184.32251 142.96368L184.32251 144.15118L177.69751 144.15118Q177.68188 143.71368 177.83813 143.29181Q178.10376 142.61993 178.65063 141.96368Q179.21313 141.30743 180.26001 140.44806Q181.90063 139.10431 182.46313 138.32306Q183.04126 137.54181 183.04126 136.83868Q183.04126 136.10431 182.51001 135.60431Q181.99438 135.10431 181.16626 135.10431Q180.27563 135.10431 179.72876 135.63556Q179.19751 136.16681 179.19751 137.11993L177.93188 136.97931Q178.05688 135.57306 178.90063 134.83868Q179.76001 134.08868 181.18188 134.08868Q182.63501 134.08868 183.46313 134.88556Q184.30688 135.68243 184.30688 136.86993Q184.30688 137.47931 184.05688 138.05743Q183.82251 138.63556 183.24438 139.27618Q182.68188 139.91681 181.35376 141.04181Q180.24438 141.96368 179.93188 142.30743Q179.61938 142.63556 179.41626 142.96368L184.32251 142.96368ZM186.54126 144.15118L186.54126 142.74493L187.94751 142.74493L187.94751 144.15118L186.54126 144.15118ZM193.80688 144.15118L193.80688 141.74493L189.44751 141.74493L189.44751 140.61993L194.02563 134.13556L195.02563 134.13556L195.02563 140.61993L196.38501 140.61993L196.38501 141.74493L195.02563 141.74493L195.02563 144.15118L193.80688 144.15118ZM193.80688 140.61993L193.80688 136.10431L190.66626 140.61993L193.80688 140.61993ZM198.08813 136.54181Q198.08813 135.46368 198.61938 134.71368Q199.16626 133.96368 200.19751 133.96368Q201.13501 133.96368 201.74438 134.63556Q202.36938 135.30743 202.36938 136.60431Q202.36938 137.88556 201.74438 138.57306Q201.11938 139.26056 200.21313 139.26056Q199.30688 139.26056 198.69751 138.58868Q198.08813 137.90118 198.08813 136.54181ZM200.22876 134.80743Q199.77563 134.80743 199.46313 135.21368Q199.16626 135.60431 199.16626 136.65118Q199.16626 137.61993 199.46313 138.01056Q199.77563 138.40118 200.22876 138.40118Q200.69751 138.40118 200.99438 138.01056Q201.30688 137.61993 201.30688 136.55743Q201.30688 135.58868 200.99438 135.19806Q200.68188 134.80743 200.22876 134.80743ZM200.22876 144.52618L205.71313 133.96368L206.71313 133.96368L201.26001 144.52618L200.22876 144.52618ZM204.57251 141.79181Q204.57251 140.71368 205.10376 139.97931Q205.65063 139.22931 206.68188 139.22931Q207.61938 139.22931 208.24438 139.90118Q208.86938 140.57306 208.86938 141.86993Q208.86938 143.15118 208.24438 143.83868Q207.61938 144.52618 206.68188 144.52618Q205.77563 144.52618 205.16626 143.85431Q204.57251 143.16681 204.57251 141.79181ZM206.71313 140.07306Q206.24438 140.07306 205.94751 140.47931Q205.65063 140.86993 205.65063 141.91681Q205.65063 142.88556 205.94751 143.27618Q206.26001 143.66681 206.71313 143.66681Q207.18188 143.66681 207.47876 143.27618Q207.79126 142.88556 207.79126 141.82306Q207.79126 140.85431 207.47876 140.46368Q207.18188 140.07306 206.71313 140.07306Z" fill-rule="nonzero"></path><path fill="#4285f4" d="M91.5 336.9C91.5 340.2137 88.813705 342.9 85.5 342.9C82.186295 342.9 79.5 340.2137 79.5 336.9C79.5 333.5863 82.186295 330.9 85.5 330.9C88.813705 330.9 91.5 333.5863 91.5 336.9Z" fill-rule="nonzero"></path><path fill="#1a1a1a" d="M105.359375 339.18124Q105.359375 339.82187 104.8125 340.525Q104.328125 341.13437 103.625 341.57187Q102.9375 341.99374 102.5 341.99374Q102.09375 341.99374 101.625 341.86874Q101.265625 341.79062 100.765625 341.60312Q100.34375 341.44687 99.9375 341.275L100.03125 341.04062Q100.421875 341.11874 100.84375 341.19687Q101.265625 341.275 101.59375 341.275Q102.34375 341.275 103.15625 340.80624Q103.90625 340.35312 104.421875 339.69687Q104.9375 339.025 104.9375 338.47812Q104.9375 338.00937 104.671875 337.50937Q104.453125 337.10312 104.0625 336.66562L104.40625 335.74374Q104.875 336.18124 105.109375 336.63437Q105.359375 337.13437 105.359375 337.75937L105.359375 339.18124ZM110.6875 338.8375Q110.6875 339.79062 109.96875 340.75937Q109.171875 341.82187 108.125 341.82187Q107.75 341.82187 107.328125 341.72812Q107.03125 341.66562 106.5625 341.50937Q106.171875 341.36874 105.796875 341.24374L105.890625 341.04062Q106.21875 341.11874 106.578125 341.19687Q106.9375 341.29062 107.234375 341.29062Q107.9375 341.29062 108.578125 340.93124Q109.078125 340.63437 109.578125 340.0875Q109.828125 339.82187 110.296875 339.19687Q109.5 339.19687 109.109375 338.94687Q108.671875 338.65 108.671875 337.99374Q108.671875 337.4 108.953125 336.88437Q109.28125 336.275 109.78125 336.275Q110.28125 336.275 110.515625 336.86874Q110.6875 337.3375 110.6875 338.16562L110.6875 338.8375ZM110.3125 338.19687Q110.1875 337.63437 110.0 337.41562Q109.84375 337.22812 109.625 337.22812Q109.453125 337.22812 109.328125 337.3375Q109.21875 337.44687 109.21875 337.60312Q109.21875 337.9 109.46875 338.05624Q109.734375 338.19687 110.3125 338.19687ZM113.4375 339.18124L110.09375 339.18124L110.09375 338.16562L113.0 338.16562Q113.0 337.47812 112.84375 337.10312Q112.734375 336.85312 112.28125 336.38437L112.75 335.43124Q113.171875 335.9625 113.265625 336.25937Q113.4375 336.7125 113.4375 337.75937L113.4375 339.18124ZM113.40625 340.35312L112.9375 341.19687L112.0 340.69687L112.4375 339.85312L113.40625 340.35312ZM112.046875 340.88437L111.609375 341.72812L110.65625 341.24374L111.09375 340.38437L112.046875 340.88437ZM119.359375 339.18124Q119.359375 339.82187 118.8125 340.525Q118.328125 341.13437 117.625 341.57187Q116.9375 341.99374 116.5 341.99374Q116.09375 341.99374 115.625 341.86874Q115.265625 341.79062 114.765625 341.60312Q114.34375 341.44687 113.9375 341.275L114.03125 341.04062Q114.421875 341.11874 114.84375 341.19687Q115.265625 341.275 115.59375 341.275Q116.34375 341.275 117.15625 340.80624Q117.90625 340.35312 118.421875 339.69687Q118.9375 339.025 118.9375 338.47812Q118.9375 338.00937 118.671875 337.50937Q118.453125 337.10312 118.0625 336.66562L118.40625 335.74374Q118.875 336.18124 119.109375 336.63437Q119.359375 337.13437 119.359375 337.75937L119.359375 339.18124ZM124.234375 339.18124L122.078125 339.18124Q122.453125 339.35312 122.71875 339.68124Q123.0625 340.0875 123.0625 340.55624Q123.0625 341.025 122.921875 341.29062Q122.734375 341.63437 122.359375 341.63437Q121.65625 341.63437 121.078125 341.15Q120.375 340.57187 120.375 339.60312L120.390625 339.18124L119.09375 339.18124L119.09375 338.16562L120.578125 338.16562Q120.78125 337.61874 121.03125 337.15Q121.328125 336.55624 121.671875 336.18124Q122.0625 335.74374 122.40625 335.74374Q122.59375 335.74374 122.734375 336.07187Q122.875 336.38437 122.875 336.74374Q122.875 337.25937 122.59375 337.57187Q122.4375 337.775 121.65625 338.16562L124.234375 338.16562L124.234375 339.18124ZM122.296875 337.16562Q122.296875 336.61874 122.0625 336.61874Q121.796875 336.61874 121.453125 337.16562Q121.28125 337.43124 120.96875 338.04062Q121.5 337.9 121.875 337.68124Q122.296875 337.41562 122.296875 337.16562ZM122.53125 340.4625Q122.53125 340.00937 121.84375 339.57187Q121.28125 339.22812 120.75 339.13437Q120.75 339.775 121.0625 340.19687Q121.4375 340.69687 122.171875 340.69687Q122.3125 340.69687 122.421875 340.63437Q122.53125 340.57187 122.53125 340.4625ZM129.1875 332.82187L128.75 333.68124L127.8125 333.16562L128.23438 332.32187L129.1875 332.82187ZM130.34375 333.86874L129.89062 334.7125L128.9375 334.19687L129.375 333.36874L130.34375 333.86874ZM129.0 334.38437L128.5625 335.24374L127.609375 334.74374L128.04688 333.9L129.0 334.38437ZM130.875 339.18124L130.42188 339.18124Q130.04688 339.18124 129.76562 339.0875Q129.5 338.97812 129.28125 338.79062Q129.0 339.00937 128.79688 339.07187Q128.5 339.18124 127.984375 339.18124L127.59375 339.18124Q127.296875 339.18124 126.984375 339.07187Q126.796875 338.99374 126.5 338.80624Q126.21875 339.025 125.984375 339.10312Q125.75 339.18124 125.21875 339.18124L124.09375 339.18124L124.09375 338.16562L125.21875 338.16562Q125.703125 338.16562 125.90625 338.0875Q126.234375 337.94687 126.234375 337.54062Q126.234375 337.36874 126.21875 337.19687Q126.203125 337.025 126.15625 336.82187L126.40625 336.4625Q126.5625 337.00937 126.671875 337.25937Q126.859375 337.68124 127.078125 337.9Q127.34375 338.16562 127.71875 338.16562L128.10938 338.16562Q128.5625 338.16562 128.76562 338.025Q129.0 337.86874 129.0 337.54062Q129.0 337.35312 128.96875 337.19687Q128.95312 337.025 128.90625 336.82187L129.15625 336.4625L129.28125 337.025Q129.4375 337.66562 129.67188 337.91562Q129.875 338.15 130.20312 338.15Q130.35938 338.15 130.45312 338.05624Q130.5625 337.94687 130.5625 337.80624Q130.5625 337.47812 130.3125 337.10312Q130.28125 337.05624 130.03125 336.72812L130.40625 336.0875Q130.65625 336.44687 130.73438 336.7125Q130.875 337.11874 130.875 337.775L130.875 339.18124Z" fill-rule="nonzero"></path><path fill="#1a1a1a" d="M137.42188 336.72812Q137.42188 337.25937 137.34375 337.9625Q137.32812 338.13437 137.1875 339.18124L136.98438 339.18124Q136.98438 339.04062 137.0 338.36874Q137.0 337.11874 136.67188 336.04062Q136.40625 335.2125 135.9375 334.47812Q135.70312 334.10312 135.26562 333.57187L135.82812 332.30624Q136.29688 332.85312 136.57812 333.3375Q136.96875 334.00937 137.1875 334.75937Q137.42188 335.65 137.42188 336.72812ZM141.51562 339.13437Q141.51562 338.13437 141.71875 337.25937Q141.9375 336.36874 142.40625 335.5875Q141.53125 335.5875 141.10938 335.4Q140.6875 335.2125 140.6875 334.85312Q140.6875 334.57187 140.90625 334.15Q141.14062 333.72812 141.59375 333.2125Q141.9375 332.775 142.28125 332.54062Q142.625 332.29062 142.89062 332.29062Q143.20312 332.29062 143.53125 332.54062Q143.875 332.79062 144.3125 333.35312L144.25 333.41562Q143.82812 333.25937 143.59375 333.2125Q143.375 333.16562 143.09375 333.16562Q142.35938 333.16562 141.92188 333.36874Q141.48438 333.55624 141.48438 333.85312Q141.48438 334.16562 141.79688 334.35312Q142.10938 334.525 142.67188 334.525Q143.17188 334.525 143.57812 334.43124Q144.0 334.32187 144.71875 333.99374L144.45312 335.11874Q143.89062 335.32187 143.32812 335.8375Q142.71875 336.4 142.32812 337.19687Q141.875 338.0875 141.75 339.13437L141.51562 339.13437Z" fill-rule="nonzero"></path><path fill="#1a1a1a" d="M148.875 338.32187L148.875 337.25937L152.125 337.25937L152.125 338.32187L148.875 338.32187Z" fill-rule="nonzero"></path><path fill="#1a1a1a" d="M159.42188 336.72812Q159.42188 337.25937 159.34375 337.9625Q159.32812 338.13437 159.1875 339.18124L158.98438 339.18124Q158.98438 339.04062 159.0 338.36874Q159.0 337.11874 158.67188 336.04062Q158.40625 335.2125 157.9375 334.47812Q157.70312 334.10312 157.26562 333.57187L157.82812 332.30624Q158.29688 332.85312 158.57812 333.3375Q158.96875 334.00937 159.1875 334.75937Q159.42188 335.65 159.42188 336.72812ZM165.625 336.54062Q165.46875 337.05624 165.375 337.36874Q165.29688 337.68124 165.1875 338.275Q164.6875 337.99374 164.40625 337.79062Q164.21875 337.66562 163.73438 337.25937Q163.84375 336.72812 163.95312 336.38437Q164.0625 336.04062 164.25 335.47812Q164.57812 335.75937 164.92188 336.025Q165.14062 336.19687 165.625 336.54062Z" fill-rule="nonzero"></path><path fill="#ea4335" d="M195.5 336.9C195.5 340.2137 192.8137 342.9 189.5 342.9C186.1863 342.9 183.5 340.2137 183.5 336.9C183.5 333.5863 186.1863 330.9 189.5 330.9C192.8137 330.9 195.5 333.5863 195.5 336.9Z" fill-rule="nonzero"></path><path fill="#1a1a1a" d="M209.35938 339.18124Q209.35938 339.82187 208.8125 340.525Q208.32812 341.13437 207.625 341.57187Q206.9375 341.99374 206.5 341.99374Q206.09375 341.99374 205.625 341.86874Q205.26562 341.79062 204.76562 341.60312Q204.34375 341.44687 203.9375 341.275L204.03125 341.04062Q204.42188 341.11874 204.84375 341.19687Q205.26562 341.275 205.59375 341.275Q206.34375 341.275 207.15625 340.80624Q207.90625 340.35312 208.42188 339.69687Q208.9375 339.025 208.9375 338.47812Q208.9375 338.00937 208.67188 337.50937Q208.45312 337.10312 208.0625 336.66562L208.40625 335.74374Q208.875 336.18124 209.10938 336.63437Q209.35938 337.13437 209.35938 337.75937L209.35938 339.18124ZM214.6875 338.8375Q214.6875 339.79062 213.96875 340.75937Q213.17188 341.82187 212.125 341.82187Q211.75 341.82187 211.32812 341.72812Q211.03125 341.66562 210.5625 341.50937Q210.17188 341.36874 209.79688 341.24374L209.89062 341.04062Q210.21875 341.11874 210.57812 341.19687Q210.9375 341.29062 211.23438 341.29062Q211.9375 341.29062 212.57812 340.93124Q213.07812 340.63437 213.57812 340.0875Q213.82812 339.82187 214.29688 339.19687Q213.5 339.19687 213.10938 338.94687Q212.67188 338.65 212.67188 337.99374Q212.67188 337.4 212.95312 336.88437Q213.28125 336.275 213.78125 336.275Q214.28125 336.275 214.51562 336.86874Q214.6875 337.3375 214.6875 338.16562L214.6875 338.8375ZM214.3125 338.19687Q214.1875 337.63437 214.0 337.41562Q213.84375 337.22812 213.625 337.22812Q213.45312 337.22812 213.32812 337.3375Q213.21875 337.44687 213.21875 337.60312Q213.21875 337.9 213.46875 338.05624Q213.73438 338.19687 214.3125 338.19687ZM217.4375 339.18124L214.09375 339.18124L214.09375 338.16562L217.0 338.16562Q217.0 337.47812 216.84375 337.10312Q216.73438 336.85312 216.28125 336.38437L216.75 335.43124Q217.17188 335.9625 217.26562 336.25937Q217.4375 336.7125 217.4375 337.75937L217.4375 339.18124ZM217.40625 340.35312L216.9375 341.19687L216.0 340.69687L216.4375 339.85312L217.40625 340.35312ZM216.04688 340.88437L215.60938 341.72812L214.65625 341.24374L215.09375 340.38437L216.04688 340.88437ZM223.35938 339.18124Q223.35938 339.82187 222.8125 340.525Q222.32812 341.13437 221.625 341.57187Q220.9375 341.99374 220.5 341.99374Q220.09375 341.99374 219.625 341.86874Q219.26562 341.79062 218.76562 341.60312Q218.34375 341.44687 217.9375 341.275L218.03125 341.04062Q218.42188 341.11874 218.84375 341.19687Q219.26562 341.275 219.59375 341.275Q220.34375 341.275 221.15625 340.80624Q221.90625 340.35312 222.42188 339.69687Q222.9375 339.025 222.9375 338.47812Q222.9375 338.00937 222.67188 337.50937Q222.45312 337.10312 222.0625 336.66562L222.40625 335.74374Q222.875 336.18124 223.10938 336.63437Q223.35938 337.13437 223.35938 337.75937L223.35938 339.18124ZM228.23438 339.18124L226.07812 339.18124Q226.45312 339.35312 226.71875 339.68124Q227.0625 340.0875 227.0625 340.55624Q227.0625 341.025 226.92188 341.29062Q226.73438 341.63437 226.35938 341.63437Q225.65625 341.63437 225.07812 341.15Q224.375 340.57187 224.375 339.60312L224.39062 339.18124L223.09375 339.18124L223.09375 338.16562L224.57812 338.16562Q224.78125 337.61874 225.03125 337.15Q225.32812 336.55624 225.67188 336.18124Q226.0625 335.74374 226.40625 335.74374Q226.59375 335.74374 226.73438 336.07187Q226.875 336.38437 226.875 336.74374Q226.875 337.25937 226.59375 337.57187Q226.4375 337.775 225.65625 338.16562L228.23438 338.16562L228.23438 339.18124ZM226.29688 337.16562Q226.29688 336.61874 226.0625 336.61874Q225.79688 336.61874 225.45312 337.16562Q225.28125 337.43124 224.96875 338.04062Q225.5 337.9 225.875 337.68124Q226.29688 337.41562 226.29688 337.16562ZM226.53125 340.4625Q226.53125 340.00937 225.84375 339.57187Q225.28125 339.22812 224.75 339.13437Q224.75 339.775 225.0625 340.19687Q225.4375 340.69687 226.17188 340.69687Q226.3125 340.69687 226.42188 340.63437Q226.53125 340.57187 226.53125 340.4625ZM233.1875 332.82187L232.75 333.68124L231.8125 333.16562L232.23438 332.32187L233.1875 332.82187ZM234.34375 333.86874L233.89062 334.7125L232.9375 334.19687L233.375 333.36874L234.34375 333.86874ZM233.0 334.38437L232.5625 335.24374L231.60938 334.74374L232.04688 333.9L233.0 334.38437ZM234.875 339.18124L234.42188 339.18124Q234.04688 339.18124 233.76562 339.0875Q233.5 338.97812 233.28125 338.79062Q233.0 339.00937 232.79688 339.07187Q232.5 339.18124 231.98438 339.18124L231.59375 339.18124Q231.29688 339.18124 230.98438 339.07187Q230.79688 338.99374 230.5 338.80624Q230.21875 339.025 229.98438 339.10312Q229.75 339.18124 229.21875 339.18124L228.09375 339.18124L228.09375 338.16562L229.21875 338.16562Q229.70312 338.16562 229.90625 338.0875Q230.23438 337.94687 230.23438 337.54062Q230.23438 337.36874 230.21875 337.19687Q230.20312 337.025 230.15625 336.82187L230.40625 336.4625Q230.5625 337.00937 230.67188 337.25937Q230.85938 337.68124 231.07812 337.9Q231.34375 338.16562 231.71875 338.16562L232.10938 338.16562Q232.5625 338.16562 232.76562 338.025Q233.0 337.86874 233.0 337.54062Q233.0 337.35312 232.96875 337.19687Q232.95312 337.025 232.90625 336.82187L233.15625 336.4625L233.28125 337.025Q233.4375 337.66562 233.67188 337.91562Q233.875 338.15 234.20312 338.15Q234.35938 338.15 234.45312 338.05624Q234.5625 337.94687 234.5625 337.80624Q234.5625 337.47812 234.3125 337.10312Q234.28125 337.05624 234.03125 336.72812L234.40625 336.0875Q234.65625 336.44687 234.73438 336.7125Q234.875 337.11874 234.875 337.775L234.875 339.18124Z" fill-rule="nonzero"></path><path fill="#1a1a1a" d="M242.1875 333.24374Q242.1875 333.88437 241.89062 334.275Q241.5625 334.69687 240.95312 334.69687Q240.875 334.69687 240.54688 334.65Q240.76562 335.11874 240.85938 335.38437Q241.01562 335.85312 241.09375 336.47812Q241.1875 337.10312 241.1875 338.13437Q241.1875 338.32187 241.17188 338.74374Q241.15625 339.15 241.15625 339.18124L240.98438 339.18124Q240.53125 337.29062 240.39062 336.79062Q240.10938 335.82187 239.71875 335.10312Q239.34375 334.36874 238.57812 333.41562L238.95312 332.22812Q239.35938 332.79062 239.65625 333.05624Q240.21875 333.54062 240.82812 333.54062Q241.48438 333.54062 241.75 333.10312Q241.89062 332.86874 241.95312 332.24374L242.14062 332.22812Q242.17188 332.43124 242.17188 332.7125Q242.1875 332.97812 242.1875 333.24374ZM249.15625 332.82187Q249.15625 333.55624 248.875 333.94687Q248.59375 334.32187 248.01562 334.32187Q247.67188 334.32187 247.42188 334.22812Q247.1875 334.11874 247.0625 333.9Q246.875 334.22812 246.5625 334.4Q246.26562 334.55624 245.82812 334.55624Q246.04688 334.99374 246.14062 335.2125Q246.3125 335.63437 246.40625 336.10312Q246.5 336.57187 246.5 337.22812Q246.5 337.60312 246.46875 337.94687Q246.4375 338.29062 246.29688 339.18124L246.0625 339.18124Q246.0625 337.9 245.89062 337.07187Q245.73438 336.24374 245.32812 335.4625Q245.03125 334.86874 244.25 333.74374L244.6875 332.35312Q244.98438 332.85312 245.34375 333.11874Q245.73438 333.4 246.21875 333.4Q246.71875 333.4 247.0 333.05624Q247.23438 332.75937 247.32812 332.22812L247.51562 332.22812Q247.5625 332.75937 247.71875 332.97812Q247.89062 333.19687 248.1875 333.19687Q248.8125 333.19687 248.92188 332.22812L249.125 332.22812Q249.125 332.35312 249.14062 332.57187Q249.15625 332.79062 249.15625 332.82187Z" fill-rule="nonzero"></path><path fill="#1a1a1a" d="M252.875 338.32187L252.875 337.25937L256.125 337.25937L256.125 338.32187L252.875 338.32187Z" fill-rule="nonzero"></path><path fill="#1a1a1a" d="M263.42188 336.72812Q263.42188 337.25937 263.34375 337.9625Q263.32812 338.13437 263.1875 339.18124L262.98438 339.18124Q262.98438 339.04062 263.0 338.36874Q263.0 337.11874 262.67188 336.04062Q262.40625 335.2125 261.9375 334.47812Q261.70312 334.10312 261.26562 333.57187L261.82812 332.30624Q262.29688 332.85312 262.57812 333.3375Q262.96875 334.00937 263.1875 334.75937Q263.42188 335.65 263.42188 336.72812ZM271.01562 332.36874L270.96875 334.05624Q270.09375 334.94687 269.57812 336.16562Q269.07812 337.38437 268.82812 339.18124L268.75 339.18124Q268.375 337.38437 267.79688 336.24374Q267.21875 335.10312 266.25 334.25937L266.46875 332.4Q267.375 333.4625 267.96875 334.68124Q268.54688 335.86874 268.90625 337.41562L268.96875 337.41562Q269.20312 335.79062 269.71875 334.525Q270.21875 333.29062 271.01562 332.36874Z" fill-rule="nonzero"></path><path fill="#fbbc04" d="M299.5 336.9C299.5 340.2137 296.81372 342.9 293.5 342.9C290.18628 342.9 287.5 340.2137 287.5 336.9C287.5 333.5863 290.18628 330.9 293.5 330.9C296.81372 330.9 299.5 333.5863 299.5 336.9Z" fill-rule="nonzero"></path><path fill="#1a1a1a" d="M313.35938 339.18124Q313.35938 339.82187 312.8125 340.525Q312.32812 341.13437 311.625 341.57187Q310.9375 341.99374 310.5 341.99374Q310.09375 341.99374 309.625 341.86874Q309.26562 341.79062 308.76562 341.60312Q308.34375 341.44687 307.9375 341.275L308.03125 341.04062Q308.42188 341.11874 308.84375 341.19687Q309.26562 341.275 309.59375 341.275Q310.34375 341.275 311.15625 340.80624Q311.90625 340.35312 312.42188 339.69687Q312.9375 339.025 312.9375 338.47812Q312.9375 338.00937 312.67188 337.50937Q312.45312 337.10312 312.0625 336.66562L312.40625 335.74374Q312.875 336.18124 313.10938 336.63437Q313.35938 337.13437 313.35938 337.75937L313.35938 339.18124ZM318.6875 338.8375Q318.6875 339.79062 317.96875 340.75937Q317.17188 341.82187 316.125 341.82187Q315.75 341.82187 315.32812 341.72812Q315.03125 341.66562 314.5625 341.50937Q314.17188 341.36874 313.79688 341.24374L313.89062 341.04062Q314.21875 341.11874 314.57812 341.19687Q314.9375 341.29062 315.23438 341.29062Q315.9375 341.29062 316.57812 340.93124Q317.07812 340.63437 317.57812 340.0875Q317.82812 339.82187 318.29688 339.19687Q317.5 339.19687 317.10938 338.94687Q316.67188 338.65 316.67188 337.99374Q316.67188 337.4 316.95312 336.88437Q317.28125 336.275 317.78125 336.275Q318.28125 336.275 318.51562 336.86874Q318.6875 337.3375 318.6875 338.16562L318.6875 338.8375ZM318.3125 338.19687Q318.1875 337.63437 318.0 337.41562Q317.84375 337.22812 317.625 337.22812Q317.45312 337.22812 317.32812 337.3375Q317.21875 337.44687 317.21875 337.60312Q317.21875 337.9 317.46875 338.05624Q317.73438 338.19687 318.3125 338.19687ZM321.4375 339.18124L318.09375 339.18124L318.09375 338.16562L321.0 338.16562Q321.0 337.47812 320.84375 337.10312Q320.73438 336.85312 320.28125 336.38437L320.75 335.43124Q321.17188 335.9625 321.26562 336.25937Q321.4375 336.7125 321.4375 337.75937L321.4375 339.18124ZM321.40625 340.35312L320.9375 341.19687L320.0 340.69687L320.4375 339.85312L321.40625 340.35312ZM320.04688 340.88437L319.60938 341.72812L318.65625 341.24374L319.09375 340.38437L320.04688 340.88437ZM327.35938 339.18124Q327.35938 339.82187 326.8125 340.525Q326.32812 341.13437 325.625 341.57187Q324.9375 341.99374 324.5 341.99374Q324.09375 341.99374 323.625 341.86874Q323.26562 341.79062 322.76562 341.60312Q322.34375 341.44687 321.9375 341.275L322.03125 341.04062Q322.42188 341.11874 322.84375 341.19687Q323.26562 341.275 323.59375 341.275Q324.34375 341.275 325.15625 340.80624Q325.90625 340.35312 326.42188 339.69687Q326.9375 339.025 326.9375 338.47812Q326.9375 338.00937 326.67188 337.50937Q326.45312 337.10312 326.0625 336.66562L326.40625 335.74374Q326.875 336.18124 327.10938 336.63437Q327.35938 337.13437 327.35938 337.75937L327.35938 339.18124ZM332.23438 339.18124L330.07812 339.18124Q330.45312 339.35312 330.71875 339.68124Q331.0625 340.0875 331.0625 340.55624Q331.0625 341.025 330.92188 341.29062Q330.73438 341.63437 330.35938 341.63437Q329.65625 341.63437 329.07812 341.15Q328.375 340.57187 328.375 339.60312L328.39062 339.18124L327.09375 339.18124L327.09375 338.16562L328.57812 338.16562Q328.78125 337.61874 329.03125 337.15Q329.32812 336.55624 329.67188 336.18124Q330.0625 335.74374 330.40625 335.74374Q330.59375 335.74374 330.73438 336.07187Q330.875 336.38437 330.875 336.74374Q330.875 337.25937 330.59375 337.57187Q330.4375 337.775 329.65625 338.16562L332.23438 338.16562L332.23438 339.18124ZM330.29688 337.16562Q330.29688 336.61874 330.0625 336.61874Q329.79688 336.61874 329.45312 337.16562Q329.28125 337.43124 328.96875 338.04062Q329.5 337.9 329.875 337.68124Q330.29688 337.41562 330.29688 337.16562ZM330.53125 340.4625Q330.53125 340.00937 329.84375 339.57187Q329.28125 339.22812 328.75 339.13437Q328.75 339.775 329.0625 340.19687Q329.4375 340.69687 330.17188 340.69687Q330.3125 340.69687 330.42188 340.63437Q330.53125 340.57187 330.53125 340.4625ZM337.1875 332.82187L336.75 333.68124L335.8125 333.16562L336.23438 332.32187L337.1875 332.82187ZM338.34375 333.86874L337.89062 334.7125L336.9375 334.19687L337.375 333.36874L338.34375 333.86874ZM337.0 334.38437L336.5625 335.24374L335.60938 334.74374L336.04688 333.9L337.0 334.38437ZM338.875 339.18124L338.42188 339.18124Q338.04688 339.18124 337.76562 339.0875Q337.5 338.97812 337.28125 338.79062Q337.0 339.00937 336.79688 339.07187Q336.5 339.18124 335.98438 339.18124L335.59375 339.18124Q335.29688 339.18124 334.98438 339.07187Q334.79688 338.99374 334.5 338.80624Q334.21875 339.025 333.98438 339.10312Q333.75 339.18124 333.21875 339.18124L332.09375 339.18124L332.09375 338.16562L333.21875 338.16562Q333.70312 338.16562 333.90625 338.0875Q334.23438 337.94687 334.23438 337.54062Q334.23438 337.36874 334.21875 337.19687Q334.20312 337.025 334.15625 336.82187L334.40625 336.4625Q334.5625 337.00937 334.67188 337.25937Q334.85938 337.68124 335.07812 337.9Q335.34375 338.16562 335.71875 338.16562L336.10938 338.16562Q336.5625 338.16562 336.76562 338.025Q337.0 337.86874 337.0 337.54062Q337.0 337.35312 336.96875 337.19687Q336.95312 337.025 336.90625 336.82187L337.15625 336.4625L337.28125 337.025Q337.4375 337.66562 337.67188 337.91562Q337.875 338.15 338.20312 338.15Q338.35938 338.15 338.45312 338.05624Q338.5625 337.94687 338.5625 337.80624Q338.5625 337.47812 338.3125 337.10312Q338.28125 337.05624 338.03125 336.72812L338.40625 336.0875Q338.65625 336.44687 338.73438 336.7125Q338.875 337.11874 338.875 337.775L338.875 339.18124Z" fill-rule="nonzero"></path><path fill="#1a1a1a" d="M347.15625 332.82187Q347.15625 333.55624 346.875 333.94687Q346.59375 334.32187 346.01562 334.32187Q345.67188 334.32187 345.42188 334.22812Q345.1875 334.11874 345.0625 333.9Q344.875 334.22812 344.5625 334.4Q344.26562 334.55624 343.82812 334.55624Q344.04688 334.99374 344.14062 335.2125Q344.3125 335.63437 344.40625 336.10312Q344.5 336.57187 344.5 337.22812Q344.5 337.60312 344.46875 337.94687Q344.4375 338.29062 344.29688 339.18124L344.0625 339.18124Q344.0625 337.9 343.89062 337.07187Q343.73438 336.24374 343.32812 335.4625Q343.03125 334.86874 342.25 333.74374L342.6875 332.35312Q342.98438 332.85312 343.34375 333.11874Q343.73438 333.4 344.21875 333.4Q344.71875 333.4 345.0 333.05624Q345.23438 332.75937 345.32812 332.22812L345.51562 332.22812Q345.5625 332.75937 345.71875 332.97812Q345.89062 333.19687 346.1875 333.19687Q346.8125 333.19687 346.92188 332.22812L347.125 332.22812Q347.125 332.35312 347.14062 332.57187Q347.15625 332.79062 347.15625 332.82187ZM351.625 336.54062Q351.46875 337.05624 351.375 337.36874Q351.29688 337.68124 351.1875 338.275Q350.6875 337.99374 350.40625 337.79062Q350.21875 337.66562 349.73438 337.25937Q349.84375 336.72812 349.95312 336.38437Q350.0625 336.04062 350.25 335.47812Q350.57812 335.75937 350.92188 336.025Q351.14062 336.19687 351.625 336.54062Z" fill-rule="nonzero"></path><path fill="#1a1a1a" d="M356.875 338.32187L356.875 337.25937L360.125 337.25937L360.125 338.32187L356.875 338.32187Z" fill-rule="nonzero"></path><path fill="#1a1a1a" d="M368.1875 333.24374Q368.1875 333.88437 367.89062 334.275Q367.5625 334.69687 366.95312 334.69687Q366.875 334.69687 366.54688 334.65Q366.76562 335.11874 366.85938 335.38437Q367.01562 335.85312 367.09375 336.47812Q367.1875 337.10312 367.1875 338.13437Q367.1875 338.32187 367.17188 338.74374Q367.15625 339.15 367.15625 339.18124L366.98438 339.18124Q366.53125 337.29062 366.39062 336.79062Q366.10938 335.82187 365.71875 335.10312Q365.34375 334.36874 364.57812 333.41562L364.95312 332.22812Q365.35938 332.79062 365.65625 333.05624Q366.21875 333.54062 366.82812 333.54062Q367.48438 333.54062 367.75 333.10312Q367.89062 332.86874 367.95312 332.24374L368.14062 332.22812Q368.17188 332.43124 368.17188 332.7125Q368.1875 332.97812 368.1875 333.24374ZM370.42188 333.7125L370.85938 332.30624Q371.39062 333.25937 371.60938 333.54062Q371.82812 333.82187 372.25 334.05624Q372.32812 333.10312 372.59375 332.68124Q372.875 332.25937 373.42188 332.25937Q373.76562 332.25937 374.0625 332.43124Q374.32812 332.5875 374.60938 332.94687L374.5625 333.00937Q374.53125 333.00937 374.34375 332.94687Q374.04688 332.85312 373.78125 332.85312Q373.23438 332.85312 372.90625 333.16562Q372.57812 333.4625 372.40625 334.15Q372.70312 334.24374 372.92188 334.29062Q373.14062 334.32187 373.3125 334.32187Q373.79688 334.32187 374.125 334.16562Q374.46875 333.99374 374.82812 333.55624L374.96875 333.60312Q374.79688 334.4625 374.34375 334.91562Q373.89062 335.36874 373.17188 335.36874Q372.82812 335.36874 372.625 335.30624Q372.42188 335.24374 372.1875 335.07187Q372.4375 335.63437 372.5 336.025Q372.5625 336.30624 372.5625 336.93124Q372.5625 337.775 372.26562 339.13437L372.0625 339.13437Q372.0625 337.85312 371.82812 336.79062Q371.625 335.86874 371.23438 335.04062Q370.90625 334.36874 370.42188 333.7125Z" fill-rule="nonzero"></path><path fill="#34a853" d="M403.5 336.9C403.5 340.2137 400.81372 342.9 397.5 342.9C394.18628 342.9 391.5 340.2137 391.5 336.9C391.5 333.5863 394.18628 330.9 397.5 330.9C400.81372 330.9 403.5 333.5863 403.5 336.9Z" fill-rule="nonzero"></path><path fill="#1a1a1a" d="M417.35938 339.18124Q417.35938 339.82187 416.8125 340.525Q416.32812 341.13437 415.625 341.57187Q414.9375 341.99374 414.5 341.99374Q414.09375 341.99374 413.625 341.86874Q413.26562 341.79062 412.76562 341.60312Q412.34375 341.44687 411.9375 341.275L412.03125 341.04062Q412.42188 341.11874 412.84375 341.19687Q413.26562 341.275 413.59375 341.275Q414.34375 341.275 415.15625 340.80624Q415.90625 340.35312 416.42188 339.69687Q416.9375 339.025 416.9375 338.47812Q416.9375 338.00937 416.67188 337.50937Q416.45312 337.10312 416.0625 336.66562L416.40625 335.74374Q416.875 336.18124 417.10938 336.63437Q417.35938 337.13437 417.35938 337.75937L417.35938 339.18124ZM422.23438 339.18124L420.07812 339.18124Q420.45312 339.35312 420.71875 339.68124Q421.0625 340.0875 421.0625 340.55624Q421.0625 341.025 420.92188 341.29062Q420.73438 341.63437 420.35938 341.63437Q419.65625 341.63437 419.07812 341.15Q418.375 340.57187 418.375 339.60312L418.39062 339.18124L417.09375 339.18124L417.09375 338.16562L418.57812 338.16562Q418.78125 337.61874 419.03125 337.15Q419.32812 336.55624 419.67188 336.18124Q420.0625 335.74374 420.40625 335.74374Q420.59375 335.74374 420.73438 336.07187Q420.875 336.38437 420.875 336.74374Q420.875 337.25937 420.59375 337.57187Q420.4375 337.775 419.65625 338.16562L422.23438 338.16562L422.23438 339.18124ZM420.29688 337.16562Q420.29688 336.61874 420.0625 336.61874Q419.79688 336.61874 419.45312 337.16562Q419.28125 337.43124 418.96875 338.04062Q419.5 337.9 419.875 337.68124Q420.29688 337.41562 420.29688 337.16562ZM420.53125 340.4625Q420.53125 340.00937 419.84375 339.57187Q419.28125 339.22812 418.75 339.13437Q418.75 339.775 419.0625 340.19687Q419.4375 340.69687 420.17188 340.69687Q420.3125 340.69687 420.42188 340.63437Q420.53125 340.57187 420.53125 340.4625ZM427.23438 339.18124L426.625 339.18124Q426.23438 339.18124 425.73438 339.00937Q425.17188 338.80624 424.73438 338.44687Q424.39062 338.85312 424.03125 339.025Q423.6875 339.18124 423.0 339.18124L422.09375 339.18124L422.09375 338.16562L422.98438 338.16562Q423.51562 338.16562 423.9375 337.9Q424.26562 337.68124 424.51562 337.30624Q424.875 336.79062 425.40625 336.4Q425.875 336.07187 426.26562 335.97812Q426.67188 336.5875 426.90625 337.07187Q427.23438 337.74374 427.23438 338.16562L427.23438 339.18124ZM426.5625 338.025Q426.48438 337.68124 426.32812 337.35312Q426.1875 337.0875 425.96875 336.79062Q425.6875 336.86874 425.48438 337.05624Q425.35938 337.18124 425.1875 337.47812Q425.39062 337.69687 425.76562 337.88437Q426.15625 338.05624 426.5 338.10312L426.5625 338.025Z" fill-rule="nonzero"></path><path fill="#1a1a1a" d="M436.15625 337.22812L435.95312 339.07187Q435.07812 338.18124 434.42188 336.85312Q433.78125 335.50937 433.5 334.025L433.45312 334.025Q433.20312 335.3375 433.01562 336.00937Q432.76562 336.9 432.42188 337.5875Q432.04688 338.32187 431.40625 339.11874L431.40625 337.43124Q432.25 336.65 432.76562 335.41562Q433.26562 334.19687 433.5625 332.30624L433.67188 332.30624Q433.96875 333.69687 434.34375 334.61874Q434.6875 335.49374 435.15625 336.13437Q435.54688 336.66562 436.15625 337.22812Z" fill-rule="nonzero"></path><path fill="#1a1a1a" d="M442.25 339.18124L441.4375 339.18124Q441.03125 339.18124 440.79688 338.85312Q440.57812 338.57187 440.46875 338.025Q440.375 337.4625 440.3125 336.65Q440.28125 335.99374 440.23438 335.29062Q440.20312 334.5875 440.14062 334.22812Q440.07812 333.86874 439.96875 333.65Q439.84375 333.36874 439.60938 333.15L440.32812 332.00937Q440.5625 332.7125 440.65625 333.69687Q440.71875 334.30624 440.76562 336.5875Q440.875 337.61874 441.07812 337.91562Q441.23438 338.16562 441.4375 338.16562L442.25 338.16562L442.25 339.18124ZM445.40625 333.4L444.9375 334.24374L444.0 333.72812L444.4375 332.9L445.40625 333.4ZM444.04688 333.91562L443.60938 334.775L442.65625 334.275L443.09375 333.43124L444.04688 333.91562ZM445.4375 339.18124L442.09375 339.18124L442.09375 338.16562L445.0 338.16562Q445.0 337.47812 444.84375 337.10312Q444.73438 336.85312 444.28125 336.38437L444.75 335.43124Q445.17188 335.9625 445.26562 336.25937Q445.4375 336.7125 445.4375 337.75937L445.4375 339.18124ZM454.35938 339.18124Q454.35938 339.82187 453.8125 340.525Q453.32812 341.13437 452.625 341.57187Q451.9375 341.99374 451.5 341.99374Q451.09375 341.99374 450.625 341.86874Q450.26562 341.79062 449.76562 341.60312Q449.34375 341.44687 448.9375 341.275L449.03125 341.04062Q449.42188 341.11874 449.84375 341.19687Q450.26562 341.275 450.59375 341.275Q451.34375 341.275 452.15625 340.80624Q452.90625 340.35312 453.42188 339.69687Q453.9375 339.025 453.9375 338.47812Q453.9375 338.00937 453.67188 337.50937Q453.45312 337.10312 453.0625 336.66562L453.40625 335.74374Q453.875 336.18124 454.10938 336.63437Q454.35938 337.13437 454.35938 337.75937L454.35938 339.18124ZM459.6875 338.8375Q459.6875 339.79062 458.96875 340.75937Q458.17188 341.82187 457.125 341.82187Q456.75 341.82187 456.32812 341.72812Q456.03125 341.66562 455.5625 341.50937Q455.17188 341.36874 454.79688 341.24374L454.89062 341.04062Q455.21875 341.11874 455.57812 341.19687Q455.9375 341.29062 456.23438 341.29062Q456.9375 341.29062 457.57812 340.93124Q458.07812 340.63437 458.57812 340.0875Q458.82812 339.82187 459.29688 339.19687Q458.5 339.19687 458.10938 338.94687Q457.67188 338.65 457.67188 337.99374Q457.67188 337.4 457.95312 336.88437Q458.28125 336.275 458.78125 336.275Q459.28125 336.275 459.51562 336.86874Q459.6875 337.3375 459.6875 338.16562L459.6875 338.8375ZM459.3125 338.19687Q459.1875 337.63437 459.0 337.41562Q458.84375 337.22812 458.625 337.22812Q458.45312 337.22812 458.32812 337.3375Q458.21875 337.44687 458.21875 337.60312Q458.21875 337.9 458.46875 338.05624Q458.73438 338.19687 459.3125 338.19687ZM462.4375 339.18124L459.09375 339.18124L459.09375 338.16562L462.0 338.16562Q462.0 337.47812 461.84375 337.10312Q461.73438 336.85312 461.28125 336.38437L461.75 335.43124Q462.17188 335.9625 462.26562 336.25937Q462.4375 336.7125 462.4375 337.75937L462.4375 339.18124ZM462.40625 340.35312L461.9375 341.19687L461.0 340.69687L461.4375 339.85312L462.40625 340.35312ZM461.04688 340.88437L460.60938 341.72812L459.65625 341.24374L460.09375 340.38437L461.04688 340.88437ZM468.35938 339.18124Q468.35938 339.82187 467.8125 340.525Q467.32812 341.13437 466.625 341.57187Q465.9375 341.99374 465.5 341.99374Q465.09375 341.99374 464.625 341.86874Q464.26562 341.79062 463.76562 341.60312Q463.34375 341.44687 462.9375 341.275L463.03125 341.04062Q463.42188 341.11874 463.84375 341.19687Q464.26562 341.275 464.59375 341.275Q465.34375 341.275 466.15625 340.80624Q466.90625 340.35312 467.42188 339.69687Q467.9375 339.025 467.9375 338.47812Q467.9375 338.00937 467.67188 337.50937Q467.45312 337.10312 467.0625 336.66562L467.40625 335.74374Q467.875 336.18124 468.10938 336.63437Q468.35938 337.13437 468.35938 337.75937L468.35938 339.18124ZM473.23438 339.18124L471.07812 339.18124Q471.45312 339.35312 471.71875 339.68124Q472.0625 340.0875 472.0625 340.55624Q472.0625 341.025 471.92188 341.29062Q471.73438 341.63437 471.35938 341.63437Q470.65625 341.63437 470.07812 341.15Q469.375 340.57187 469.375 339.60312L469.39062 339.18124L468.09375 339.18124L468.09375 338.16562L469.57812 338.16562Q469.78125 337.61874 470.03125 337.15Q470.32812 336.55624 470.67188 336.18124Q471.0625 335.74374 471.40625 335.74374Q471.59375 335.74374 471.73438 336.07187Q471.875 336.38437 471.875 336.74374Q471.875 337.25937 471.59375 337.57187Q471.4375 337.775 470.65625 338.16562L473.23438 338.16562L473.23438 339.18124ZM471.29688 337.16562Q471.29688 336.61874 471.0625 336.61874Q470.79688 336.61874 470.45312 337.16562Q470.28125 337.43124 469.96875 338.04062Q470.5 337.9 470.875 337.68124Q471.29688 337.41562 471.29688 337.16562ZM471.53125 340.4625Q471.53125 340.00937 470.84375 339.57187Q470.28125 339.22812 469.75 339.13437Q469.75 339.775 470.0625 340.19687Q470.4375 340.69687 471.17188 340.69687Q471.3125 340.69687 471.42188 340.63437Q471.53125 340.57187 471.53125 340.4625ZM478.1875 332.82187L477.75 333.68124L476.8125 333.16562L477.23438 332.32187L478.1875 332.82187ZM479.34375 333.86874L478.89062 334.7125L477.9375 334.19687L478.375 333.36874L479.34375 333.86874ZM478.0 334.38437L477.5625 335.24374L476.60938 334.74374L477.04688 333.9L478.0 334.38437ZM479.875 339.18124L479.42188 339.18124Q479.04688 339.18124 478.76562 339.0875Q478.5 338.97812 478.28125 338.79062Q478.0 339.00937 477.79688 339.07187Q477.5 339.18124 476.98438 339.18124L476.59375 339.18124Q476.29688 339.18124 475.98438 339.07187Q475.79688 338.99374 475.5 338.80624Q475.21875 339.025 474.98438 339.10312Q474.75 339.18124 474.21875 339.18124L473.09375 339.18124L473.09375 338.16562L474.21875 338.16562Q474.70312 338.16562 474.90625 338.0875Q475.23438 337.94687 475.23438 337.54062Q475.23438 337.36874 475.21875 337.19687Q475.20312 337.025 475.15625 336.82187L475.40625 336.4625Q475.5625 337.00937 475.67188 337.25937Q475.85938 337.68124 476.07812 337.9Q476.34375 338.16562 476.71875 338.16562L477.10938 338.16562Q477.5625 338.16562 477.76562 338.025Q478.0 337.86874 478.0 337.54062Q478.0 337.35312 477.96875 337.19687Q477.95312 337.025 477.90625 336.82187L478.15625 336.4625L478.28125 337.025Q478.4375 337.66562 478.67188 337.91562Q478.875 338.15 479.20312 338.15Q479.35938 338.15 479.45312 338.05624Q479.5625 337.94687 479.5625 337.80624Q479.5625 337.47812 479.3125 337.10312Q479.28125 337.05624 479.03125 336.72812L479.40625 336.0875Q479.65625 336.44687 479.73438 336.7125Q479.875 337.11874 479.875 337.775L479.875 339.18124Z" fill-rule="nonzero"></path><path fill="#1a1a1a" d="M488.15625 332.82187Q488.15625 333.55624 487.875 333.94687Q487.59375 334.32187 487.01562 334.32187Q486.67188 334.32187 486.42188 334.22812Q486.1875 334.11874 486.0625 333.9Q485.875 334.22812 485.5625 334.4Q485.26562 334.55624 484.82812 334.55624Q485.04688 334.99374 485.14062 335.2125Q485.3125 335.63437 485.40625 336.10312Q485.5 336.57187 485.5 337.22812Q485.5 337.60312 485.46875 337.94687Q485.4375 338.29062 485.29688 339.18124L485.0625 339.18124Q485.0625 337.9 484.89062 337.07187Q484.73438 336.24374 484.32812 335.4625Q484.03125 334.86874 483.25 333.74374L483.6875 332.35312Q483.98438 332.85312 484.34375 333.11874Q484.73438 333.4 485.21875 333.4Q485.71875 333.4 486.0 333.05624Q486.23438 332.75937 486.32812 332.22812L486.51562 332.22812Q486.5625 332.75937 486.71875 332.97812Q486.89062 333.19687 487.1875 333.19687Q487.8125 333.19687 487.92188 332.22812L488.125 332.22812Q488.125 332.35312 488.14062 332.57187Q488.15625 332.79062 488.15625 332.82187ZM492.42188 336.72812Q492.42188 337.25937 492.34375 337.9625Q492.32812 338.13437 492.1875 339.18124L491.98438 339.18124Q491.98438 339.04062 492.0 338.36874Q492.0 337.11874 491.67188 336.04062Q491.40625 335.2125 490.9375 334.47812Q490.70312 334.10312 490.26562 333.57187L490.82812 332.30624Q491.29688 332.85312 491.57812 333.3375Q491.96875 334.00937 492.1875 334.75937Q492.42188 335.65 492.42188 336.72812Z" fill-rule="nonzero"></path><path fill="#1a1a1a" d="M502.48438 333.72812L502.03125 334.57187L501.09375 334.0875L501.53125 333.22812L502.48438 333.72812ZM503.35938 339.18124Q503.35938 339.82187 502.8125 340.525Q502.32812 341.13437 501.625 341.57187Q500.9375 341.99374 500.5 341.99374Q500.09375 341.99374 499.625 341.86874Q499.26562 341.79062 498.76562 341.60312Q498.34375 341.44687 497.9375 341.275L498.03125 341.04062Q498.42188 341.11874 498.84375 341.19687Q499.26562 341.275 499.59375 341.275Q500.34375 341.275 501.15625 340.80624Q501.90625 340.35312 502.42188 339.69687Q502.9375 339.025 502.9375 338.47812Q502.9375 338.00937 502.67188 337.50937Q502.45312 337.10312 502.0625 336.66562L502.40625 335.74374Q502.875 336.18124 503.10938 336.63437Q503.35938 337.13437 503.35938 337.75937L503.35938 339.18124ZM505.48438 337.68124Q505.48438 338.15 505.3125 338.60312Q505.21875 338.8375 504.9375 339.3375L504.82812 339.275Q504.84375 339.11874 504.85938 338.9Q504.875 338.66562 504.875 338.5875Q504.875 337.97812 504.76562 336.88437Q504.67188 335.79062 504.54688 334.60312Q504.46875 333.88437 504.35938 333.13437Q504.48438 332.88437 504.625 332.5875Q504.78125 332.275 504.90625 332.00937Q505.0 332.68124 505.14062 333.85312Q505.29688 335.00937 505.375 335.93124Q505.48438 337.10312 505.48438 337.68124Z" fill-rule="nonzero"></path></svg> 