<?xml version="1.0" encoding="UTF-8"?> <svg xmlns:xlink="http://www.w3.org/1999/xlink" xmlns="http://www.w3.org/2000/svg" version="1.1" viewBox="0.0 0.0 565.0 353.0" fill="none" stroke="none" stroke-linecap="square" stroke-miterlimit="10" width="565" height="353"><path fill="#ffffff" d="M0 0L565.0 0L565.0 353.0L0 353.0L0 0Z" fill-rule="nonzero"></path><path fill="#4285f4" d="M282.5 48.4675C346.69354 48.4675 402.27496 79.676 416.2036 123.54096L282.5 144.34416Z" fill-rule="nonzero"></path><path fill="#fbbc04" d="M255.44533 50.35652C264.3517 49.100292 273.41458 48.4675 282.5 48.4675L282.5 144.34416Z" fill-rule="nonzero"></path><path fill="#a42f25" d="M419.46667 164.88916C419.46667 217.8404 358.1446 260.76584 282.5 260.76584C206.8554 260.76584 145.53334 217.8404 145.53334 164.88916L145.53334 144.34416C145.53334 197.2954 206.8554 240.22084 282.5 240.22084C358.1446 240.22084 419.46667 197.2954 419.46667 144.34416Z" fill-rule="nonzero"></path><path fill="#ea4335" d="M416.2036 123.54096C428.27756 161.56502 406.28726 200.92319 360.56433 223.12395C314.8414 245.32472 254.47487 245.95493 207.82649 224.71848C161.17812 203.48203 137.52089 164.6004 147.9696 126.34122C158.41832 88.08203 200.89594 58.050617 255.44533 50.35652L282.5 144.34416Z" fill-rule="nonzero"></path><path fill="#000000" d="M326.81848 98.17715L326.81848 99.36465L320.19348 99.36465Q320.17786 98.92715 320.3341 98.50527Q320.59973 97.8334 321.1466 97.17715Q321.7091 96.5209 322.75598 95.66152Q324.3966 94.31777 324.9591 93.53652Q325.53723 92.75527 325.53723 92.05215Q325.53723 91.31777 325.00598 90.81777Q324.49036 90.31777 323.66223 90.31777Q322.7716 90.31777 322.22473 90.84902Q321.69348 91.38027 321.69348 92.3334L320.42786 92.19277Q320.55286 90.78652 321.3966 90.05215Q322.25598 89.30215 323.67786 89.30215Q325.13098 89.30215 325.9591 90.09902Q326.80286 90.8959 326.80286 92.0834Q326.80286 92.69277 326.55286 93.2709Q326.31848 93.84902 325.74036 94.48965Q325.17786 95.13027 323.84973 96.25527Q322.74036 97.17715 322.42786 97.5209Q322.11536 97.84902 321.91223 98.17715L326.81848 98.17715ZM332.99036 99.36465L331.75598 99.36465L331.75598 91.5209Q331.31848 91.94277 330.5841 92.38027Q329.86536 92.80215 329.30286 93.00527L329.30286 91.81777Q330.3341 91.3334 331.09973 90.6459Q331.88098 89.9584 332.19348 89.30215L332.99036 89.30215L332.99036 99.36465ZM337.03723 99.36465L337.03723 97.9584L338.44348 97.9584L338.44348 99.36465L337.03723 99.36465ZM340.34973 96.73965L341.6466 96.63027Q341.78723 97.56777 342.30286 98.05215Q342.8341 98.5209 343.56848 98.5209Q344.4591 98.5209 345.06848 97.84902Q345.69348 97.17715 345.69348 96.0834Q345.69348 95.0209 345.09973 94.41152Q344.50598 93.80215 343.55286 93.80215Q342.9591 93.80215 342.47473 94.0834Q342.00598 94.34902 341.72473 94.7709L340.56848 94.63027L341.53723 89.47402L346.5216 89.47402L346.5216 90.66152L342.5216 90.66152L341.99036 93.34902Q342.8966 92.72402 343.88098 92.72402Q345.19348 92.72402 346.0841 93.63027Q346.99036 94.53652 346.99036 95.97402Q346.99036 97.3334 346.2091 98.31777Q345.24036 99.53652 343.56848 99.53652Q342.2091 99.53652 341.3341 98.7709Q340.47473 98.00527 340.34973 96.73965ZM348.5841 91.75527Q348.5841 90.67715 349.11536 89.92715Q349.66223 89.17715 350.69348 89.17715Q351.63098 89.17715 352.24036 89.84902Q352.86536 90.5209 352.86536 91.81777Q352.86536 93.09902 352.24036 93.78652Q351.61536 94.47402 350.7091 94.47402Q349.80286 94.47402 349.19348 93.80215Q348.5841 93.11465 348.5841 91.75527ZM350.72473 90.0209Q350.2716 90.0209 349.9591 90.42715Q349.66223 90.81777 349.66223 91.86465Q349.66223 92.8334 349.9591 93.22402Q350.2716 93.61465 350.72473 93.61465Q351.19348 93.61465 351.49036 93.22402Q351.80286 92.8334 351.80286 91.7709Q351.80286 90.80215 351.49036 90.41152Q351.17786 90.0209 350.72473 90.0209ZM350.72473 99.73965L356.2091 89.17715L357.2091 89.17715L351.75598 99.73965L350.72473 99.73965ZM355.06848 97.00527Q355.06848 95.92715 355.59973 95.19277Q356.1466 94.44277 357.17786 94.44277Q358.11536 94.44277 358.74036 95.11465Q359.36536 95.78652 359.36536 97.0834Q359.36536 98.36465 358.74036 99.05215Q358.11536 99.73965 357.17786 99.73965Q356.2716 99.73965 355.66223 99.06777Q355.06848 98.38027 355.06848 97.00527ZM357.2091 95.28652Q356.74036 95.28652 356.44348 95.69277Q356.1466 96.0834 356.1466 97.13027Q356.1466 98.09902 356.44348 98.48965Q356.75598 98.88027 357.2091 98.88027Q357.67786 98.88027 357.97473 98.48965Q358.28723 98.09902 358.28723 97.03652Q358.28723 96.06777 357.97473 95.67715Q357.67786 95.28652 357.2091 95.28652Z" fill-rule="nonzero"></path><path fill="#000000" d="M212.92159 194.71077L212.92159 193.52327L219.42159 193.52327L219.42159 194.4764Q218.45284 195.49202 217.51534 197.17952Q216.57784 198.86702 216.06221 200.6639Q215.70284 201.9139 215.59346 203.4139L214.32784 203.4139Q214.34346 202.2264 214.78096 200.55452Q215.23409 198.88264 216.06221 197.33577Q216.90596 195.77327 217.84346 194.71077L212.92159 194.71077ZM220.84346 200.7889L222.14034 200.67952Q222.28096 201.61702 222.79659 202.1014Q223.32784 202.57014 224.06221 202.57014Q224.95284 202.57014 225.56221 201.89827Q226.18721 201.2264 226.18721 200.13264Q226.18721 199.07014 225.59346 198.46077Q224.99971 197.8514 224.04659 197.8514Q223.45284 197.8514 222.96846 198.13264Q222.49971 198.39827 222.21846 198.82014L221.06221 198.67952L222.03096 193.52327L227.01534 193.52327L227.01534 194.71077L223.01534 194.71077L222.48409 197.39827Q223.39034 196.77327 224.37471 196.77327Q225.68721 196.77327 226.57784 197.67952Q227.48409 198.58577 227.48409 200.02327Q227.48409 201.38264 226.70284 202.36702Q225.73409 203.58577 224.06221 203.58577Q222.70284 203.58577 221.82784 202.82014Q220.96846 202.05452 220.84346 200.7889ZM229.53096 203.4139L229.53096 202.00764L230.93721 202.00764L230.93721 203.4139L229.53096 203.4139ZM232.85909 200.77327L234.07784 200.6014Q234.29659 201.64827 234.79659 202.11702Q235.31221 202.57014 236.04659 202.57014Q236.92159 202.57014 237.51534 201.9764Q238.10909 201.36702 238.10909 200.4764Q238.10909 199.63264 237.54659 199.08577Q236.99971 198.5389 236.15596 198.5389Q235.79659 198.5389 235.28096 198.6639L235.42159 197.58577Q235.54659 197.6014 235.60909 197.6014Q236.40596 197.6014 237.03096 197.19514Q237.65596 196.7889 237.65596 195.92952Q237.65596 195.25764 237.20284 194.82014Q236.74971 194.36702 236.01534 194.36702Q235.29659 194.36702 234.81221 194.82014Q234.34346 195.25764 234.20284 196.1639L232.98409 195.94514Q233.20284 194.71077 233.99971 194.0389Q234.79659 193.3514 235.98409 193.3514Q236.81221 193.3514 237.49971 193.71077Q238.18721 194.05452 238.54659 194.6639Q238.92159 195.27327 238.92159 195.96077Q238.92159 196.6014 238.57784 197.13264Q238.23409 197.6639 237.54659 197.99202Q238.43721 198.19514 238.92159 198.83577Q239.42159 199.4764 239.42159 200.46077Q239.42159 201.77327 238.45284 202.67952Q237.49971 203.58577 236.04659 203.58577Q234.71846 203.58577 233.84346 202.80452Q232.98409 202.02327 232.85909 200.77327ZM241.07784 195.80452Q241.07784 194.7264 241.60909 193.9764Q242.15596 193.2264 243.18721 193.2264Q244.12471 193.2264 244.73409 193.89827Q245.35909 194.57014 245.35909 195.86702Q245.35909 197.14827 244.73409 197.83577Q244.10909 198.52327 243.20284 198.52327Q242.29659 198.52327 241.68721 197.8514Q241.07784 197.1639 241.07784 195.80452ZM243.21846 194.07014Q242.76534 194.07014 242.45284 194.4764Q242.15596 194.86702 242.15596 195.9139Q242.15596 196.88264 242.45284 197.27327Q242.76534 197.6639 243.21846 197.6639Q243.68721 197.6639 243.98409 197.27327Q244.29659 196.88264 244.29659 195.82014Q244.29659 194.8514 243.98409 194.46077Q243.67159 194.07014 243.21846 194.07014ZM243.21846 203.7889L248.70284 193.2264L249.70284 193.2264L244.24971 203.7889L243.21846 203.7889ZM247.56221 201.05452Q247.56221 199.9764 248.09346 199.24202Q248.64034 198.49202 249.67159 198.49202Q250.60909 198.49202 251.23409 199.1639Q251.85909 199.83577 251.85909 201.13264Q251.85909 202.4139 251.23409 203.1014Q250.60909 203.7889 249.67159 203.7889Q248.76534 203.7889 248.15596 203.11702Q247.56221 202.42952 247.56221 201.05452ZM249.70284 199.33577Q249.23409 199.33577 248.93721 199.74202Q248.64034 200.13264 248.64034 201.17952Q248.64034 202.14827 248.93721 202.5389Q249.24971 202.92952 249.70284 202.92952Q250.17159 202.92952 250.46846 202.5389Q250.78096 202.14827 250.78096 201.08577Q250.78096 200.11702 250.46846 199.7264Q250.17159 199.33577 249.70284 199.33577Z" fill-rule="nonzero"></path><path fill="#4285f4" d="M114.5 310.35C114.5 313.6637 111.813705 316.35 108.5 316.35C105.186295 316.35 102.5 313.6637 102.5 310.35C102.5 307.0363 105.186295 304.35 108.5 304.35C111.813705 304.35 114.5 307.0363 114.5 310.35Z" fill-rule="nonzero"></path><path fill="#1a1a1a" d="M125.3125 316.88126Q124.4375 315.77188 123.828125 314.30313Q123.234375 312.81876 123.234375 311.24063Q123.234375 309.85 123.671875 308.56876Q124.203125 307.08438 125.3125 305.61563L126.0625 305.61563Q125.359375 306.83438 125.125 307.35Q124.765625 308.1625 124.5625 309.0375Q124.3125 310.13126 124.3125 311.24063Q124.3125 314.06876 126.0625 316.88126L125.3125 316.88126ZM132.35938 312.63126Q132.35938 313.27188 131.8125 313.975Q131.32812 314.58438 130.625 315.02188Q129.9375 315.44376 129.5 315.44376Q129.09375 315.44376 128.625 315.31876Q128.26562 315.24063 127.765625 315.05313Q127.34375 314.89688 126.9375 314.725L127.03125 314.49063Q127.421875 314.56876 127.84375 314.64688Q128.26562 314.725 128.59375 314.725Q129.34375 314.725 130.15625 314.25626Q130.90625 313.80313 131.42188 313.14688Q131.9375 312.475 131.9375 311.92813Q131.9375 311.45938 131.67188 310.95938Q131.45312 310.55313 131.0625 310.11563L131.40625 309.19376Q131.875 309.63126 132.10938 310.08438Q132.35938 310.58438 132.35938 311.20938L132.35938 312.63126ZM135.14062 306.4125L134.625 307.25626L133.8125 306.69376L134.29688 305.86563L135.14062 306.4125ZM135.65625 312.63126L132.09375 312.63126L132.09375 311.61563L134.09375 311.61563Q134.46875 311.61563 134.71875 311.58438Q134.96875 311.55313 135.26562 311.475Q134.26562 311.31876 133.96875 311.19376Q133.29688 310.89688 133.29688 310.19376Q133.29688 309.58438 133.60938 309.0375Q133.98438 308.42813 134.5 308.42813Q135.09375 308.42813 135.40625 309.19376Q135.65625 309.7875 135.65625 310.61563L135.65625 312.63126ZM135.125 310.58438Q134.98438 310.11563 134.875 309.89688Q134.625 309.44376 134.28125 309.44376Q134.125 309.44376 134.0 309.58438Q133.89062 309.70938 133.89062 309.88126Q133.89062 310.33438 134.35938 310.475Q134.51562 310.5375 135.125 310.58438ZM137.96875 307.20938L137.51562 308.06876L136.5625 307.56876L137.0 306.725L137.96875 307.20938ZM138.4375 312.63126L135.09375 312.63126L135.09375 311.61563L138.0 311.61563Q138.0 310.92813 137.84375 310.55313Q137.73438 310.30313 137.28125 309.83438L137.75 308.88126Q138.17188 309.4125 138.26562 309.70938Q138.4375 310.1625 138.4375 311.20938L138.4375 312.63126ZM147.35938 312.63126Q147.35938 313.27188 146.8125 313.975Q146.32812 314.58438 145.625 315.02188Q144.9375 315.44376 144.5 315.44376Q144.09375 315.44376 143.625 315.31876Q143.26562 315.24063 142.76562 315.05313Q142.34375 314.89688 141.9375 314.725L142.03125 314.49063Q142.42188 314.56876 142.84375 314.64688Q143.26562 314.725 143.59375 314.725Q144.34375 314.725 145.15625 314.25626Q145.90625 313.80313 146.42188 313.14688Q146.9375 312.475 146.9375 311.92813Q146.9375 311.45938 146.67188 310.95938Q146.45312 310.55313 146.0625 310.11563L146.40625 309.19376Q146.875 309.63126 147.10938 310.08438Q147.35938 310.58438 147.35938 311.20938L147.35938 312.63126ZM149.48438 311.13126Q149.48438 311.6 149.3125 312.05313Q149.21875 312.2875 148.9375 312.7875L148.82812 312.725Q148.84375 312.56876 148.85938 312.35Q148.875 312.11563 148.875 312.0375Q148.875 311.42813 148.76562 310.33438Q148.67188 309.24063 148.54688 308.05313Q148.46875 307.33438 148.35938 306.58438Q148.48438 306.33438 148.625 306.0375Q148.78125 305.725 148.90625 305.45938Q149.0 306.13126 149.14062 307.30313Q149.29688 308.45938 149.375 309.38126Q149.48438 310.55313 149.48438 311.13126ZM154.48438 307.17813L154.03125 308.02188L153.09375 307.5375L153.53125 306.67813L154.48438 307.17813ZM155.35938 312.63126Q155.35938 313.27188 154.8125 313.975Q154.32812 314.58438 153.625 315.02188Q152.9375 315.44376 152.5 315.44376Q152.09375 315.44376 151.625 315.31876Q151.26562 315.24063 150.76562 315.05313Q150.34375 314.89688 149.9375 314.725L150.03125 314.49063Q150.42188 314.56876 150.84375 314.64688Q151.26562 314.725 151.59375 314.725Q152.34375 314.725 153.15625 314.25626Q153.90625 313.80313 154.42188 313.14688Q154.9375 312.475 154.9375 311.92813Q154.9375 311.45938 154.67188 310.95938Q154.45312 310.55313 154.0625 310.11563L154.40625 309.19376Q154.875 309.63126 155.10938 310.08438Q155.35938 310.58438 155.35938 311.20938L155.35938 312.63126ZM160.125 311.64688Q160.125 311.975 159.90625 312.39688Q159.67188 312.85 159.45312 312.85Q159.20312 312.85 158.54688 312.5375Q157.95312 312.25626 157.53125 311.99063Q156.85938 312.38126 156.54688 312.49063Q156.15625 312.63126 155.625 312.63126L155.09375 312.63126L155.09375 311.61563L155.625 311.61563Q155.85938 311.61563 156.07812 311.58438Q156.29688 311.5375 156.6875 311.44376Q156.53125 311.31876 156.375 311.20938Q156.21875 311.06876 156.21875 310.92813Q156.21875 310.81876 156.21875 310.77188Q156.23438 310.725 156.29688 310.6L156.89062 309.58438Q157.0 309.38126 157.09375 309.30313Q157.1875 309.225 157.35938 309.17813Q156.95312 308.89688 156.95312 308.7875Q156.95312 308.6625 157.21875 308.17813Q157.3125 308.02188 157.48438 307.69376Q157.85938 308.05313 158.4375 308.725Q159.15625 309.58438 159.5625 310.25626Q160.125 311.14688 160.125 311.64688ZM158.0625 310.36563Q158.0625 310.11563 157.95312 309.975Q157.82812 309.80313 157.5625 309.80313Q157.28125 309.80313 157.04688 309.975Q156.8125 310.14688 156.8125 310.4125Q156.8125 310.64688 157.53125 311.0375Q157.78125 310.88126 157.90625 310.725Q158.0625 310.55313 158.0625 310.36563ZM159.46875 311.70938Q159.46875 311.50626 159.14062 311.06876Q158.9375 310.80313 158.64062 310.49063Q158.64062 310.77188 158.51562 311.02188Q158.39062 311.27188 158.17188 311.4125Q158.53125 311.58438 158.89062 311.77188Q159.1875 311.89688 159.29688 311.89688Q159.375 311.89688 159.42188 311.85Q159.46875 311.7875 159.46875 311.70938Z" fill-rule="nonzero"></path><path fill="#1a1a1a" d="M166.01562 307.13126L166.40625 305.85Q167.64062 307.08438 168.25 308.30313Q168.79688 309.36563 168.79688 310.24063Q168.79688 310.94376 168.40625 311.56876Q167.98438 312.25626 167.34375 312.25626Q167.1875 312.25626 167.04688 312.225Q166.90625 312.17813 166.73438 312.05313Q166.48438 312.25626 166.21875 312.35Q165.96875 312.44376 165.6875 312.44376Q165.125 312.44376 164.76562 312.13126Q164.39062 311.81876 164.39062 311.25626Q164.39062 310.6 164.85938 309.77188Q165.34375 308.92813 166.48438 307.58438L166.01562 307.13126ZM166.95312 310.85Q167.09375 310.975 167.3125 311.06876Q167.53125 311.1625 167.76562 311.1625Q168.04688 311.1625 168.23438 311.02188Q168.4375 310.86563 168.4375 310.64688Q168.4375 310.20938 167.92188 309.4125Q167.45312 308.69376 166.625 307.75626Q166.39062 308.02188 166.10938 308.4125Q165.73438 308.92813 165.5 309.4125Q165.21875 310.00626 165.21875 310.44376Q165.21875 310.81876 165.40625 311.0375Q165.60938 311.25626 165.96875 311.25626Q166.21875 311.25626 166.42188 311.17813Q166.64062 311.08438 166.95312 310.85ZM173.625 309.99063Q173.46875 310.50626 173.375 310.81876Q173.29688 311.13126 173.1875 311.725Q172.6875 311.44376 172.40625 311.24063Q172.21875 311.11563 171.73438 310.70938Q171.84375 310.17813 171.95312 309.83438Q172.0625 309.49063 172.25 308.92813Q172.57812 309.20938 172.92188 309.475Q173.14062 309.64688 173.625 309.99063ZM179.625 309.99063Q179.46875 310.50626 179.375 310.81876Q179.29688 311.13126 179.1875 311.725Q178.6875 311.44376 178.40625 311.24063Q178.21875 311.11563 177.73438 310.70938Q177.84375 310.17813 177.95312 309.83438Q178.0625 309.49063 178.25 308.92813Q178.57812 309.20938 178.92188 309.475Q179.14062 309.64688 179.625 309.99063Z" fill-rule="nonzero"></path><path fill="#1a1a1a" d="M187.25 312.63126L186.4375 312.63126Q186.03125 312.63126 185.79688 312.30313Q185.57812 312.02188 185.46875 311.475Q185.375 310.9125 185.3125 310.1Q185.28125 309.44376 185.23438 308.74063Q185.20312 308.0375 185.14062 307.67813Q185.07812 307.31876 184.96875 307.1Q184.84375 306.81876 184.60938 306.6L185.32812 305.45938Q185.5625 306.1625 185.65625 307.14688Q185.71875 307.75626 185.76562 310.0375Q185.875 311.06876 186.07812 311.36563Q186.23438 311.61563 186.4375 311.61563L187.25 311.61563L187.25 312.63126ZM190.40625 306.85L189.9375 307.69376L189.0 307.17813L189.4375 306.35L190.40625 306.85ZM189.04688 307.36563L188.60938 308.225L187.65625 307.725L188.09375 306.88126L189.04688 307.36563ZM190.4375 312.63126L187.09375 312.63126L187.09375 311.61563L190.0 311.61563Q190.0 310.92813 189.84375 310.55313Q189.73438 310.30313 189.28125 309.83438L189.75 308.88126Q190.17188 309.4125 190.26562 309.70938Q190.4375 310.1625 190.4375 311.20938L190.4375 312.63126ZM191.98438 316.88126L191.23438 316.88126Q192.98438 314.06876 192.98438 311.24063Q192.98438 310.14688 192.73438 309.05313Q192.53125 308.17813 192.17188 307.36563Q191.9375 306.85 191.23438 305.61563L191.98438 305.61563Q193.07812 307.08438 193.60938 308.56876Q194.0625 309.85 194.0625 311.24063Q194.0625 312.81876 193.45312 314.30313Q192.84375 315.77188 191.98438 316.88126ZM200.25 312.63126Q198.84375 312.63126 198.25 312.30313Q197.625 311.94376 197.625 311.08438Q197.625 310.56876 197.89062 309.9125Q197.96875 309.725 198.21875 309.24063L198.42188 309.35Q198.21875 309.80313 198.15625 310.05313Q198.09375 310.30313 198.09375 310.52188Q198.09375 311.1625 198.76562 311.4125Q199.26562 311.61563 200.25 311.61563L202.73438 311.61563Q203.67188 311.61563 204.29688 311.36563Q205.0625 311.08438 205.0625 310.56876Q205.0625 310.17813 204.76562 309.89688Q204.625 309.75626 204.20312 309.5375L204.01562 309.725L203.3125 309.19376Q202.95312 308.88126 202.95312 308.725Q202.95312 307.70938 203.45312 307.13126Q203.90625 306.61563 205.03125 306.19376L206.67188 305.5375L206.67188 306.55313L205.45312 306.95938Q204.45312 307.30313 204.04688 307.50626Q203.6875 307.69376 203.6875 307.7875Q203.6875 307.92813 204.0625 308.20938Q204.29688 308.38126 204.54688 308.55313Q205.0625 308.95938 205.46875 309.33438Q205.82812 309.6625 206.14062 310.00626Q206.34375 310.225 206.76562 310.75626Q207.04688 311.08438 207.29688 311.31876Q207.65625 311.61563 207.92188 311.61563L208.6875 311.61563L208.6875 312.63126L207.96875 312.63126Q207.48438 312.63126 206.96875 312.14688Q206.70312 311.89688 206.23438 311.2875Q205.9375 310.9125 205.875 310.83438Q205.73438 310.6625 205.4375 310.38126Q205.4375 311.4125 204.78125 312.00626Q204.09375 312.63126 202.70312 312.63126L200.25 312.63126ZM214.85938 312.63126L208.09375 312.63126L208.09375 311.61563L212.85938 311.61563Q212.26562 311.14688 211.85938 310.89688Q211.34375 310.56876 210.92188 310.42813Q210.45312 310.25626 209.96875 310.25626Q209.67188 310.25626 209.35938 310.30313Q209.53125 309.86563 209.8125 309.6Q210.20312 309.225 210.8125 309.225Q211.40625 309.225 212.23438 309.80313Q212.625 310.1 213.54688 310.92813Q214.25 311.55313 214.5 311.61563L214.85938 311.61563L214.85938 312.63126ZM212.64062 314.02188L212.20312 314.86563L211.25 314.38126L211.6875 313.52188L212.64062 314.02188ZM212.4375 315.6L212.0 316.45938L211.04688 315.94376L211.5 315.1L212.4375 315.6ZM211.29688 314.56876L210.85938 315.4125L209.89062 314.9125L210.35938 314.06876L211.29688 314.56876ZM219.6875 312.2875Q219.6875 313.24063 218.96875 314.20938Q218.17188 315.27188 217.125 315.27188Q216.75 315.27188 216.32812 315.17813Q216.03125 315.11563 215.5625 314.95938Q215.17188 314.81876 214.79688 314.69376L214.89062 314.49063Q215.21875 314.56876 215.57812 314.64688Q215.9375 314.74063 216.23438 314.74063Q216.9375 314.74063 217.57812 314.38126Q218.07812 314.08438 218.57812 313.5375Q218.82812 313.27188 219.29688 312.64688Q218.5 312.64688 218.10938 312.39688Q217.67188 312.1 217.67188 311.44376Q217.67188 310.85 217.95312 310.33438Q218.28125 309.725 218.78125 309.725Q219.28125 309.725 219.51562 310.31876Q219.6875 310.7875 219.6875 311.61563L219.6875 312.2875ZM219.3125 311.64688Q219.1875 311.08438 219.0 310.86563Q218.84375 310.67813 218.625 310.67813Q218.45312 310.67813 218.32812 310.7875Q218.21875 310.89688 218.21875 311.05313Q218.21875 311.35 218.46875 311.50626Q218.73438 311.64688 219.3125 311.64688ZM224.23438 312.63126L219.09375 312.63126L219.09375 311.61563L223.54688 311.61563Q223.14062 310.99063 222.60938 310.5375Q222.07812 310.06876 221.1875 309.5375L221.0 309.725L220.29688 309.19376Q219.9375 308.88126 219.9375 308.725Q219.9375 307.70938 220.4375 307.13126Q220.89062 306.61563 222.01562 306.19376L223.65625 305.5375L223.65625 306.55313L222.4375 306.95938Q221.70312 307.20938 221.25 307.4125Q220.67188 307.6625 220.67188 307.7875Q220.67188 307.92813 221.04688 308.20938Q221.28125 308.38126 221.53125 308.55313Q222.42188 309.24063 223.07812 309.975Q223.79688 310.75626 224.23438 311.61563L224.23438 312.63126ZM237.35938 312.63126L236.89062 312.63126Q236.54688 312.63126 236.28125 312.5375Q236.01562 312.44376 235.73438 312.225Q235.48438 312.44376 235.29688 312.52188Q235.01562 312.63126 234.48438 312.63126L233.76562 312.63126Q233.76562 313.17813 233.51562 313.67813Q233.17188 314.35 232.5 314.725Q231.625 315.225 230.34375 315.225Q229.17188 315.225 228.54688 314.80313Q227.85938 314.35 227.85938 313.42813Q227.85938 312.9125 227.98438 312.39688Q228.10938 311.88126 228.32812 311.36563Q228.45312 311.05313 228.76562 310.39688L229.0 310.50626Q228.59375 311.35 228.45312 311.83438Q228.32812 312.31876 228.32812 312.725Q228.32812 313.44376 228.84375 313.83438Q229.35938 314.20938 230.32812 314.20938Q231.45312 314.20938 232.32812 313.80313Q233.4375 313.31876 233.4375 312.44376Q233.4375 311.86563 233.21875 311.33438Q233.04688 310.92813 232.73438 310.5375L233.21875 309.33438Q233.51562 309.81876 233.625 310.19376Q233.76562 310.70938 233.76562 311.61563L234.48438 311.61563Q235.04688 311.61563 235.28125 311.44376Q235.48438 311.30313 235.48438 310.99063Q235.48438 310.81876 235.46875 310.64688Q235.45312 310.475 235.40625 310.27188L235.64062 309.9125L235.73438 310.49063Q235.85938 311.06876 236.07812 311.31876Q236.3125 311.6 236.76562 311.6Q236.89062 311.6 236.96875 311.52188Q237.04688 311.42813 237.04688 311.30313Q237.04688 311.00626 236.85938 310.6625Q236.71875 310.42813 236.5 310.17813L236.89062 309.5375Q237.17188 309.99063 237.23438 310.14688Q237.35938 310.52188 237.35938 311.225L237.35938 312.63126ZM240.25 312.63126L239.4375 312.63126Q239.03125 312.63126 238.79688 312.30313Q238.57812 312.02188 238.46875 311.475Q238.375 310.9125 238.3125 310.1Q238.28125 309.44376 238.23438 308.74063Q238.20312 308.0375 238.14062 307.67813Q238.07812 307.31876 237.96875 307.1Q237.84375 306.81876 237.60938 306.6L238.32812 305.45938Q238.5625 306.1625 238.65625 307.14688Q238.71875 307.75626 238.76562 310.0375Q238.875 311.06876 239.07812 311.36563Q239.23438 311.61563 239.4375 311.61563L240.25 311.61563L240.25 312.63126ZM243.4375 312.63126L240.09375 312.63126L240.09375 311.61563L243.0 311.61563Q243.0 310.92813 242.84375 310.55313Q242.73438 310.30313 242.28125 309.83438L242.75 308.88126Q243.17188 309.4125 243.26562 309.70938Q243.4375 310.1625 243.4375 311.20938L243.4375 312.63126ZM243.40625 313.80313L242.9375 314.64688L242.0 314.14688L242.4375 313.30313L243.40625 313.80313ZM242.04688 314.33438L241.60938 315.17813L240.65625 314.69376L241.09375 313.83438L242.04688 314.33438ZM246.40625 306.1L245.90625 306.89688L245.17188 306.4125L245.67188 305.63126L246.40625 306.1ZM245.0625 306.45938L244.59375 307.25626L243.875 306.77188L244.35938 305.99063L245.0625 306.45938ZM246.65625 312.63126L243.09375 312.63126L243.09375 311.61563L245.09375 311.61563Q245.46875 311.61563 245.71875 311.58438Q245.96875 311.55313 246.26562 311.475Q245.26562 311.31876 244.96875 311.19376Q244.29688 310.89688 244.29688 310.19376Q244.29688 309.58438 244.60938 309.0375Q244.98438 308.42813 245.5 308.42813Q246.09375 308.42813 246.40625 309.19376Q246.65625 309.7875 246.65625 310.61563L246.65625 312.63126ZM246.125 310.58438Q245.98438 310.11563 245.875 309.89688Q245.625 309.44376 245.28125 309.44376Q245.125 309.44376 245.0 309.58438Q244.89062 309.70938 244.89062 309.88126Q244.89062 310.33438 245.35938 310.475Q245.51562 310.5375 246.125 310.58438ZM251.23438 312.63126L250.625 312.63126Q250.23438 312.63126 249.73438 312.45938Q249.17188 312.25626 248.73438 311.89688Q248.39062 312.30313 248.03125 312.475Q247.6875 312.63126 247.0 312.63126L246.09375 312.63126L246.09375 311.61563L246.98438 311.61563Q247.51562 311.61563 247.9375 311.35Q248.26562 311.13126 248.51562 310.75626Q248.875 310.24063 249.40625 309.85Q249.875 309.52188 250.26562 309.42813Q250.67188 310.0375 250.90625 310.52188Q251.23438 311.19376 251.23438 311.61563L251.23438 312.63126ZM250.5625 311.475Q250.48438 311.13126 250.32812 310.80313Q250.1875 310.5375 249.96875 310.24063Q249.6875 310.31876 249.48438 310.50626Q249.35938 310.63126 249.1875 310.92813Q249.39062 311.14688 249.76562 311.33438Q250.15625 311.50626 250.5 311.55313L250.5625 311.475Z" fill-rule="nonzero"></path><path fill="#ea4335" d="M279.5 310.35C279.5 313.6637 276.81372 316.35 273.5 316.35C270.18628 316.35 267.5 313.6637 267.5 310.35C267.5 307.0363 270.18628 304.35 273.5 304.35C276.81372 304.35 279.5 307.0363 279.5 310.35Z" fill-rule="nonzero"></path><path fill="#1a1a1a" d="M290.3125 316.88126Q289.4375 315.77188 288.82812 314.30313Q288.23438 312.81876 288.23438 311.24063Q288.23438 309.85 288.67188 308.56876Q289.20312 307.08438 290.3125 305.61563L291.0625 305.61563Q290.35938 306.83438 290.125 307.35Q289.76562 308.1625 289.5625 309.0375Q289.3125 310.13126 289.3125 311.24063Q289.3125 314.06876 291.0625 316.88126L290.3125 316.88126ZM297.35938 312.63126Q297.35938 313.27188 296.8125 313.975Q296.32812 314.58438 295.625 315.02188Q294.9375 315.44376 294.5 315.44376Q294.09375 315.44376 293.625 315.31876Q293.26562 315.24063 292.76562 315.05313Q292.34375 314.89688 291.9375 314.725L292.03125 314.49063Q292.42188 314.56876 292.84375 314.64688Q293.26562 314.725 293.59375 314.725Q294.34375 314.725 295.15625 314.25626Q295.90625 313.80313 296.42188 313.14688Q296.9375 312.475 296.9375 311.92813Q296.9375 311.45938 296.67188 310.95938Q296.45312 310.55313 296.0625 310.11563L296.40625 309.19376Q296.875 309.63126 297.10938 310.08438Q297.35938 310.58438 297.35938 311.20938L297.35938 312.63126ZM300.14062 306.4125L299.625 307.25626L298.8125 306.69376L299.29688 305.86563L300.14062 306.4125ZM300.65625 312.63126L297.09375 312.63126L297.09375 311.61563L299.09375 311.61563Q299.46875 311.61563 299.71875 311.58438Q299.96875 311.55313 300.26562 311.475Q299.26562 311.31876 298.96875 311.19376Q298.29688 310.89688 298.29688 310.19376Q298.29688 309.58438 298.60938 309.0375Q298.98438 308.42813 299.5 308.42813Q300.09375 308.42813 300.40625 309.19376Q300.65625 309.7875 300.65625 310.61563L300.65625 312.63126ZM300.125 310.58438Q299.98438 310.11563 299.875 309.89688Q299.625 309.44376 299.28125 309.44376Q299.125 309.44376 299.0 309.58438Q298.89062 309.70938 298.89062 309.88126Q298.89062 310.33438 299.35938 310.475Q299.51562 310.5375 300.125 310.58438ZM302.96875 307.20938L302.51562 308.06876L301.5625 307.56876L302.0 306.725L302.96875 307.20938ZM303.4375 312.63126L300.09375 312.63126L300.09375 311.61563L303.0 311.61563Q303.0 310.92813 302.84375 310.55313Q302.73438 310.30313 302.28125 309.83438L302.75 308.88126Q303.17188 309.4125 303.26562 309.70938Q303.4375 310.1625 303.4375 311.20938L303.4375 312.63126ZM310.625 308.13126L310.1875 308.975L309.28125 308.475L309.70312 307.6625L310.625 308.13126ZM312.8125 312.63126Q312.8125 313.94376 312.04688 314.55313Q311.21875 315.225 309.375 315.225Q308.20312 315.225 307.57812 314.80313Q306.90625 314.35 306.90625 313.42813Q306.90625 312.9125 307.03125 312.39688Q307.15625 311.88126 307.35938 311.36563Q307.48438 311.05313 307.8125 310.39688L308.04688 310.50626Q307.625 311.35 307.5 311.83438Q307.375 312.31876 307.375 312.725Q307.375 313.44376 307.89062 313.83438Q308.40625 314.20938 309.35938 314.20938Q310.46875 314.20938 311.32812 313.80313Q312.39062 313.31876 312.39062 312.44376Q312.39062 311.85 312.21875 311.33438Q312.0625 310.88126 311.78125 310.5375L312.26562 309.33438Q312.57812 309.81876 312.6875 310.31876Q312.8125 310.80313 312.8125 311.61563L312.8125 312.63126ZM317.6875 312.2875Q317.6875 313.24063 316.96875 314.20938Q316.17188 315.27188 315.125 315.27188Q314.75 315.27188 314.32812 315.17813Q314.03125 315.11563 313.5625 314.95938Q313.17188 314.81876 312.79688 314.69376L312.89062 314.49063Q313.21875 314.56876 313.57812 314.64688Q313.9375 314.74063 314.23438 314.74063Q314.9375 314.74063 315.57812 314.38126Q316.07812 314.08438 316.57812 313.5375Q316.82812 313.27188 317.29688 312.64688Q316.5 312.64688 316.10938 312.39688Q315.67188 312.1 315.67188 311.44376Q315.67188 310.85 315.95312 310.33438Q316.28125 309.725 316.78125 309.725Q317.28125 309.725 317.51562 310.31876Q317.6875 310.7875 317.6875 311.61563L317.6875 312.2875ZM317.3125 311.64688Q317.1875 311.08438 317.0 310.86563Q316.84375 310.67813 316.625 310.67813Q316.45312 310.67813 316.32812 310.7875Q316.21875 310.89688 316.21875 311.05313Q316.21875 311.35 316.46875 311.50626Q316.73438 311.64688 317.3125 311.64688ZM320.4375 312.63126L317.09375 312.63126L317.09375 311.61563L320.0 311.61563Q320.0 310.92813 319.84375 310.55313Q319.73438 310.30313 319.28125 309.83438L319.75 308.88126Q320.17188 309.4125 320.26562 309.70938Q320.4375 310.1625 320.4375 311.20938L320.4375 312.63126ZM320.40625 313.80313L319.9375 314.64688L319.0 314.14688L319.4375 313.30313L320.40625 313.80313ZM319.04688 314.33438L318.60938 315.17813L317.65625 314.69376L318.09375 313.83438L319.04688 314.33438ZM322.98438 312.63126L320.09375 312.63126L320.09375 311.61563L322.39062 311.61563L321.70312 306.64688L321.39062 306.49063Q321.39062 306.1 321.45312 305.74063Q321.53125 305.38126 321.67188 305.05313L321.76562 305.11563Q321.76562 305.45938 322.14062 305.63126Q322.4375 305.74063 322.73438 305.86563Q322.73438 306.14688 322.6875 306.49063Q322.64062 306.81876 322.57812 306.99063L322.29688 306.89688L322.98438 311.49063L322.98438 312.63126ZM325.4375 312.63126L322.09375 312.63126L322.09375 311.61563L325.0 311.61563Q325.0 310.92813 324.84375 310.55313Q324.73438 310.30313 324.28125 309.83438L324.75 308.88126Q325.17188 309.4125 325.26562 309.70938Q325.4375 310.1625 325.4375 311.20938L325.4375 312.63126ZM325.40625 313.80313L324.9375 314.64688L324.0 314.14688L324.4375 313.30313L325.40625 313.80313ZM324.04688 314.33438L323.60938 315.17813L322.65625 314.69376L323.09375 313.83438L324.04688 314.33438ZM330.23438 312.63126L329.625 312.63126Q329.23438 312.63126 328.73438 312.45938Q328.17188 312.25626 327.73438 311.89688Q327.39062 312.30313 327.03125 312.475Q326.6875 312.63126 326.0 312.63126L325.09375 312.63126L325.09375 311.61563L325.98438 311.61563Q326.51562 311.61563 326.9375 311.35Q327.26562 311.13126 327.51562 310.75626Q327.875 310.24063 328.40625 309.85Q328.875 309.52188 329.26562 309.42813Q329.67188 310.0375 329.90625 310.52188Q330.23438 311.19376 330.23438 311.61563L330.23438 312.63126ZM329.5625 311.475Q329.48438 311.13126 329.32812 310.80313Q329.1875 310.5375 328.96875 310.24063Q328.6875 310.31876 328.48438 310.50626Q328.35938 310.63126 328.1875 310.92813Q328.39062 311.14688 328.76562 311.33438Q329.15625 311.50626 329.5 311.55313L329.5625 311.475Z" fill-rule="nonzero"></path><path fill="#1a1a1a" d="M337.42188 310.17813Q337.42188 310.70938 337.34375 311.4125Q337.32812 311.58438 337.1875 312.63126L336.98438 312.63126Q336.98438 312.49063 337.0 311.81876Q337.0 310.56876 336.67188 309.49063Q336.40625 308.6625 335.9375 307.92813Q335.70312 307.55313 335.26562 307.02188L335.82812 305.75626Q336.29688 306.30313 336.57812 306.7875Q336.96875 307.45938 337.1875 308.20938Q337.42188 309.1 337.42188 310.17813Z" fill-rule="nonzero"></path><path fill="#1a1a1a" d="M345.25 312.63126L344.4375 312.63126Q344.03125 312.63126 343.79688 312.30313Q343.57812 312.02188 343.46875 311.475Q343.375 310.9125 343.3125 310.1Q343.28125 309.44376 343.23438 308.74063Q343.20312 308.0375 343.14062 307.67813Q343.07812 307.31876 342.96875 307.1Q342.84375 306.81876 342.60938 306.6L343.32812 305.45938Q343.5625 306.1625 343.65625 307.14688Q343.71875 307.75626 343.76562 310.0375Q343.875 311.06876 344.07812 311.36563Q344.23438 311.61563 344.4375 311.61563L345.25 311.61563L345.25 312.63126ZM348.40625 306.85L347.9375 307.69376L347.0 307.17813L347.4375 306.35L348.40625 306.85ZM347.04688 307.36563L346.60938 308.225L345.65625 307.725L346.09375 306.88126L347.04688 307.36563ZM348.4375 312.63126L345.09375 312.63126L345.09375 311.61563L348.0 311.61563Q348.0 310.92813 347.84375 310.55313Q347.73438 310.30313 347.28125 309.83438L347.75 308.88126Q348.17188 309.4125 348.26562 309.70938Q348.4375 310.1625 348.4375 311.20938L348.4375 312.63126ZM357.35938 312.63126Q357.35938 313.27188 356.8125 313.975Q356.32812 314.58438 355.625 315.02188Q354.9375 315.44376 354.5 315.44376Q354.09375 315.44376 353.625 315.31876Q353.26562 315.24063 352.76562 315.05313Q352.34375 314.89688 351.9375 314.725L352.03125 314.49063Q352.42188 314.56876 352.84375 314.64688Q353.26562 314.725 353.59375 314.725Q354.34375 314.725 355.15625 314.25626Q355.90625 313.80313 356.42188 313.14688Q356.9375 312.475 356.9375 311.92813Q356.9375 311.45938 356.67188 310.95938Q356.45312 310.55313 356.0625 310.11563L356.40625 309.19376Q356.875 309.63126 357.10938 310.08438Q357.35938 310.58438 357.35938 311.20938L357.35938 312.63126ZM359.48438 311.13126Q359.48438 311.6 359.3125 312.05313Q359.21875 312.2875 358.9375 312.7875L358.82812 312.725Q358.84375 312.56876 358.85938 312.35Q358.875 312.11563 358.875 312.0375Q358.875 311.42813 358.76562 310.33438Q358.67188 309.24063 358.54688 308.05313Q358.46875 307.33438 358.35938 306.58438Q358.48438 306.33438 358.625 306.0375Q358.78125 305.725 358.90625 305.45938Q359.0 306.13126 359.14062 307.30313Q359.29688 308.45938 359.375 309.38126Q359.48438 310.55313 359.48438 311.13126ZM364.48438 307.17813L364.03125 308.02188L363.09375 307.5375L363.53125 306.67813L364.48438 307.17813ZM365.35938 312.63126Q365.35938 313.27188 364.8125 313.975Q364.32812 314.58438 363.625 315.02188Q362.9375 315.44376 362.5 315.44376Q362.09375 315.44376 361.625 315.31876Q361.26562 315.24063 360.76562 315.05313Q360.34375 314.89688 359.9375 314.725L360.03125 314.49063Q360.42188 314.56876 360.84375 314.64688Q361.26562 314.725 361.59375 314.725Q362.34375 314.725 363.15625 314.25626Q363.90625 313.80313 364.42188 313.14688Q364.9375 312.475 364.9375 311.92813Q364.9375 311.45938 364.67188 310.95938Q364.45312 310.55313 364.0625 310.11563L364.40625 309.19376Q364.875 309.63126 365.10938 310.08438Q365.35938 310.58438 365.35938 311.20938L365.35938 312.63126ZM370.125 311.64688Q370.125 311.975 369.90625 312.39688Q369.67188 312.85 369.45312 312.85Q369.20312 312.85 368.54688 312.5375Q367.95312 312.25626 367.53125 311.99063Q366.85938 312.38126 366.54688 312.49063Q366.15625 312.63126 365.625 312.63126L365.09375 312.63126L365.09375 311.61563L365.625 311.61563Q365.85938 311.61563 366.07812 311.58438Q366.29688 311.5375 366.6875 311.44376Q366.53125 311.31876 366.375 311.20938Q366.21875 311.06876 366.21875 310.92813Q366.21875 310.81876 366.21875 310.77188Q366.23438 310.725 366.29688 310.6L366.89062 309.58438Q367.0 309.38126 367.09375 309.30313Q367.1875 309.225 367.35938 309.17813Q366.95312 308.89688 366.95312 308.7875Q366.95312 308.6625 367.21875 308.17813Q367.3125 308.02188 367.48438 307.69376Q367.85938 308.05313 368.4375 308.725Q369.15625 309.58438 369.5625 310.25626Q370.125 311.14688 370.125 311.64688ZM368.0625 310.36563Q368.0625 310.11563 367.95312 309.975Q367.82812 309.80313 367.5625 309.80313Q367.28125 309.80313 367.04688 309.975Q366.8125 310.14688 366.8125 310.4125Q366.8125 310.64688 367.53125 311.0375Q367.78125 310.88126 367.90625 310.725Q368.0625 310.55313 368.0625 310.36563ZM369.46875 311.70938Q369.46875 311.50626 369.14062 311.06876Q368.9375 310.80313 368.64062 310.49063Q368.64062 310.77188 368.51562 311.02188Q368.39062 311.27188 368.17188 311.4125Q368.53125 311.58438 368.89062 311.77188Q369.1875 311.89688 369.29688 311.89688Q369.375 311.89688 369.42188 311.85Q369.46875 311.7875 369.46875 311.70938Z" fill-rule="nonzero"></path><path fill="#1a1a1a" d="M376.01562 307.13126L376.40625 305.85Q377.64062 307.08438 378.25 308.30313Q378.79688 309.36563 378.79688 310.24063Q378.79688 310.94376 378.40625 311.56876Q377.98438 312.25626 377.34375 312.25626Q377.1875 312.25626 377.04688 312.225Q376.90625 312.17813 376.73438 312.05313Q376.48438 312.25626 376.21875 312.35Q375.96875 312.44376 375.6875 312.44376Q375.125 312.44376 374.76562 312.13126Q374.39062 311.81876 374.39062 311.25626Q374.39062 310.6 374.85938 309.77188Q375.34375 308.92813 376.48438 307.58438L376.01562 307.13126ZM376.95312 310.85Q377.09375 310.975 377.3125 311.06876Q377.53125 311.1625 377.76562 311.1625Q378.04688 311.1625 378.23438 311.02188Q378.4375 310.86563 378.4375 310.64688Q378.4375 310.20938 377.92188 309.4125Q377.45312 308.69376 376.625 307.75626Q376.39062 308.02188 376.10938 308.4125Q375.73438 308.92813 375.5 309.4125Q375.21875 310.00626 375.21875 310.44376Q375.21875 310.81876 375.40625 311.0375Q375.60938 311.25626 375.96875 311.25626Q376.21875 311.25626 376.42188 311.17813Q376.64062 311.08438 376.95312 310.85ZM383.625 309.99063Q383.46875 310.50626 383.375 310.81876Q383.29688 311.13126 383.1875 311.725Q382.6875 311.44376 382.40625 311.24063Q382.21875 311.11563 381.73438 310.70938Q381.84375 310.17813 381.95312 309.83438Q382.0625 309.49063 382.25 308.92813Q382.57812 309.20938 382.92188 309.475Q383.14062 309.64688 383.625 309.99063ZM389.625 309.99063Q389.46875 310.50626 389.375 310.81876Q389.29688 311.13126 389.1875 311.725Q388.6875 311.44376 388.40625 311.24063Q388.21875 311.11563 387.73438 310.70938Q387.84375 310.17813 387.95312 309.83438Q388.0625 309.49063 388.25 308.92813Q388.57812 309.20938 388.92188 309.475Q389.14062 309.64688 389.625 309.99063Z" fill-rule="nonzero"></path><path fill="#1a1a1a" d="M399.48438 307.17813L399.03125 308.02188L398.09375 307.5375L398.53125 306.67813L399.48438 307.17813ZM400.35938 312.63126Q400.35938 313.27188 399.8125 313.975Q399.32812 314.58438 398.625 315.02188Q397.9375 315.44376 397.5 315.44376Q397.09375 315.44376 396.625 315.31876Q396.26562 315.24063 395.76562 315.05313Q395.34375 314.89688 394.9375 314.725L395.03125 314.49063Q395.42188 314.56876 395.84375 314.64688Q396.26562 314.725 396.59375 314.725Q397.34375 314.725 398.15625 314.25626Q398.90625 313.80313 399.42188 313.14688Q399.9375 312.475 399.9375 311.92813Q399.9375 311.45938 399.67188 310.95938Q399.45312 310.55313 399.0625 310.11563L399.40625 309.19376Q399.875 309.63126 400.10938 310.08438Q400.35938 310.58438 400.35938 311.20938L400.35938 312.63126ZM402.48438 311.13126Q402.48438 311.6 402.3125 312.05313Q402.21875 312.2875 401.9375 312.7875L401.82812 312.725Q401.84375 312.56876 401.85938 312.35Q401.875 312.11563 401.875 312.0375Q401.875 311.42813 401.76562 310.33438Q401.67188 309.24063 401.54688 308.05313Q401.46875 307.33438 401.35938 306.58438Q401.48438 306.33438 401.625 306.0375Q401.78125 305.725 401.90625 305.45938Q402.0 306.13126 402.14062 307.30313Q402.29688 308.45938 402.375 309.38126Q402.48438 310.55313 402.48438 311.13126ZM403.98438 316.88126L403.23438 316.88126Q404.98438 314.06876 404.98438 311.24063Q404.98438 310.14688 404.73438 309.05313Q404.53125 308.17813 404.17188 307.36563Q403.9375 306.85 403.23438 305.61563L403.98438 305.61563Q405.07812 307.08438 405.60938 308.56876Q406.0625 309.85 406.0625 311.24063Q406.0625 312.81876 405.45312 314.30313Q404.84375 315.77188 403.98438 316.88126ZM416.48438 312.63126L409.09375 312.63126L409.09375 311.61563L409.98438 311.6Q410.39062 311.6 410.73438 311.50626Q411.125 311.38126 411.64062 311.06876Q411.73438 310.80313 411.79688 310.52188Q411.875 310.225 411.875 309.94376Q411.875 309.31876 411.75 308.55313Q411.65625 308.00626 411.48438 307.27188Q411.39062 306.88126 411.23438 306.31876L410.875 306.14688Q410.92188 305.7875 411.0 305.45938Q411.07812 305.13126 411.21875 304.83438Q411.3125 305.1 411.64062 305.25626Q411.92188 305.38126 412.34375 305.4125Q412.29688 306.02188 412.26562 306.19376Q412.23438 306.35 412.15625 306.58438Q412.10938 306.58438 411.9375 306.5375L411.85938 306.50626Q412.0625 307.19376 412.1875 307.92813Q412.32812 308.64688 412.32812 309.13126Q412.32812 309.55313 412.25 310.05313Q412.21875 310.24063 412.14062 310.61563Q413.15625 310.0375 413.45312 309.89688Q414.3125 309.49063 414.9375 309.49063Q415.73438 309.49063 416.125 309.94376Q416.48438 310.36563 416.48438 311.14688L416.48438 312.63126ZM415.54688 311.1625Q415.54688 310.86563 415.23438 310.70938Q414.9375 310.55313 414.35938 310.55313Q413.9375 310.55313 413.375 310.74063Q412.92188 310.89688 412.40625 311.1625Q412.03125 311.36563 411.625 311.61563L414.17188 311.61563Q415.54688 311.61563 415.54688 311.1625ZM422.875 312.63126L422.42188 312.63126Q422.04688 312.63126 421.76562 312.5375Q421.5 312.42813 421.28125 312.24063Q421.0 312.45938 420.79688 312.52188Q420.5 312.63126 419.98438 312.63126L419.59375 312.63126Q419.29688 312.63126 418.98438 312.52188Q418.79688 312.44376 418.5 312.25626Q418.21875 312.475 417.98438 312.55313Q417.75 312.63126 417.21875 312.63126L416.09375 312.63126L416.09375 311.61563L417.21875 311.61563Q417.70312 311.61563 417.90625 311.5375Q418.23438 311.39688 418.23438 310.99063Q418.23438 310.81876 418.21875 310.64688Q418.20312 310.475 418.15625 310.27188L418.40625 309.9125Q418.5625 310.45938 418.67188 310.70938Q418.85938 311.13126 419.07812 311.35Q419.34375 311.61563 419.71875 311.61563L420.10938 311.61563Q420.5625 311.61563 420.76562 311.475Q421.0 311.31876 421.0 310.99063Q421.0 310.80313 420.96875 310.64688Q420.95312 310.475 420.90625 310.27188L421.15625 309.9125L421.28125 310.475Q421.4375 311.11563 421.67188 311.36563Q421.875 311.6 422.20312 311.6Q422.35938 311.6 422.45312 311.50626Q422.5625 311.39688 422.5625 311.25626Q422.5625 310.92813 422.3125 310.55313Q422.28125 310.50626 422.03125 310.17813L422.40625 309.5375Q422.65625 309.89688 422.73438 310.1625Q422.875 310.56876 422.875 311.225L422.875 312.63126ZM427.6875 312.2875Q427.6875 313.24063 426.96875 314.20938Q426.17188 315.27188 425.125 315.27188Q424.75 315.27188 424.32812 315.17813Q424.03125 315.11563 423.5625 314.95938Q423.17188 314.81876 422.79688 314.69376L422.89062 314.49063Q423.21875 314.56876 423.57812 314.64688Q423.9375 314.74063 424.23438 314.74063Q424.9375 314.74063 425.57812 314.38126Q426.07812 314.08438 426.57812 313.5375Q426.82812 313.27188 427.29688 312.64688Q426.5 312.64688 426.10938 312.39688Q425.67188 312.1 425.67188 311.44376Q425.67188 310.85 425.95312 310.33438Q426.28125 309.725 426.78125 309.725Q427.28125 309.725 427.51562 310.31876Q427.6875 310.7875 427.6875 311.61563L427.6875 312.2875ZM427.3125 311.64688Q427.1875 311.08438 427.0 310.86563Q426.84375 310.67813 426.625 310.67813Q426.45312 310.67813 426.32812 310.7875Q426.21875 310.89688 426.21875 311.05313Q426.21875 311.35 426.46875 311.50626Q426.73438 311.64688 427.3125 311.64688ZM430.40625 306.85L429.9375 307.69376L429.0 307.17813L429.4375 306.35L430.40625 306.85ZM429.04688 307.36563L428.60938 308.225L427.65625 307.725L428.09375 306.88126L429.04688 307.36563ZM430.4375 312.63126L427.09375 312.63126L427.09375 311.61563L430.0 311.61563Q430.0 310.92813 429.84375 310.55313Q429.73438 310.30313 429.28125 309.83438L429.75 308.88126Q430.17188 309.4125 430.26562 309.70938Q430.4375 310.1625 430.4375 311.20938L430.4375 312.63126ZM435.23438 312.63126L434.625 312.63126Q434.23438 312.63126 433.73438 312.45938Q433.17188 312.25626 432.73438 311.89688Q432.39062 312.30313 432.03125 312.475Q431.6875 312.63126 431.0 312.63126L430.09375 312.63126L430.09375 311.61563L430.98438 311.61563Q431.51562 311.61563 431.9375 311.35Q432.26562 311.13126 432.51562 310.75626Q432.875 310.24063 433.40625 309.85Q433.875 309.52188 434.26562 309.42813Q434.67188 310.0375 434.90625 310.52188Q435.23438 311.19376 435.23438 311.61563L435.23438 312.63126ZM434.5625 311.475Q434.48438 311.13126 434.32812 310.80313Q434.1875 310.5375 433.96875 310.24063Q433.6875 310.31876 433.48438 310.50626Q433.35938 310.63126 433.1875 310.92813Q433.39062 311.14688 433.76562 311.33438Q434.15625 311.50626 434.5 311.55313L434.5625 311.475ZM448.35938 312.63126L447.89062 312.63126Q447.54688 312.63126 447.28125 312.5375Q447.01562 312.44376 446.73438 312.225Q446.48438 312.44376 446.29688 312.52188Q446.01562 312.63126 445.48438 312.63126L444.76562 312.63126Q444.76562 313.17813 444.51562 313.67813Q444.17188 314.35 443.5 314.725Q442.625 315.225 441.34375 315.225Q440.17188 315.225 439.54688 314.80313Q438.85938 314.35 438.85938 313.42813Q438.85938 312.9125 438.98438 312.39688Q439.10938 311.88126 439.32812 311.36563Q439.45312 311.05313 439.76562 310.39688L440.0 310.50626Q439.59375 311.35 439.45312 311.83438Q439.32812 312.31876 439.32812 312.725Q439.32812 313.44376 439.84375 313.83438Q440.35938 314.20938 441.32812 314.20938Q442.45312 314.20938 443.32812 313.80313Q444.4375 313.31876 444.4375 312.44376Q444.4375 311.86563 444.21875 311.33438Q444.04688 310.92813 443.73438 310.5375L444.21875 309.33438Q444.51562 309.81876 444.625 310.19376Q444.76562 310.70938 444.76562 311.61563L445.48438 311.61563Q446.04688 311.61563 446.28125 311.44376Q446.48438 311.30313 446.48438 310.99063Q446.48438 310.81876 446.46875 310.64688Q446.45312 310.475 446.40625 310.27188L446.64062 309.9125L446.73438 310.49063Q446.85938 311.06876 447.07812 311.31876Q447.3125 311.6 447.76562 311.6Q447.89062 311.6 447.96875 311.52188Q448.04688 311.42813 448.04688 311.30313Q448.04688 311.00626 447.85938 310.6625Q447.71875 310.42813 447.5 310.17813L447.89062 309.5375Q448.17188 309.99063 448.23438 310.14688Q448.35938 310.52188 448.35938 311.225L448.35938 312.63126ZM451.25 312.63126L450.4375 312.63126Q450.03125 312.63126 449.79688 312.30313Q449.57812 312.02188 449.46875 311.475Q449.375 310.9125 449.3125 310.1Q449.28125 309.44376 449.23438 308.74063Q449.20312 308.0375 449.14062 307.67813Q449.07812 307.31876 448.96875 307.1Q448.84375 306.81876 448.60938 306.6L449.32812 305.45938Q449.5625 306.1625 449.65625 307.14688Q449.71875 307.75626 449.76562 310.0375Q449.875 311.06876 450.07812 311.36563Q450.23438 311.61563 450.4375 311.61563L451.25 311.61563L451.25 312.63126ZM454.4375 312.63126L451.09375 312.63126L451.09375 311.61563L454.0 311.61563Q454.0 310.92813 453.84375 310.55313Q453.73438 310.30313 453.28125 309.83438L453.75 308.88126Q454.17188 309.4125 454.26562 309.70938Q454.4375 310.1625 454.4375 311.20938L454.4375 312.63126ZM454.40625 313.80313L453.9375 314.64688L453.0 314.14688L453.4375 313.30313L454.40625 313.80313ZM453.04688 314.33438L452.60938 315.17813L451.65625 314.69376L452.09375 313.83438L453.04688 314.33438ZM457.40625 306.1L456.90625 306.89688L456.17188 306.4125L456.67188 305.63126L457.40625 306.1ZM456.0625 306.45938L455.59375 307.25626L454.875 306.77188L455.35938 305.99063L456.0625 306.45938ZM457.65625 312.63126L454.09375 312.63126L454.09375 311.61563L456.09375 311.61563Q456.46875 311.61563 456.71875 311.58438Q456.96875 311.55313 457.26562 311.475Q456.26562 311.31876 455.96875 311.19376Q455.29688 310.89688 455.29688 310.19376Q455.29688 309.58438 455.60938 309.0375Q455.98438 308.42813 456.5 308.42813Q457.09375 308.42813 457.40625 309.19376Q457.65625 309.7875 457.65625 310.61563L457.65625 312.63126ZM457.125 310.58438Q456.98438 310.11563 456.875 309.89688Q456.625 309.44376 456.28125 309.44376Q456.125 309.44376 456.0 309.58438Q455.89062 309.70938 455.89062 309.88126Q455.89062 310.33438 456.35938 310.475Q456.51562 310.5375 457.125 310.58438ZM462.23438 312.63126L461.625 312.63126Q461.23438 312.63126 460.73438 312.45938Q460.17188 312.25626 459.73438 311.89688Q459.39062 312.30313 459.03125 312.475Q458.6875 312.63126 458.0 312.63126L457.09375 312.63126L457.09375 311.61563L457.98438 311.61563Q458.51562 311.61563 458.9375 311.35Q459.26562 311.13126 459.51562 310.75626Q459.875 310.24063 460.40625 309.85Q460.875 309.52188 461.26562 309.42813Q461.67188 310.0375 461.90625 310.52188Q462.23438 311.19376 462.23438 311.61563L462.23438 312.63126ZM461.5625 311.475Q461.48438 311.13126 461.32812 310.80313Q461.1875 310.5375 460.96875 310.24063Q460.6875 310.31876 460.48438 310.50626Q460.35938 310.63126 460.1875 310.92813Q460.39062 311.14688 460.76562 311.33438Q461.15625 311.50626 461.5 311.55313L461.5625 311.475Z" fill-rule="nonzero"></path><path fill="#fbbc04" d="M214.0 328.35C214.0 331.6637 211.3137 334.35 208.0 334.35C204.6863 334.35 202.0 331.6637 202.0 328.35C202.0 325.0363 204.6863 322.35 208.0 322.35C211.3137 322.35 214.0 325.0363 214.0 328.35Z" fill-rule="nonzero"></path><path fill="#1a1a1a" d="M224.8125 334.88126Q223.9375 333.77188 223.32812 332.30313Q222.73438 330.81876 222.73438 329.24063Q222.73438 327.85 223.17188 326.56876Q223.70312 325.08438 224.8125 323.61563L225.5625 323.61563Q224.85938 324.83438 224.625 325.35Q224.26562 326.1625 224.0625 327.0375Q223.8125 328.13126 223.8125 329.24063Q223.8125 332.06876 225.5625 334.88126L224.8125 334.88126ZM231.85938 330.63126Q231.85938 331.27188 231.3125 331.975Q230.82812 332.58438 230.125 333.02188Q229.4375 333.44376 229.0 333.44376Q228.59375 333.44376 228.125 333.31876Q227.76562 333.24063 227.26562 333.05313Q226.84375 332.89688 226.4375 332.725L226.53125 332.49063Q226.92188 332.56876 227.34375 332.64688Q227.76562 332.725 228.09375 332.725Q228.84375 332.725 229.65625 332.25626Q230.40625 331.80313 230.92188 331.14688Q231.4375 330.475 231.4375 329.92813Q231.4375 329.45938 231.17188 328.95938Q230.95312 328.55313 230.5625 328.11563L230.90625 327.19376Q231.375 327.63126 231.60938 328.08438Q231.85938 328.58438 231.85938 329.20938L231.85938 330.63126ZM234.64062 324.4125L234.125 325.25626L233.3125 324.69376L233.79688 323.86563L234.64062 324.4125ZM235.15625 330.63126L231.59375 330.63126L231.59375 329.61563L233.59375 329.61563Q233.96875 329.61563 234.21875 329.58438Q234.46875 329.55313 234.76562 329.475Q233.76562 329.31876 233.46875 329.19376Q232.79688 328.89688 232.79688 328.19376Q232.79688 327.58438 233.10938 327.0375Q233.48438 326.42813 234.0 326.42813Q234.59375 326.42813 234.90625 327.19376Q235.15625 327.7875 235.15625 328.61563L235.15625 330.63126ZM234.625 328.58438Q234.48438 328.11563 234.375 327.89688Q234.125 327.44376 233.78125 327.44376Q233.625 327.44376 233.5 327.58438Q233.39062 327.70938 233.39062 327.88126Q233.39062 328.33438 233.85938 328.475Q234.01562 328.5375 234.625 328.58438ZM237.46875 325.20938L237.01562 326.06876L236.0625 325.56876L236.5 324.725L237.46875 325.20938ZM237.9375 330.63126L234.59375 330.63126L234.59375 329.61563L237.5 329.61563Q237.5 328.92813 237.34375 328.55313Q237.23438 328.30313 236.78125 327.83438L237.25 326.88126Q237.67188 327.4125 237.76562 327.70938Q237.9375 328.1625 237.9375 329.20938L237.9375 330.63126ZM245.125 326.13126L244.6875 326.975L243.78125 326.475L244.20312 325.6625L245.125 326.13126ZM247.3125 330.63126Q247.3125 331.94376 246.54688 332.55313Q245.71875 333.225 243.875 333.225Q242.70312 333.225 242.07812 332.80313Q241.40625 332.35 241.40625 331.42813Q241.40625 330.9125 241.53125 330.39688Q241.65625 329.88126 241.85938 329.36563Q241.98438 329.05313 242.3125 328.39688L242.54688 328.50626Q242.125 329.35 242.0 329.83438Q241.875 330.31876 241.875 330.725Q241.875 331.44376 242.39062 331.83438Q242.90625 332.20938 243.85938 332.20938Q244.96875 332.20938 245.82812 331.80313Q246.89062 331.31876 246.89062 330.44376Q246.89062 329.85 246.71875 329.33438Q246.5625 328.88126 246.28125 328.5375L246.76562 327.33438Q247.07812 327.81876 247.1875 328.31876Q247.3125 328.80313 247.3125 329.61563L247.3125 330.63126ZM252.1875 330.2875Q252.1875 331.24063 251.46875 332.20938Q250.67188 333.27188 249.625 333.27188Q249.25 333.27188 248.82812 333.17813Q248.53125 333.11563 248.0625 332.95938Q247.67188 332.81876 247.29688 332.69376L247.39062 332.49063Q247.71875 332.56876 248.07812 332.64688Q248.4375 332.74063 248.73438 332.74063Q249.4375 332.74063 250.07812 332.38126Q250.57812 332.08438 251.07812 331.5375Q251.32812 331.27188 251.79688 330.64688Q251.0 330.64688 250.60938 330.39688Q250.17188 330.1 250.17188 329.44376Q250.17188 328.85 250.45312 328.33438Q250.78125 327.725 251.28125 327.725Q251.78125 327.725 252.01562 328.31876Q252.1875 328.7875 252.1875 329.61563L252.1875 330.2875ZM251.8125 329.64688Q251.6875 329.08438 251.5 328.86563Q251.34375 328.67813 251.125 328.67813Q250.95312 328.67813 250.82812 328.7875Q250.71875 328.89688 250.71875 329.05313Q250.71875 329.35 250.96875 329.50626Q251.23438 329.64688 251.8125 329.64688ZM254.9375 330.63126L251.59375 330.63126L251.59375 329.61563L254.5 329.61563Q254.5 328.92813 254.34375 328.55313Q254.23438 328.30313 253.78125 327.83438L254.25 326.88126Q254.67188 327.4125 254.76562 327.70938Q254.9375 328.1625 254.9375 329.20938L254.9375 330.63126ZM254.90625 331.80313L254.4375 332.64688L253.5 332.14688L253.9375 331.30313L254.90625 331.80313ZM253.54688 332.33438L253.10938 333.17813L252.15625 332.69376L252.59375 331.83438L253.54688 332.33438ZM257.48438 330.63126L254.59375 330.63126L254.59375 329.61563L256.89062 329.61563L256.20312 324.64688L255.89062 324.49063Q255.89062 324.1 255.95312 323.74063Q256.03125 323.38126 256.17188 323.05313L256.26562 323.11563Q256.26562 323.45938 256.64062 323.63126Q256.9375 323.74063 257.23438 323.86563Q257.23438 324.14688 257.1875 324.49063Q257.14062 324.81876 257.07812 324.99063L256.79688 324.89688L257.48438 329.49063L257.48438 330.63126ZM259.9375 330.63126L256.59375 330.63126L256.59375 329.61563L259.5 329.61563Q259.5 328.92813 259.34375 328.55313Q259.23438 328.30313 258.78125 327.83438L259.25 326.88126Q259.67188 327.4125 259.76562 327.70938Q259.9375 328.1625 259.9375 329.20938L259.9375 330.63126ZM259.90625 331.80313L259.4375 332.64688L258.5 332.14688L258.9375 331.30313L259.90625 331.80313ZM258.54688 332.33438L258.10938 333.17813L257.15625 332.69376L257.59375 331.83438L258.54688 332.33438ZM264.73438 330.63126L264.125 330.63126Q263.73438 330.63126 263.23438 330.45938Q262.67188 330.25626 262.23438 329.89688Q261.89062 330.30313 261.53125 330.475Q261.1875 330.63126 260.5 330.63126L259.59375 330.63126L259.59375 329.61563L260.48438 329.61563Q261.01562 329.61563 261.4375 329.35Q261.76562 329.13126 262.01562 328.75626Q262.375 328.24063 262.90625 327.85Q263.375 327.52188 263.76562 327.42813Q264.17188 328.0375 264.40625 328.52188Q264.73438 329.19376 264.73438 329.61563L264.73438 330.63126ZM264.0625 329.475Q263.98438 329.13126 263.82812 328.80313Q263.6875 328.5375 263.46875 328.24063Q263.1875 328.31876 262.98438 328.50626Q262.85938 328.63126 262.6875 328.92813Q262.89062 329.14688 263.26562 329.33438Q263.65625 329.50626 264.0 329.55313L264.0625 329.475Z" fill-rule="nonzero"></path><path fill="#1a1a1a" d="M271.92188 328.17813Q271.92188 328.70938 271.84375 329.4125Q271.82812 329.58438 271.6875 330.63126L271.48438 330.63126Q271.48438 330.49063 271.5 329.81876Q271.5 328.56876 271.17188 327.49063Q270.90625 326.6625 270.4375 325.92813Q270.20312 325.55313 269.76562 325.02188L270.32812 323.75626Q270.79688 324.30313 271.07812 324.7875Q271.46875 325.45938 271.6875 326.20938Q271.92188 327.1 271.92188 328.17813Z" fill-rule="nonzero"></path><path fill="#1a1a1a" d="M281.98438 325.17813L281.53125 326.02188L280.59375 325.5375L281.03125 324.67813L281.98438 325.17813ZM282.85938 330.63126Q282.85938 331.27188 282.3125 331.975Q281.82812 332.58438 281.125 333.02188Q280.4375 333.44376 280.0 333.44376Q279.59375 333.44376 279.125 333.31876Q278.76562 333.24063 278.26562 333.05313Q277.84375 332.89688 277.4375 332.725L277.53125 332.49063Q277.92188 332.56876 278.34375 332.64688Q278.76562 332.725 279.09375 332.725Q279.84375 332.725 280.65625 332.25626Q281.40625 331.80313 281.92188 331.14688Q282.4375 330.475 282.4375 329.92813Q282.4375 329.45938 282.17188 328.95938Q281.95312 328.55313 281.5625 328.11563L281.90625 327.19376Q282.375 327.63126 282.60938 328.08438Q282.85938 328.58438 282.85938 329.20938L282.85938 330.63126ZM284.98438 329.13126Q284.98438 329.6 284.8125 330.05313Q284.71875 330.2875 284.4375 330.7875L284.32812 330.725Q284.34375 330.56876 284.35938 330.35Q284.375 330.11563 284.375 330.0375Q284.375 329.42813 284.26562 328.33438Q284.17188 327.24063 284.04688 326.05313Q283.96875 325.33438 283.85938 324.58438Q283.98438 324.33438 284.125 324.0375Q284.28125 323.725 284.40625 323.45938Q284.5 324.13126 284.64062 325.30313Q284.79688 326.45938 284.875 327.38126Q284.98438 328.55313 284.98438 329.13126ZM296.23438 324.27188L295.78125 325.13126L294.84375 324.61563L295.28125 323.77188L296.23438 324.27188ZM297.39062 325.31876L296.9375 326.1625L295.98438 325.64688L296.42188 324.81876L297.39062 325.31876ZM296.04688 325.83438L295.59375 326.69376L294.65625 326.19376L295.07812 325.35L296.04688 325.83438ZM297.85938 330.63126L297.39062 330.63126Q297.04688 330.63126 296.78125 330.5375Q296.51562 330.44376 296.23438 330.225Q295.98438 330.44376 295.79688 330.52188Q295.51562 330.63126 294.98438 330.63126L294.26562 330.63126Q294.26562 331.17813 294.01562 331.67813Q293.67188 332.35 293.0 332.725Q292.125 333.225 290.84375 333.225Q289.67188 333.225 289.04688 332.80313Q288.35938 332.35 288.35938 331.42813Q288.35938 330.9125 288.48438 330.39688Q288.60938 329.88126 288.82812 329.36563Q288.95312 329.05313 289.26562 328.39688L289.5 328.50626Q289.09375 329.35 288.95312 329.83438Q288.82812 330.31876 288.82812 330.725Q288.82812 331.44376 289.34375 331.83438Q289.85938 332.20938 290.82812 332.20938Q291.95312 332.20938 292.82812 331.80313Q293.9375 331.31876 293.9375 330.44376Q293.9375 329.86563 293.71875 329.33438Q293.54688 328.92813 293.23438 328.5375L293.71875 327.33438Q294.01562 327.81876 294.125 328.19376Q294.26562 328.70938 294.26562 329.61563L294.98438 329.61563Q295.54688 329.61563 295.78125 329.44376Q295.98438 329.30313 295.98438 328.99063Q295.98438 328.81876 295.96875 328.64688Q295.95312 328.475 295.90625 328.27188L296.14062 327.9125L296.23438 328.49063Q296.35938 329.06876 296.57812 329.31876Q296.8125 329.6 297.26562 329.6Q297.39062 329.6 297.46875 329.52188Q297.54688 329.42813 297.54688 329.30313Q297.54688 329.00626 297.35938 328.6625Q297.21875 328.42813 297.0 328.17813L297.39062 327.5375Q297.67188 327.99063 297.73438 328.14688Q297.85938 328.52188 297.85938 329.225L297.85938 330.63126ZM300.9375 330.63126L297.59375 330.63126L297.59375 329.61563L300.5 329.61563Q300.5 328.92813 300.34375 328.55313Q300.23438 328.30313 299.78125 327.83438L300.25 326.88126Q300.67188 327.4125 300.76562 327.70938Q300.9375 328.1625 300.9375 329.20938L300.9375 330.63126ZM300.90625 331.80313L300.4375 332.64688L299.5 332.14688L299.9375 331.30313L300.90625 331.80313ZM299.54688 332.33438L299.10938 333.17813L298.15625 332.69376L298.59375 331.83438L299.54688 332.33438ZM303.9375 330.63126L300.59375 330.63126L300.59375 329.61563L303.5 329.61563Q303.5 328.92813 303.34375 328.55313Q303.23438 328.30313 302.78125 327.83438L303.25 326.88126Q303.67188 327.4125 303.76562 327.70938Q303.9375 328.1625 303.9375 329.20938L303.9375 330.63126ZM303.32812 332.05313L302.875 332.9125L301.92188 332.4125L302.35938 331.55313L303.32812 332.05313ZM305.48438 334.88126L304.73438 334.88126Q306.48438 332.06876 306.48438 329.24063Q306.48438 328.14688 306.23438 327.05313Q306.03125 326.17813 305.67188 325.36563Q305.4375 324.85 304.73438 323.61563L305.48438 323.61563Q306.57812 325.08438 307.10938 326.56876Q307.5625 327.85 307.5625 329.24063Q307.5625 330.81876 306.95312 332.30313Q306.34375 333.77188 305.48438 334.88126ZM320.0625 329.61563Q319.65625 328.99063 319.125 328.5375Q318.59375 328.06876 317.70312 327.5375L317.51562 327.725L316.8125 327.19376Q316.45312 326.88126 316.45312 326.725Q316.45312 325.70938 316.95312 325.13126Q317.40625 324.61563 318.53125 324.19376L320.17188 323.5375L320.17188 324.55313L318.95312 324.95938Q318.21875 325.20938 317.76562 325.4125Q317.1875 325.6625 317.1875 325.7875Q317.1875 325.92813 317.5625 326.20938Q317.79688 326.38126 318.04688 326.55313Q318.9375 327.24063 319.59375 327.975Q320.3125 328.75626 320.75 329.61563L320.75 330.63126L313.75 330.63126Q312.34375 330.63126 311.75 330.30313Q311.125 329.94376 311.125 329.08438Q311.125 328.56876 311.39062 327.9125Q311.46875 327.725 311.71875 327.24063L311.92188 327.35Q311.71875 327.80313 311.65625 328.05313Q311.59375 328.30313 311.59375 328.52188Q311.59375 329.1625 312.26562 329.4125Q312.76562 329.61563 313.75 329.61563L320.0625 329.61563ZM320.17188 321.94376L320.17188 322.92813Q318.90625 323.39688 317.82812 323.9125Q316.875 324.38126 316.32812 324.74063L316.32812 324.11563Q316.51562 323.9125 317.07812 323.55313Q317.64062 323.17813 318.4375 322.75626Q319.3125 322.30313 320.17188 321.94376ZM326.85938 330.63126Q326.85938 331.27188 326.3125 331.975Q325.82812 332.58438 325.125 333.02188Q324.4375 333.44376 324.0 333.44376Q323.59375 333.44376 323.125 333.31876Q322.76562 333.24063 322.26562 333.05313Q321.84375 332.89688 321.4375 332.725L321.53125 332.49063Q321.92188 332.56876 322.34375 332.64688Q322.76562 332.725 323.09375 332.725Q323.84375 332.725 324.65625 332.25626Q325.40625 331.80313 325.92188 331.14688Q326.4375 330.475 326.4375 329.92813Q326.4375 329.45938 326.17188 328.95938Q325.95312 328.55313 325.5625 328.11563L325.90625 327.19376Q326.375 327.63126 326.60938 328.08438Q326.85938 328.58438 326.85938 329.20938L326.85938 330.63126ZM331.98438 325.17813L331.53125 326.02188L330.59375 325.5375L331.03125 324.67813L331.98438 325.17813ZM332.85938 330.63126Q332.85938 331.27188 332.3125 331.975Q331.82812 332.58438 331.125 333.02188Q330.4375 333.44376 330.0 333.44376Q329.59375 333.44376 329.125 333.31876Q328.76562 333.24063 328.26562 333.05313Q327.84375 332.89688 327.4375 332.725L327.53125 332.49063Q327.92188 332.56876 328.34375 332.64688Q328.76562 332.725 329.09375 332.725Q329.84375 332.725 330.65625 332.25626Q331.40625 331.80313 331.92188 331.14688Q332.4375 330.475 332.4375 329.92813Q332.4375 329.45938 332.17188 328.95938Q331.95312 328.55313 331.5625 328.11563L331.90625 327.19376Q332.375 327.63126 332.60938 328.08438Q332.85938 328.58438 332.85938 329.20938L332.85938 330.63126ZM335.9375 330.63126L332.59375 330.63126L332.59375 329.61563L335.5 329.61563Q335.5 328.92813 335.34375 328.55313Q335.23438 328.30313 334.78125 327.83438L335.25 326.88126Q335.67188 327.4125 335.76562 327.70938Q335.9375 328.1625 335.9375 329.20938L335.9375 330.63126ZM335.32812 332.05313L334.875 332.9125L333.92188 332.4125L334.35938 331.55313L335.32812 332.05313ZM348.85938 330.63126L348.39062 330.63126Q348.04688 330.63126 347.78125 330.5375Q347.51562 330.44376 347.23438 330.225Q346.98438 330.44376 346.79688 330.52188Q346.51562 330.63126 345.98438 330.63126L345.26562 330.63126Q345.26562 331.17813 345.01562 331.67813Q344.67188 332.35 344.0 332.725Q343.125 333.225 341.84375 333.225Q340.67188 333.225 340.04688 332.80313Q339.35938 332.35 339.35938 331.42813Q339.35938 330.9125 339.48438 330.39688Q339.60938 329.88126 339.82812 329.36563Q339.95312 329.05313 340.26562 328.39688L340.5 328.50626Q340.09375 329.35 339.95312 329.83438Q339.82812 330.31876 339.82812 330.725Q339.82812 331.44376 340.34375 331.83438Q340.85938 332.20938 341.82812 332.20938Q342.95312 332.20938 343.82812 331.80313Q344.9375 331.31876 344.9375 330.44376Q344.9375 329.86563 344.71875 329.33438Q344.54688 328.92813 344.23438 328.5375L344.71875 327.33438Q345.01562 327.81876 345.125 328.19376Q345.26562 328.70938 345.26562 329.61563L345.98438 329.61563Q346.54688 329.61563 346.78125 329.44376Q346.98438 329.30313 346.98438 328.99063Q346.98438 328.81876 346.96875 328.64688Q346.95312 328.475 346.90625 328.27188L347.14062 327.9125L347.23438 328.49063Q347.35938 329.06876 347.57812 329.31876Q347.8125 329.6 348.26562 329.6Q348.39062 329.6 348.46875 329.52188Q348.54688 329.42813 348.54688 329.30313Q348.54688 329.00626 348.35938 328.6625Q348.21875 328.42813 348.0 328.17813L348.39062 327.5375Q348.67188 327.99063 348.73438 328.14688Q348.85938 328.52188 348.85938 329.225L348.85938 330.63126ZM351.75 330.63126L350.9375 330.63126Q350.53125 330.63126 350.29688 330.30313Q350.07812 330.02188 349.96875 329.475Q349.875 328.9125 349.8125 328.1Q349.78125 327.44376 349.73438 326.74063Q349.70312 326.0375 349.64062 325.67813Q349.57812 325.31876 349.46875 325.1Q349.34375 324.81876 349.10938 324.6L349.82812 323.45938Q350.0625 324.1625 350.15625 325.14688Q350.21875 325.75626 350.26562 328.0375Q350.375 329.06876 350.57812 329.36563Q350.73438 329.61563 350.9375 329.61563L351.75 329.61563L351.75 330.63126ZM354.9375 330.63126L351.59375 330.63126L351.59375 329.61563L354.5 329.61563Q354.5 328.92813 354.34375 328.55313Q354.23438 328.30313 353.78125 327.83438L354.25 326.88126Q354.67188 327.4125 354.76562 327.70938Q354.9375 328.1625 354.9375 329.20938L354.9375 330.63126ZM354.90625 331.80313L354.4375 332.64688L353.5 332.14688L353.9375 331.30313L354.90625 331.80313ZM353.54688 332.33438L353.10938 333.17813L352.15625 332.69376L352.59375 331.83438L353.54688 332.33438ZM357.90625 324.1L357.40625 324.89688L356.67188 324.4125L357.17188 323.63126L357.90625 324.1ZM356.5625 324.45938L356.09375 325.25626L355.375 324.77188L355.85938 323.99063L356.5625 324.45938ZM358.15625 330.63126L354.59375 330.63126L354.59375 329.61563L356.59375 329.61563Q356.96875 329.61563 357.21875 329.58438Q357.46875 329.55313 357.76562 329.475Q356.76562 329.31876 356.46875 329.19376Q355.79688 328.89688 355.79688 328.19376Q355.79688 327.58438 356.10938 327.0375Q356.48438 326.42813 357.0 326.42813Q357.59375 326.42813 357.90625 327.19376Q358.15625 327.7875 358.15625 328.61563L358.15625 330.63126ZM357.625 328.58438Q357.48438 328.11563 357.375 327.89688Q357.125 327.44376 356.78125 327.44376Q356.625 327.44376 356.5 327.58438Q356.39062 327.70938 356.39062 327.88126Q356.39062 328.33438 356.85938 328.475Q357.01562 328.5375 357.625 328.58438ZM362.73438 330.63126L362.125 330.63126Q361.73438 330.63126 361.23438 330.45938Q360.67188 330.25626 360.23438 329.89688Q359.89062 330.30313 359.53125 330.475Q359.1875 330.63126 358.5 330.63126L357.59375 330.63126L357.59375 329.61563L358.48438 329.61563Q359.01562 329.61563 359.4375 329.35Q359.76562 329.13126 360.01562 328.75626Q360.375 328.24063 360.90625 327.85Q361.375 327.52188 361.76562 327.42813Q362.17188 328.0375 362.40625 328.52188Q362.73438 329.19376 362.73438 329.61563L362.73438 330.63126ZM362.0625 329.475Q361.98438 329.13126 361.82812 328.80313Q361.6875 328.5375 361.46875 328.24063Q361.1875 328.31876 360.98438 328.50626Q360.85938 328.63126 360.6875 328.92813Q360.89062 329.14688 361.26562 329.33438Q361.65625 329.50626 362.0 329.55313L362.0625 329.475Z" fill-rule="nonzero"></path></svg> 