<?xml version="1.0" encoding="UTF-8"?> <svg xmlns:xlink="http://www.w3.org/1999/xlink" xmlns="http://www.w3.org/2000/svg" version="1.1" viewBox="0.0 0.0 565.0 353.0" fill="none" stroke="none" stroke-linecap="square" stroke-miterlimit="10" width="565" height="353"><path fill="#ffffff" d="M0 0L565.0 0L565.0 353.0L0 353.0L0 0Z" fill-rule="nonzero"></path><path fill="#2e5dab" d="M427.96667 174.02667C427.96667 210.64705 399.87512 244.44705 354.3968 262.54666L354.3968 240.72665C399.87512 222.62706 427.96667 188.82706 427.96667 152.20667Z" fill-rule="nonzero"></path><path fill="#4285f4" d="M282.5 50.38C348.51828 50.38 406.25864 81.50054 423.134 126.17808C440.00937 170.8556 411.7878 217.88602 354.3968 240.72665L282.5 152.20667Z" fill-rule="nonzero"></path><path fill="#a42f25" d="M354.3968 262.54666C309.36768 280.46744 254.12193 280.2752 209.3496 262.04193C164.57724 243.80867 137.03334 210.2853 137.03334 174.02667L137.03334 152.20667C137.03334 188.4653 164.57724 221.98866 209.3496 240.22194C254.12193 258.45523 309.36768 258.64746 354.3968 240.72665Z" fill-rule="nonzero"></path><path fill="#ea4335" d="M354.3968 240.72665C301.3368 261.84363 235.08699 257.5281 188.50436 229.92046C141.92174 202.31279 124.914024 157.28488 145.91629 117.16859C166.91856 77.052284 221.4638 50.38 282.5 50.38L282.5 152.20667Z" fill-rule="nonzero"></path><path fill="#000000" d="M365.75244 138.93532L365.75244 136.52907L361.39307 136.52907L361.39307 135.40407L365.9712 128.9197L366.9712 128.9197L366.9712 135.40407L368.33057 135.40407L368.33057 136.52907L366.9712 136.52907L366.9712 138.93532L365.75244 138.93532ZM365.75244 135.40407L365.75244 130.88844L362.61182 135.40407L365.75244 135.40407ZM374.43994 138.93532L373.20557 138.93532L373.20557 131.09157Q372.76807 131.51344 372.0337 131.95094Q371.31494 132.37282 370.75244 132.57594L370.75244 131.38844Q371.7837 130.90407 372.54932 130.21657Q373.33057 129.52907 373.64307 128.87282L374.43994 128.87282L374.43994 138.93532ZM378.48682 138.93532L378.48682 137.52907L379.89307 137.52907L379.89307 138.93532L378.48682 138.93532ZM383.68994 133.49782Q382.92432 133.21657 382.54932 132.70094Q382.18994 132.18532 382.18994 131.45094Q382.18994 130.3572 382.9712 129.62282Q383.76807 128.87282 385.06494 128.87282Q386.37744 128.87282 387.17432 129.63844Q387.98682 130.40407 387.98682 131.49782Q387.98682 132.18532 387.61182 132.70094Q387.25244 133.21657 386.50244 133.49782Q387.42432 133.7947 387.9087 134.46657Q388.39307 135.13844 388.39307 136.07594Q388.39307 137.3572 387.48682 138.2322Q386.58057 139.1072 385.0962 139.1072Q383.61182 139.1072 382.68994 138.2322Q381.7837 137.34157 381.7837 136.02907Q381.7837 135.06032 382.2837 134.40407Q382.7837 133.7322 383.68994 133.49782ZM383.45557 131.4197Q383.45557 132.12282 383.9087 132.57594Q384.36182 133.02907 385.0962 133.02907Q385.81494 133.02907 386.26807 132.59157Q386.7212 132.13844 386.7212 131.4822Q386.7212 130.81032 386.25244 130.3572Q385.7837 129.88844 385.08057 129.88844Q384.37744 129.88844 383.9087 130.34157Q383.45557 130.77907 383.45557 131.4197ZM383.04932 136.0447Q383.04932 136.57594 383.29932 137.07594Q383.54932 137.56032 384.0337 137.82594Q384.5337 138.09157 385.11182 138.09157Q385.98682 138.09157 386.54932 137.52907Q387.12744 136.96657 387.12744 136.09157Q387.12744 135.20094 386.5337 134.62282Q385.95557 134.02907 385.06494 134.02907Q384.18994 134.02907 383.61182 134.6072Q383.04932 135.18532 383.04932 136.0447ZM390.0337 131.32594Q390.0337 130.24782 390.56494 129.49782Q391.11182 128.74782 392.14307 128.74782Q393.08057 128.74782 393.68994 129.4197Q394.31494 130.09157 394.31494 131.38844Q394.31494 132.6697 393.68994 133.3572Q393.06494 134.0447 392.1587 134.0447Q391.25244 134.0447 390.64307 133.37282Q390.0337 132.68532 390.0337 131.32594ZM392.17432 129.59157Q391.7212 129.59157 391.4087 129.99782Q391.11182 130.38844 391.11182 131.43532Q391.11182 132.40407 391.4087 132.7947Q391.7212 133.18532 392.17432 133.18532Q392.64307 133.18532 392.93994 132.7947Q393.25244 132.40407 393.25244 131.34157Q393.25244 130.37282 392.93994 129.9822Q392.62744 129.59157 392.17432 129.59157ZM392.17432 139.31032L397.6587 128.74782L398.6587 128.74782L393.20557 139.31032L392.17432 139.31032ZM396.51807 136.57594Q396.51807 135.49782 397.04932 134.76344Q397.5962 134.01344 398.62744 134.01344Q399.56494 134.01344 400.18994 134.68532Q400.81494 135.3572 400.81494 136.65407Q400.81494 137.93532 400.18994 138.62282Q399.56494 139.31032 398.62744 139.31032Q397.7212 139.31032 397.11182 138.63844Q396.51807 137.95094 396.51807 136.57594ZM398.6587 134.8572Q398.18994 134.8572 397.89307 135.26344Q397.5962 135.65407 397.5962 136.70094Q397.5962 137.6697 397.89307 138.06032Q398.20557 138.45094 398.6587 138.45094Q399.12744 138.45094 399.42432 138.06032Q399.73682 137.6697 399.73682 136.6072Q399.73682 135.63844 399.42432 135.24782Q399.12744 134.8572 398.6587 134.8572Z" fill-rule="nonzero"></path><path fill="#000000" d="M164.35692 172.85303L165.6538 172.74365Q165.79442 173.68115 166.31004 174.16553Q166.8413 174.63428 167.57567 174.63428Q168.4663 174.63428 169.07567 173.9624Q169.70067 173.29053 169.70067 172.19678Q169.70067 171.13428 169.10692 170.5249Q168.51317 169.91553 167.56004 169.91553Q166.9663 169.91553 166.48192 170.19678Q166.01317 170.4624 165.73192 170.88428L164.57567 170.74365L165.54442 165.5874L170.5288 165.5874L170.5288 166.7749L166.5288 166.7749L165.99754 169.4624Q166.9038 168.8374 167.88817 168.8374Q169.20067 168.8374 170.0913 169.74365Q170.99754 170.6499 170.99754 172.0874Q170.99754 173.44678 170.2163 174.43115Q169.24754 175.6499 167.57567 175.6499Q166.2163 175.6499 165.3413 174.88428Q164.48192 174.11865 164.35692 172.85303ZM174.24754 170.04053Q173.48192 169.75928 173.10692 169.24365Q172.74754 168.72803 172.74754 167.99365Q172.74754 166.8999 173.5288 166.16553Q174.32567 165.41553 175.62254 165.41553Q176.93504 165.41553 177.73192 166.18115Q178.54442 166.94678 178.54442 168.04053Q178.54442 168.72803 178.16942 169.24365Q177.81004 169.75928 177.06004 170.04053Q177.98192 170.3374 178.4663 171.00928Q178.95067 171.68115 178.95067 172.61865Q178.95067 173.8999 178.04442 174.7749Q177.13817 175.6499 175.6538 175.6499Q174.16942 175.6499 173.24754 174.7749Q172.3413 173.88428 172.3413 172.57178Q172.3413 171.60303 172.8413 170.94678Q173.3413 170.2749 174.24754 170.04053ZM174.01317 167.9624Q174.01317 168.66553 174.4663 169.11865Q174.91942 169.57178 175.6538 169.57178Q176.37254 169.57178 176.82567 169.13428Q177.2788 168.68115 177.2788 168.0249Q177.2788 167.35303 176.81004 166.8999Q176.3413 166.43115 175.63817 166.43115Q174.93504 166.43115 174.4663 166.88428Q174.01317 167.32178 174.01317 167.9624ZM173.60692 172.5874Q173.60692 173.11865 173.85692 173.61865Q174.10692 174.10303 174.5913 174.36865Q175.0913 174.63428 175.66942 174.63428Q176.54442 174.63428 177.10692 174.07178Q177.68504 173.50928 177.68504 172.63428Q177.68504 171.74365 177.0913 171.16553Q176.51317 170.57178 175.62254 170.57178Q174.74754 170.57178 174.16942 171.1499Q173.60692 171.72803 173.60692 172.5874ZM181.04442 175.47803L181.04442 174.07178L182.45067 174.07178L182.45067 175.47803L181.04442 175.47803ZM190.82567 174.29053L190.82567 175.47803L184.20067 175.47803Q184.18504 175.04053 184.3413 174.61865Q184.60692 173.94678 185.1538 173.29053Q185.7163 172.63428 186.76317 171.7749Q188.4038 170.43115 188.9663 169.6499Q189.54442 168.86865 189.54442 168.16553Q189.54442 167.43115 189.01317 166.93115Q188.49754 166.43115 187.66942 166.43115Q186.7788 166.43115 186.23192 166.9624Q185.70067 167.49365 185.70067 168.44678L184.43504 168.30615Q184.56004 166.8999 185.4038 166.16553Q186.26317 165.41553 187.68504 165.41553Q189.13817 165.41553 189.9663 166.2124Q190.81004 167.00928 190.81004 168.19678Q190.81004 168.80615 190.56004 169.38428Q190.32567 169.9624 189.74754 170.60303Q189.18504 171.24365 187.85692 172.36865Q186.74754 173.29053 186.43504 173.63428Q186.12254 173.9624 185.91942 174.29053L190.82567 174.29053ZM192.5913 167.86865Q192.5913 166.79053 193.12254 166.04053Q193.66942 165.29053 194.70067 165.29053Q195.63817 165.29053 196.24754 165.9624Q196.87254 166.63428 196.87254 167.93115Q196.87254 169.2124 196.24754 169.8999Q195.62254 170.5874 194.7163 170.5874Q193.81004 170.5874 193.20067 169.91553Q192.5913 169.22803 192.5913 167.86865ZM194.73192 166.13428Q194.2788 166.13428 193.9663 166.54053Q193.66942 166.93115 193.66942 167.97803Q193.66942 168.94678 193.9663 169.3374Q194.2788 169.72803 194.73192 169.72803Q195.20067 169.72803 195.49754 169.3374Q195.81004 168.94678 195.81004 167.88428Q195.81004 166.91553 195.49754 166.5249Q195.18504 166.13428 194.73192 166.13428ZM194.73192 175.85303L200.2163 165.29053L201.2163 165.29053L195.76317 175.85303L194.73192 175.85303ZM199.07567 173.11865Q199.07567 172.04053 199.60692 171.30615Q200.1538 170.55615 201.18504 170.55615Q202.12254 170.55615 202.74754 171.22803Q203.37254 171.8999 203.37254 173.19678Q203.37254 174.47803 202.74754 175.16553Q202.12254 175.85303 201.18504 175.85303Q200.2788 175.85303 199.66942 175.18115Q199.07567 174.49365 199.07567 173.11865ZM201.2163 171.3999Q200.74754 171.3999 200.45067 171.80615Q200.1538 172.19678 200.1538 173.24365Q200.1538 174.2124 200.45067 174.60303Q200.76317 174.99365 201.2163 174.99365Q201.68504 174.99365 201.98192 174.60303Q202.29442 174.2124 202.29442 173.1499Q202.29442 172.18115 201.98192 171.79053Q201.68504 171.3999 201.2163 171.3999Z" fill-rule="nonzero"></path><path fill="#4285f4" d="M197.0 327.85C197.0 331.1637 194.3137 333.85 191.0 333.85C187.6863 333.85 185.0 331.1637 185.0 327.85C185.0 324.5363 187.6863 321.85 191.0 321.85C194.3137 321.85 197.0 324.5363 197.0 327.85Z" fill-rule="nonzero"></path><path fill="#1a1a1a" d="M213.29688 324.67813L212.8125 325.55313L211.875 325.0375L212.35938 324.17813L213.29688 324.67813ZM214.46875 330.63126L209.09375 330.63126Q207.85938 330.63126 207.09375 330.475Q206.20312 330.30313 205.73438 329.88126Q205.23438 329.4125 205.23438 328.63126Q205.23438 328.11563 205.53125 327.4125Q205.75 326.94376 205.84375 326.70938L206.07812 326.83438Q205.82812 327.35 205.75 327.61563Q205.67188 327.88126 205.67188 328.1Q205.67188 328.88126 206.51562 329.25626Q207.35938 329.61563 209.20312 329.61563L213.51562 329.61563Q212.82812 329.42813 212.5 329.17813Q212.14062 328.89688 212.14062 328.475Q212.14062 327.94376 212.5 327.31876Q212.90625 326.61563 213.40625 326.61563Q213.98438 326.61563 214.25 327.30313Q214.46875 327.88126 214.46875 328.94376L214.46875 330.63126ZM213.85938 328.85Q213.85938 328.35 213.75 328.06876Q213.60938 327.74063 213.32812 327.74063Q213.14062 327.74063 213.03125 327.86563Q212.9375 327.99063 212.9375 328.19376Q212.9375 328.49063 213.1875 328.63126Q213.35938 328.74063 213.85938 328.85ZM219.85938 330.63126Q219.85938 331.27188 219.3125 331.975Q218.82812 332.58438 218.125 333.02188Q217.4375 333.44376 217.0 333.44376Q216.59375 333.44376 216.125 333.31876Q215.76562 333.24063 215.26562 333.05313Q214.84375 332.89688 214.4375 332.725L214.53125 332.49063Q214.92188 332.56876 215.34375 332.64688Q215.76562 332.725 216.09375 332.725Q216.84375 332.725 217.65625 332.25626Q218.40625 331.80313 218.92188 331.14688Q219.4375 330.475 219.4375 329.92813Q219.4375 329.45938 219.17188 328.95938Q218.95312 328.55313 218.5625 328.11563L218.90625 327.19376Q219.375 327.63126 219.60938 328.08438Q219.85938 328.58438 219.85938 329.20938L219.85938 330.63126ZM230.15625 330.63126L223.10938 330.63126Q222.79688 330.63126 222.51562 330.52188Q222.29688 330.44376 222.0 330.25626Q221.75 330.475 221.5 330.55313Q221.26562 330.63126 220.71875 330.63126L219.59375 330.63126L219.59375 329.61563L220.71875 329.61563Q221.20312 329.61563 221.40625 329.5375Q221.73438 329.39688 221.73438 328.99063Q221.73438 328.81876 221.71875 328.64688Q221.70312 328.475 221.65625 328.27188L221.90625 327.9125Q222.10938 328.70938 222.46875 329.14688Q222.84375 329.61563 223.35938 329.61563Q223.84375 329.61563 224.51562 329.39688Q225.23438 329.14688 225.75 328.7875Q226.57812 328.17813 226.76562 328.06876Q227.25 327.75626 227.625 327.63126Q228.0625 327.49063 228.57812 327.49063Q229.375 327.49063 229.78125 327.94376Q230.15625 328.38126 230.15625 329.14688L230.15625 330.63126ZM229.20312 329.1625Q229.20312 328.88126 228.84375 328.725Q228.48438 328.55313 228.01562 328.55313Q227.42188 328.55313 226.59375 328.94376Q225.9375 329.27188 225.28125 329.61563L227.96875 329.61563Q228.60938 329.61563 228.90625 329.50626Q229.20312 329.39688 229.20312 329.1625ZM234.73438 330.63126L234.125 330.63126Q233.73438 330.63126 233.23438 330.45938Q232.67188 330.25626 232.23438 329.89688Q231.89062 330.30313 231.53125 330.475Q231.1875 330.63126 230.5 330.63126L229.59375 330.63126L229.59375 329.61563L230.48438 329.61563Q231.01562 329.61563 231.4375 329.35Q231.76562 329.13126 232.01562 328.75626Q232.375 328.24063 232.90625 327.85Q233.375 327.52188 233.76562 327.42813Q234.17188 328.0375 234.40625 328.52188Q234.73438 329.19376 234.73438 329.61563L234.73438 330.63126ZM234.0625 329.475Q233.98438 329.13126 233.82812 328.80313Q233.6875 328.5375 233.46875 328.24063Q233.1875 328.31876 232.98438 328.50626Q232.85938 328.63126 232.6875 328.92813Q232.89062 329.14688 233.26562 329.33438Q233.65625 329.50626 234.0 329.55313L234.0625 329.475Z" fill-rule="nonzero"></path><path fill="#1a1a1a" d="M242.53125 330.80313L242.03125 331.69376L241.125 331.1625L241.5625 330.31876L242.53125 330.80313ZM240.84375 328.27188Q240.71875 328.27188 240.5 328.25626Q240.28125 328.24063 240.15625 328.24063Q239.78125 328.24063 239.3125 328.30313Q239.01562 328.35 238.48438 328.45938Q238.71875 327.80313 238.92188 327.6Q239.35938 327.1625 240.40625 327.1625Q240.79688 327.1625 241.98438 327.33438Q242.54688 327.39688 242.95312 327.39688Q243.10938 327.39688 243.4375 327.36563Q243.76562 327.31876 243.9375 327.31876L243.71875 328.31876Q242.48438 328.52188 241.60938 328.7875Q240.32812 329.19376 239.60938 329.77188Q238.70312 330.475 238.70312 331.45938Q238.70312 332.70938 240.01562 333.35Q241.17188 333.89688 243.07812 333.89688L244.15625 333.89688L244.1875 333.95938L242.85938 334.89688L242.53125 334.89688Q241.26562 334.89688 240.42188 334.6625Q239.42188 334.38126 238.90625 333.75626Q238.3125 333.05313 238.3125 331.88126Q238.3125 330.89688 238.78125 330.11563Q239.125 329.50626 239.8125 328.975Q240.01562 328.81876 240.84375 328.27188ZM250.1875 330.2875Q250.1875 331.24063 249.46875 332.20938Q248.67188 333.27188 247.625 333.27188Q247.25 333.27188 246.82812 333.17813Q246.53125 333.11563 246.0625 332.95938Q245.67188 332.81876 245.29688 332.69376L245.39062 332.49063Q245.71875 332.56876 246.07812 332.64688Q246.4375 332.74063 246.73438 332.74063Q247.4375 332.74063 248.07812 332.38126Q248.57812 332.08438 249.07812 331.5375Q249.32812 331.27188 249.79688 330.64688Q249.0 330.64688 248.60938 330.39688Q248.17188 330.1 248.17188 329.44376Q248.17188 328.85 248.45312 328.33438Q248.78125 327.725 249.28125 327.725Q249.78125 327.725 250.01562 328.31876Q250.1875 328.7875 250.1875 329.61563L250.1875 330.2875ZM249.8125 329.64688Q249.6875 329.08438 249.5 328.86563Q249.34375 328.67813 249.125 328.67813Q248.95312 328.67813 248.82812 328.7875Q248.71875 328.89688 248.71875 329.05313Q248.71875 329.35 248.96875 329.50626Q249.23438 329.64688 249.8125 329.64688ZM251.98438 329.13126Q251.98438 329.6 251.8125 330.05313Q251.71875 330.2875 251.4375 330.7875L251.32812 330.725Q251.34375 330.56876 251.35938 330.35Q251.375 330.11563 251.375 330.0375Q251.375 329.42813 251.26562 328.33438Q251.17188 327.24063 251.04688 326.05313Q250.96875 325.33438 250.85938 324.58438Q250.98438 324.33438 251.125 324.0375Q251.28125 323.725 251.40625 323.45938Q251.5 324.13126 251.64062 325.30313Q251.79688 326.45938 251.875 327.38126Q251.98438 328.55313 251.98438 329.13126Z" fill-rule="nonzero"></path><path fill="#1a1a1a" d="M260.8125 325.31876L260.34375 326.1625L259.40625 325.64688L259.84375 324.81876L260.8125 325.31876ZM259.45312 325.83438L259.01562 326.69376L258.0625 326.19376L258.5 325.35L259.45312 325.83438ZM263.5625 330.63126L257.96875 330.63126Q256.84375 330.63126 256.17188 330.24063Q255.34375 329.74063 255.34375 328.69376Q255.34375 328.14688 255.59375 327.58438Q255.67188 327.38126 256.01562 326.80313L256.1875 326.9125Q256.0625 327.19376 255.9375 327.45938Q255.76562 327.86563 255.76562 328.19376Q255.76562 328.89688 256.48438 329.27188Q257.14062 329.61563 258.14062 329.61563L263.09375 329.61563L263.09375 329.45938Q263.09375 328.80313 262.9375 328.39688Q262.78125 327.975 262.40625 327.67813L262.85938 326.725Q263.10938 327.05313 263.15625 327.13126Q263.5625 327.7875 263.5625 329.0375L263.5625 330.63126ZM266.75 330.63126L265.9375 330.63126Q265.53125 330.63126 265.29688 330.30313Q265.07812 330.02188 264.96875 329.475Q264.875 328.9125 264.8125 328.1Q264.78125 327.44376 264.73438 326.74063Q264.70312 326.0375 264.64062 325.67813Q264.57812 325.31876 264.46875 325.1Q264.34375 324.81876 264.10938 324.6L264.82812 323.45938Q265.0625 324.1625 265.15625 325.14688Q265.21875 325.75626 265.26562 328.0375Q265.375 329.06876 265.57812 329.36563Q265.73438 329.61563 265.9375 329.61563L266.75 329.61563L266.75 330.63126ZM272.64062 328.80313L272.23438 329.86563Q271.35938 330.19376 270.1875 330.4125Q269.03125 330.63126 268.04688 330.63126L266.59375 330.63126L266.59375 329.61563L268.0 329.61563Q267.82812 329.33438 267.71875 328.99063Q267.60938 328.64688 267.60938 328.31876Q267.60938 327.61563 268.1875 327.14688Q268.76562 326.67813 269.67188 326.67813Q270.40625 326.67813 270.875 327.0375Q271.0625 327.17813 271.54688 327.75626L271.4375 327.85Q271.03125 327.74063 270.70312 327.69376Q270.375 327.63126 270.03125 327.63126Q269.23438 327.63126 268.76562 327.81876Q268.3125 327.99063 268.3125 328.2875Q268.3125 328.56876 268.59375 328.92813Q268.89062 329.27188 269.34375 329.55313Q270.3125 329.4125 270.92188 329.27188Q271.53125 329.13126 272.64062 328.80313ZM275.75 330.63126L274.9375 330.63126Q274.53125 330.63126 274.29688 330.30313Q274.07812 330.02188 273.96875 329.475Q273.875 328.9125 273.8125 328.1Q273.78125 327.44376 273.73438 326.74063Q273.70312 326.0375 273.64062 325.67813Q273.57812 325.31876 273.46875 325.1Q273.34375 324.81876 273.10938 324.6L273.82812 323.45938Q274.0625 324.1625 274.15625 325.14688Q274.21875 325.75626 274.26562 328.0375Q274.375 329.06876 274.57812 329.36563Q274.73438 329.61563 274.9375 329.61563L275.75 329.61563L275.75 330.63126ZM282.375 330.63126L281.92188 330.63126Q281.54688 330.63126 281.26562 330.5375Q281.0 330.42813 280.78125 330.24063Q280.5 330.45938 280.29688 330.52188Q280.0 330.63126 279.48438 330.63126L279.09375 330.63126Q278.79688 330.63126 278.48438 330.52188Q278.29688 330.44376 278.0 330.25626Q277.71875 330.475 277.48438 330.55313Q277.25 330.63126 276.71875 330.63126L275.59375 330.63126L275.59375 329.61563L276.71875 329.61563Q277.20312 329.61563 277.40625 329.5375Q277.73438 329.39688 277.73438 328.99063Q277.73438 328.81876 277.71875 328.64688Q277.70312 328.475 277.65625 328.27188L277.90625 327.9125Q278.0625 328.45938 278.17188 328.70938Q278.35938 329.13126 278.57812 329.35Q278.84375 329.61563 279.21875 329.61563L279.60938 329.61563Q280.0625 329.61563 280.26562 329.475Q280.5 329.31876 280.5 328.99063Q280.5 328.80313 280.46875 328.64688Q280.45312 328.475 280.40625 328.27188L280.65625 327.9125L280.78125 328.475Q280.9375 329.11563 281.17188 329.36563Q281.375 329.6 281.70312 329.6Q281.85938 329.6 281.95312 329.50626Q282.0625 329.39688 282.0625 329.25626Q282.0625 328.92813 281.8125 328.55313Q281.78125 328.50626 281.53125 328.17813L281.90625 327.5375Q282.15625 327.89688 282.23438 328.1625Q282.375 328.56876 282.375 329.225L282.375 330.63126Z" fill-rule="nonzero"></path><path fill="#ea4335" d="M310.0 327.85C310.0 331.1637 307.31372 333.85 304.0 333.85C300.68628 333.85 298.0 331.1637 298.0 327.85C298.0 324.5363 300.68628 321.85 304.0 321.85C307.31372 321.85 310.0 324.5363 310.0 327.85Z" fill-rule="nonzero"></path><path fill="#1a1a1a" d="M322.53125 330.80313L322.03125 331.69376L321.125 331.1625L321.5625 330.31876L322.53125 330.80313ZM320.84375 328.27188Q320.71875 328.27188 320.5 328.25626Q320.28125 328.24063 320.15625 328.24063Q319.78125 328.24063 319.3125 328.30313Q319.01562 328.35 318.48438 328.45938Q318.71875 327.80313 318.92188 327.6Q319.35938 327.1625 320.40625 327.1625Q320.79688 327.1625 321.98438 327.33438Q322.54688 327.39688 322.95312 327.39688Q323.10938 327.39688 323.4375 327.36563Q323.76562 327.31876 323.9375 327.31876L323.71875 328.31876Q322.48438 328.52188 321.60938 328.7875Q320.32812 329.19376 319.60938 329.77188Q318.70312 330.475 318.70312 331.45938Q318.70312 332.70938 320.01562 333.35Q321.17188 333.89688 323.07812 333.89688L324.15625 333.89688L324.1875 333.95938L322.85938 334.89688L322.53125 334.89688Q321.26562 334.89688 320.42188 334.6625Q319.42188 334.38126 318.90625 333.75626Q318.3125 333.05313 318.3125 331.88126Q318.3125 330.89688 318.78125 330.11563Q319.125 329.50626 319.8125 328.975Q320.01562 328.81876 320.84375 328.27188ZM330.1875 330.2875Q330.1875 331.24063 329.46875 332.20938Q328.67188 333.27188 327.625 333.27188Q327.25 333.27188 326.82812 333.17813Q326.53125 333.11563 326.0625 332.95938Q325.67188 332.81876 325.29688 332.69376L325.39062 332.49063Q325.71875 332.56876 326.07812 332.64688Q326.4375 332.74063 326.73438 332.74063Q327.4375 332.74063 328.07812 332.38126Q328.57812 332.08438 329.07812 331.5375Q329.32812 331.27188 329.79688 330.64688Q329.0 330.64688 328.60938 330.39688Q328.17188 330.1 328.17188 329.44376Q328.17188 328.85 328.45312 328.33438Q328.78125 327.725 329.28125 327.725Q329.78125 327.725 330.01562 328.31876Q330.1875 328.7875 330.1875 329.61563L330.1875 330.2875ZM329.8125 329.64688Q329.6875 329.08438 329.5 328.86563Q329.34375 328.67813 329.125 328.67813Q328.95312 328.67813 328.82812 328.7875Q328.71875 328.89688 328.71875 329.05313Q328.71875 329.35 328.96875 329.50626Q329.23438 329.64688 329.8125 329.64688ZM331.98438 329.13126Q331.98438 329.6 331.8125 330.05313Q331.71875 330.2875 331.4375 330.7875L331.32812 330.725Q331.34375 330.56876 331.35938 330.35Q331.375 330.11563 331.375 330.0375Q331.375 329.42813 331.26562 328.33438Q331.17188 327.24063 331.04688 326.05313Q330.96875 325.33438 330.85938 324.58438Q330.98438 324.33438 331.125 324.0375Q331.28125 323.725 331.40625 323.45938Q331.5 324.13126 331.64062 325.30313Q331.79688 326.45938 331.875 327.38126Q331.98438 328.55313 331.98438 329.13126Z" fill-rule="nonzero"></path><path fill="#1a1a1a" d="M340.85938 330.63126Q340.85938 331.27188 340.3125 331.975Q339.82812 332.58438 339.125 333.02188Q338.4375 333.44376 338.0 333.44376Q337.59375 333.44376 337.125 333.31876Q336.76562 333.24063 336.26562 333.05313Q335.84375 332.89688 335.4375 332.725L335.53125 332.49063Q335.92188 332.56876 336.34375 332.64688Q336.76562 332.725 337.09375 332.725Q337.84375 332.725 338.65625 332.25626Q339.40625 331.80313 339.92188 331.14688Q340.4375 330.475 340.4375 329.92813Q340.4375 329.45938 340.17188 328.95938Q339.95312 328.55313 339.5625 328.11563L339.90625 327.19376Q340.375 327.63126 340.60938 328.08438Q340.85938 328.58438 340.85938 329.20938L340.85938 330.63126ZM343.9375 330.63126L340.59375 330.63126L340.59375 329.61563L343.5 329.61563Q343.5 328.92813 343.34375 328.55313Q343.23438 328.30313 342.78125 327.83438L343.25 326.88126Q343.67188 327.4125 343.76562 327.70938Q343.9375 328.1625 343.9375 329.20938L343.9375 330.63126ZM343.90625 331.80313L343.4375 332.64688L342.5 332.14688L342.9375 331.30313L343.90625 331.80313ZM342.54688 332.33438L342.10938 333.17813L341.15625 332.69376L341.59375 331.83438L342.54688 332.33438ZM347.1875 325.17813L346.75 326.02188L345.78125 325.5375L346.23438 324.67813L347.1875 325.17813ZM349.64062 328.80313L349.23438 329.86563Q348.35938 330.19376 347.1875 330.4125Q346.03125 330.63126 345.04688 330.63126L343.59375 330.63126L343.59375 329.61563L345.0 329.61563Q344.82812 329.33438 344.71875 328.99063Q344.60938 328.64688 344.60938 328.31876Q344.60938 327.61563 345.1875 327.14688Q345.76562 326.67813 346.67188 326.67813Q347.40625 326.67813 347.875 327.0375Q348.0625 327.17813 348.54688 327.75626L348.4375 327.85Q348.03125 327.74063 347.70312 327.69376Q347.375 327.63126 347.03125 327.63126Q346.23438 327.63126 345.76562 327.81876Q345.3125 327.99063 345.3125 328.2875Q345.3125 328.56876 345.59375 328.92813Q345.89062 329.27188 346.34375 329.55313Q347.3125 329.4125 347.92188 329.27188Q348.53125 329.13126 349.64062 328.80313Z" fill-rule="nonzero"></path><path fill="#1a1a1a" d="M358.8125 325.31876L358.34375 326.1625L357.40625 325.64688L357.84375 324.81876L358.8125 325.31876ZM357.45312 325.83438L357.01562 326.69376L356.0625 326.19376L356.5 325.35L357.45312 325.83438ZM361.5625 330.63126L355.96875 330.63126Q354.84375 330.63126 354.17188 330.24063Q353.34375 329.74063 353.34375 328.69376Q353.34375 328.14688 353.59375 327.58438Q353.67188 327.38126 354.01562 326.80313L354.1875 326.9125Q354.0625 327.19376 353.9375 327.45938Q353.76562 327.86563 353.76562 328.19376Q353.76562 328.89688 354.48438 329.27188Q355.14062 329.61563 356.14062 329.61563L361.09375 329.61563L361.09375 329.45938Q361.09375 328.80313 360.9375 328.39688Q360.78125 327.975 360.40625 327.67813L360.85938 326.725Q361.10938 327.05313 361.15625 327.13126Q361.5625 327.7875 361.5625 329.0375L361.5625 330.63126ZM364.75 330.63126L363.9375 330.63126Q363.53125 330.63126 363.29688 330.30313Q363.07812 330.02188 362.96875 329.475Q362.875 328.9125 362.8125 328.1Q362.78125 327.44376 362.73438 326.74063Q362.70312 326.0375 362.64062 325.67813Q362.57812 325.31876 362.46875 325.1Q362.34375 324.81876 362.10938 324.6L362.82812 323.45938Q363.0625 324.1625 363.15625 325.14688Q363.21875 325.75626 363.26562 328.0375Q363.375 329.06876 363.57812 329.36563Q363.73438 329.61563 363.9375 329.61563L364.75 329.61563L364.75 330.63126ZM370.64062 328.80313L370.23438 329.86563Q369.35938 330.19376 368.1875 330.4125Q367.03125 330.63126 366.04688 330.63126L364.59375 330.63126L364.59375 329.61563L366.0 329.61563Q365.82812 329.33438 365.71875 328.99063Q365.60938 328.64688 365.60938 328.31876Q365.60938 327.61563 366.1875 327.14688Q366.76562 326.67813 367.67188 326.67813Q368.40625 326.67813 368.875 327.0375Q369.0625 327.17813 369.54688 327.75626L369.4375 327.85Q369.03125 327.74063 368.70312 327.69376Q368.375 327.63126 368.03125 327.63126Q367.23438 327.63126 366.76562 327.81876Q366.3125 327.99063 366.3125 328.2875Q366.3125 328.56876 366.59375 328.92813Q366.89062 329.27188 367.34375 329.55313Q368.3125 329.4125 368.92188 329.27188Q369.53125 329.13126 370.64062 328.80313ZM373.75 330.63126L372.9375 330.63126Q372.53125 330.63126 372.29688 330.30313Q372.07812 330.02188 371.96875 329.475Q371.875 328.9125 371.8125 328.1Q371.78125 327.44376 371.73438 326.74063Q371.70312 326.0375 371.64062 325.67813Q371.57812 325.31876 371.46875 325.1Q371.34375 324.81876 371.10938 324.6L371.82812 323.45938Q372.0625 324.1625 372.15625 325.14688Q372.21875 325.75626 372.26562 328.0375Q372.375 329.06876 372.57812 329.36563Q372.73438 329.61563 372.9375 329.61563L373.75 329.61563L373.75 330.63126ZM380.375 330.63126L379.92188 330.63126Q379.54688 330.63126 379.26562 330.5375Q379.0 330.42813 378.78125 330.24063Q378.5 330.45938 378.29688 330.52188Q378.0 330.63126 377.48438 330.63126L377.09375 330.63126Q376.79688 330.63126 376.48438 330.52188Q376.29688 330.44376 376.0 330.25626Q375.71875 330.475 375.48438 330.55313Q375.25 330.63126 374.71875 330.63126L373.59375 330.63126L373.59375 329.61563L374.71875 329.61563Q375.20312 329.61563 375.40625 329.5375Q375.73438 329.39688 375.73438 328.99063Q375.73438 328.81876 375.71875 328.64688Q375.70312 328.475 375.65625 328.27188L375.90625 327.9125Q376.0625 328.45938 376.17188 328.70938Q376.35938 329.13126 376.57812 329.35Q376.84375 329.61563 377.21875 329.61563L377.60938 329.61563Q378.0625 329.61563 378.26562 329.475Q378.5 329.31876 378.5 328.99063Q378.5 328.80313 378.46875 328.64688Q378.45312 328.475 378.40625 328.27188L378.65625 327.9125L378.78125 328.475Q378.9375 329.11563 379.17188 329.36563Q379.375 329.6 379.70312 329.6Q379.85938 329.6 379.95312 329.50626Q380.0625 329.39688 380.0625 329.25626Q380.0625 328.92813 379.8125 328.55313Q379.78125 328.50626 379.53125 328.17813L379.90625 327.5375Q380.15625 327.89688 380.23438 328.1625Q380.375 328.56876 380.375 329.225L380.375 330.63126Z" fill-rule="nonzero"></path></svg> 